<svg width="20" height="21" viewBox="0 0 20 21" fill="none" xmlns="http://www.w3.org/2000/svg">
<path id="Vector" fill-rule="evenodd" clip-rule="evenodd" d="M11.5571 0.314235C11.4181 0.292349 11.2762 0.298215 11.1394 0.331496C11.0027 0.364778 10.8738 0.424824 10.7601 0.508206C10.6464 0.591588 10.5502 0.696673 10.4769 0.817461C10.4035 0.93825 10.3546 1.07238 10.3329 1.21218C10.3111 1.35199 10.3169 1.49474 10.35 1.63228C10.3831 1.76981 10.4428 1.89945 10.5257 2.01379C10.6086 2.12812 10.7131 2.22491 10.8332 2.29863C10.9533 2.37235 11.0867 2.42156 11.2257 2.44345C13.1747 2.75907 14.9341 3.80066 16.1544 5.36119C17.3747 6.92172 17.9665 8.8869 17.8121 10.8661C17.6576 12.8453 16.7683 14.6936 15.3209 16.0436C13.8735 17.3936 11.974 18.1465 10 18.1525C8.42457 18.1528 6.88542 17.6769 5.58219 16.7867C4.27897 15.8964 3.27183 14.6329 2.69143 13.1599C2.64268 13.0242 2.56735 12.8998 2.46989 12.794C2.37243 12.6881 2.25484 12.6031 2.12408 12.5438C1.99332 12.4845 1.85205 12.4522 1.70866 12.4489C1.56527 12.4455 1.42267 12.4712 1.28931 12.5243C1.15596 12.5774 1.03456 12.6569 0.932322 12.758C0.830083 12.8592 0.749083 12.98 0.694125 13.1132C0.639166 13.2465 0.611367 13.3895 0.612376 13.5337C0.613386 13.6779 0.643182 13.8205 0.7 13.953C1.55824 16.1273 3.14316 17.9329 5.18207 19.059C7.22099 20.1852 9.58642 20.5614 11.8714 20.1231C14.1563 19.6848 16.218 18.4592 17.7015 16.6574C19.1851 14.8555 19.9979 12.59 20 10.2506C19.9999 7.85451 19.1494 5.53718 17.6017 3.71562C16.0539 1.89407 13.9105 0.687912 11.5571 0.314235ZM8.80571 1.14322C8.84093 1.28039 8.8489 1.42319 8.82917 1.56346C8.80945 1.70373 8.76241 1.83871 8.69076 1.96068C8.61911 2.08265 8.52425 2.18921 8.4116 2.27427C8.29896 2.35932 8.17074 2.42121 8.03429 2.45638C7.67639 2.54899 7.32551 2.6671 6.98429 2.80981C6.85437 2.86415 6.71509 2.89222 6.57438 2.89242C6.43368 2.89262 6.29432 2.86495 6.16425 2.81098C6.03418 2.75702 5.91596 2.67782 5.81632 2.5779C5.71669 2.47799 5.6376 2.35931 5.58357 2.22866C5.52954 2.098 5.50163 1.95792 5.50143 1.81642C5.50123 1.67492 5.52874 1.53476 5.5824 1.40395C5.63606 1.27314 5.71481 1.15424 5.81416 1.05404C5.91351 0.953837 6.03151 0.874297 6.16143 0.819959C6.59286 0.638933 7.04 0.488078 7.50143 0.368831C7.63772 0.333632 7.77957 0.325779 7.91889 0.34572C8.0582 0.365661 8.19224 0.413005 8.31336 0.485049C8.43447 0.557092 8.54029 0.652424 8.62477 0.765601C8.70925 0.878777 8.77074 1.00614 8.80571 1.14322ZM4.55 2.91469C4.74764 3.11976 4.85625 3.39535 4.85196 3.68091C4.84768 3.96646 4.73085 4.23863 4.52714 4.43761C3.99596 4.95828 3.53922 5.55059 3.17 6.19758C3.10209 6.32396 3.00974 6.4354 2.89838 6.52536C2.78701 6.61531 2.65889 6.68197 2.52154 6.7214C2.3842 6.76084 2.24039 6.77225 2.09859 6.75498C1.95679 6.73771 1.81986 6.6921 1.69584 6.62083C1.57183 6.54956 1.46323 6.45407 1.37645 6.33997C1.28966 6.22588 1.22643 6.09549 1.19048 5.95646C1.15453 5.81744 1.14659 5.67258 1.16711 5.53042C1.18764 5.38827 1.23622 5.25167 1.31 5.12867C1.77787 4.30517 2.35882 3.55211 3.03571 2.8917C3.23962 2.69293 3.51365 2.58371 3.79759 2.58802C4.08153 2.59233 4.35215 2.70982 4.55 2.91469ZM1.30857 7.77941C1.58986 7.81929 1.84389 7.96988 2.0148 8.19808C2.18571 8.42628 2.25952 8.71339 2.22 8.9963C2.16847 9.36519 2.1427 9.73725 2.14286 10.1098C2.14286 10.3955 2.02997 10.6696 1.82904 10.8717C1.62811 11.0738 1.35559 11.1873 1.07143 11.1873C0.787268 11.1873 0.514746 11.0738 0.313814 10.8717C0.112882 10.6696 0 10.3955 0 10.1098C0 9.63133 0.0328571 9.15865 0.0985714 8.69603C0.13823 8.41314 0.287971 8.15766 0.514873 7.98578C0.741775 7.81389 1.02726 7.73966 1.30857 7.77941ZM6.42857 12.9545V7.54666C6.4287 7.30185 6.49103 7.06114 6.60963 6.84737C6.72824 6.63359 6.8992 6.45384 7.10628 6.32517C7.31336 6.1965 7.5497 6.12318 7.79287 6.11216C8.03604 6.10115 8.27797 6.15281 8.49571 6.26223L13.8729 8.96613C14.1098 9.08558 14.3091 9.26898 14.4483 9.49581C14.5876 9.72265 14.6613 9.98397 14.6613 10.2506C14.6613 10.5171 14.5876 10.7785 14.4483 11.0053C14.3091 11.2321 14.1098 11.4155 13.8729 11.535L8.49571 14.2389C8.27797 14.3483 8.03604 14.4 7.79287 14.3889C7.5497 14.3779 7.31336 14.3046 7.10628 14.1759C6.8992 14.0473 6.72824 13.8675 6.60963 13.6537C6.49103 13.44 6.4287 13.1993 6.42857 12.9545Z" fill="#D9D9D9"/>
</svg>
