<svg width="24" height="24" viewBox="0 0 24 24" fill="none" xmlns="http://www.w3.org/2000/svg">
<g clip-path="url(#clip0_972_55337)">
<g clip-path="url(#clip1_972_55337)">
<path d="M12 24L17.25 15C17.75 14.1406 18 13.1406 18 12C18 11.125 17.8203 10.2969 17.4609 9.51562C17.1016 8.73438 16.6016 8.0625 15.9609 7.5H23.1094C23.7031 8.95312 24 10.4531 24 12C24 14.1719 23.4648 16.1797 22.3945 18.0234C21.3242 19.8672 19.8672 21.3242 18.0234 22.3945C16.1797 23.4648 14.1719 24 12 24ZM6.11719 10.8047L2.55469 4.61719C3.66406 3.19531 5.04297 2.07031 6.69141 1.24219C8.33984 0.414063 10.1094 0 12 0C14.1875 0 16.1992 0.542969 18.0352 1.62891C19.8711 2.71484 21.3203 4.17188 22.3828 6H12C10.5625 6 9.29297 6.45703 8.19141 7.37109C7.08984 8.28516 6.39844 9.42969 6.11719 10.8047ZM12 7.5C13.25 7.5 14.3125 7.9375 15.1875 8.8125C16.0625 9.6875 16.5 10.75 16.5 12C16.5 13.25 16.0625 14.3125 15.1875 15.1875C14.3125 16.0625 13.25 16.5 12 16.5C10.75 16.5 9.6875 16.0625 8.8125 15.1875C7.9375 14.3125 7.5 13.25 7.5 12C7.5 10.75 7.9375 9.6875 8.8125 8.8125C9.6875 7.9375 10.75 7.5 12 7.5ZM6.75 15C7.28125 15.9062 8.01562 16.6328 8.95312 17.1797C9.89062 17.7266 10.9062 18 12 18C12.6562 18 13.2969 17.8906 13.9219 17.6719L10.3359 23.8828C8.41406 23.6016 6.66406 22.9102 5.08594 21.8086C3.50781 20.707 2.26562 19.293 1.35938 17.5664C0.453125 15.8398 0 13.9844 0 12C0 9.85938 0.539062 7.85938 1.61719 6L6.75 15Z" fill="white"/>
</g>
</g>
<defs>
<clipPath id="clip0_972_55337">
<rect width="24" height="24" fill="white"/>
</clipPath>
<clipPath id="clip1_972_55337">
<rect width="24" height="24" fill="white"/>
</clipPath>
</defs>
</svg>
