<svg width="32" height="32" viewBox="0 0 32 32" fill="none" xmlns="http://www.w3.org/2000/svg">
<path fill-rule="evenodd" clip-rule="evenodd" d="M13.0631 18.3104L9.1508 18.3104C8.83861 18.2992 8.53363 18.2131 8.26137 18.0591C7.98911 17.9052 7.75748 17.6879 7.58587 17.4255C7.40081 17.175 7.27769 16.8839 7.22666 16.5762C7.17564 16.2684 7.19819 15.9529 7.29245 15.6557L9.63984 8.57634C9.93326 7.69142 10.1289 7.1998 11.4982 7.1998C13.4543 7.1998 15.6061 7.88807 17.4645 8.47802L18.9316 8.87131L18.9316 18.5071C17.3718 20.1551 15.9945 21.9683 14.8236 23.9149C14.7258 24.3082 14.3346 24.6032 13.9434 24.7998L12.7697 24.7998C12.3785 24.7015 12.085 24.4065 11.7916 24.1115L11.596 22.8333L13.0631 18.3104ZM23.6264 18.0154L20.8877 18.0154L20.8877 10.1495C20.8877 9.62798 21.0938 9.1278 21.4607 8.75901C21.8275 8.39023 22.3251 8.18304 22.8439 8.18304C23.3627 8.18304 23.8603 8.39023 24.2271 8.75901C24.594 9.1278 24.8001 9.62798 24.8001 10.1495L24.8 16.8356C24.8 17.5238 24.311 18.0154 23.6264 18.0154Z" stroke="white" stroke-width="1.5"/>
</svg>
