<svg width="20" height="20" viewBox="0 0 20 20" fill="none" xmlns="http://www.w3.org/2000/svg">
<path d="M10.0156 6.75423C10.1285 6.75423 10.2326 6.77593 10.3281 6.81934C10.4236 6.86274 10.5148 6.92784 10.6016 7.01465L15.5625 12.0863C15.7101 12.2295 15.7839 12.4074 15.7839 12.6201C15.7839 12.759 15.7491 12.887 15.6797 13.0042C15.6146 13.1214 15.5234 13.2147 15.4063 13.2842C15.2934 13.3493 15.1675 13.3818 15.0286 13.3818C14.8203 13.3818 14.6359 13.3037 14.4753 13.1475L10.0156 8.57715L5.55599 13.1475C5.3954 13.3037 5.21311 13.3818 5.00911 13.3818C4.86589 13.3818 4.73785 13.3493 4.625 13.2842C4.51215 13.2147 4.42318 13.1214 4.35807 13.0042C4.28863 12.887 4.25391 12.759 4.25391 12.6201C4.25391 12.4074 4.32552 12.2295 4.46875 12.0863L9.42969 7.01465C9.51649 6.92784 9.60764 6.86274 9.70313 6.81934C9.79861 6.77593 9.90278 6.75423 10.0156 6.75423Z" fill="#8C8C8C"/>
</svg>
