<svg width="29" height="19" viewBox="0 0 29 19" fill="none" xmlns="http://www.w3.org/2000/svg">
<path d="M0.840199 18V0.545454H11.3061V2.42045H2.95384V8.31818H10.522V10.1932H2.95384V18H0.840199ZM28.9716 6H26.858C26.733 5.39205 26.5142 4.85795 26.2017 4.39773C25.8949 3.9375 25.5199 3.55114 25.0767 3.23864C24.6392 2.92045 24.1534 2.68182 23.6193 2.52273C23.0852 2.36364 22.5284 2.28409 21.9489 2.28409C20.892 2.28409 19.9347 2.55114 19.0767 3.08523C18.2244 3.61932 17.5455 4.40625 17.0398 5.44602C16.5398 6.4858 16.2898 7.76136 16.2898 9.27273C16.2898 10.7841 16.5398 12.0597 17.0398 13.0994C17.5455 14.1392 18.2244 14.9261 19.0767 15.4602C19.9347 15.9943 20.892 16.2614 21.9489 16.2614C22.5284 16.2614 23.0852 16.1818 23.6193 16.0227C24.1534 15.8636 24.6392 15.6278 25.0767 15.3153C25.5199 14.9972 25.8949 14.608 26.2017 14.1477C26.5142 13.6818 26.733 13.1477 26.858 12.5455H28.9716C28.8125 13.4375 28.5227 14.2358 28.1023 14.9403C27.6818 15.6449 27.1591 16.2443 26.5341 16.7386C25.9091 17.2273 25.2074 17.5994 24.429 17.8551C23.6563 18.1108 22.8295 18.2386 21.9489 18.2386C20.4602 18.2386 19.1364 17.875 17.9773 17.1477C16.8182 16.4205 15.9063 15.3864 15.2415 14.0455C14.5767 12.7045 14.2443 11.1136 14.2443 9.27273C14.2443 7.43182 14.5767 5.84091 15.2415 4.5C15.9063 3.15909 16.8182 2.125 17.9773 1.39773C19.1364 0.670454 20.4602 0.306818 21.9489 0.306818C22.8295 0.306818 23.6563 0.434659 24.429 0.690341C25.2074 0.946023 25.9091 1.32102 26.5341 1.81534C27.1591 2.30398 27.6818 2.90057 28.1023 3.60511C28.5227 4.30398 28.8125 5.10227 28.9716 6Z" fill="white"/>
</svg>
