<svg width="14" height="14" viewBox="0 0 14 14" fill="none" xmlns="http://www.w3.org/2000/svg">
<g clip-path="url(#clip0_815_139271)">
<path d="M6.965 11.2C7.21 11.2 7.4172 11.1153 7.5866 10.9459C7.756 10.7765 7.84047 10.5695 7.84 10.325C7.84 10.08 7.75553 9.8728 7.5866 9.7034C7.41767 9.534 7.21047 9.44953 6.965 9.45C6.72 9.45 6.51303 9.5347 6.3441 9.7041C6.17517 9.8735 6.09047 10.0805 6.09 10.325C6.09 10.57 6.1747 10.7772 6.3441 10.9466C6.5135 11.116 6.72047 11.2005 6.965 11.2ZM6.335 8.505H7.63C7.63 8.12 7.67387 7.81667 7.7616 7.595C7.84933 7.37333 8.09713 7.07 8.505 6.685C8.80833 6.38167 9.0475 6.0928 9.2225 5.8184C9.3975 5.544 9.485 5.21453 9.485 4.83C9.485 4.17667 9.24583 3.675 8.7675 3.325C8.28917 2.975 7.72333 2.8 7.07 2.8C6.405 2.8 5.8653 2.975 5.4509 3.325C5.0365 3.675 4.74787 4.095 4.585 4.585L5.74 5.04C5.79833 4.83 5.9297 4.6025 6.1341 4.3575C6.3385 4.1125 6.65047 3.99 7.07 3.99C7.44333 3.99 7.72333 4.0922 7.91 4.2966C8.09667 4.501 8.19 4.72547 8.19 4.97C8.19 5.20333 8.12 5.4222 7.98 5.6266C7.84 5.831 7.665 6.02047 7.455 6.195C6.94167 6.65 6.62667 6.99417 6.51 7.2275C6.39333 7.46083 6.335 7.88667 6.335 8.505ZM7 14C6.03167 14 5.12167 13.8161 4.27 13.4484C3.41833 13.0807 2.6775 12.582 2.0475 11.9525C1.4175 11.3225 0.918867 10.5817 0.5516 9.73C0.184333 8.87833 0.000466667 7.96833 0 7C0 6.03167 0.183867 5.12167 0.5516 4.27C0.919333 3.41833 1.41797 2.6775 2.0475 2.0475C2.6775 1.4175 3.41833 0.918867 4.27 0.5516C5.12167 0.184333 6.03167 0.000466667 7 0C7.96833 0 8.87833 0.183867 9.73 0.5516C10.5817 0.919333 11.3225 1.41797 11.9525 2.0475C12.5825 2.6775 13.0814 3.41833 13.4491 4.27C13.8168 5.12167 14.0005 6.03167 14 7C14 7.96833 13.8161 8.87833 13.4484 9.73C13.0807 10.5817 12.582 11.3225 11.9525 11.9525C11.3225 12.5825 10.5817 13.0814 9.73 13.4491C8.87833 13.8168 7.96833 14.0005 7 14Z" fill="#019BE7"/>
</g>
<defs>
<clipPath id="clip0_815_139271">
<rect width="14" height="14" fill="white"/>
</clipPath>
</defs>
</svg>
