<svg width="29" height="24" viewBox="0 0 29 24" fill="none" xmlns="http://www.w3.org/2000/svg">
<path d="M21.2098 2C22.9385 2 24 3.08978 24 4.86456V15.4613C24 17.2361 22.9385 18.3155 21.2098 18.3155H18.1365L16.4381 16.3332H21.0986C21.7051 16.3332 22.059 15.9803 22.059 15.3472V4.97872C22.059 4.34561 21.7051 3.99273 21.0986 3.99273H2.90143C2.29486 3.99273 1.93092 4.34561 1.93092 4.97872V15.3472C1.93092 15.9803 2.29486 16.3332 2.90143 16.3332H7.57203L5.86352 18.3155H2.79023C1.05139 18.3155 0 17.2361 0 15.4613V4.86456C0 3.08978 1.05139 2 2.79023 2H21.2098ZM18.2679 22H5.74221C5.24684 22 5.05476 21.4707 5.36815 21.1074L11.5552 13.9253C11.7877 13.645 12.2123 13.645 12.4549 13.9253L18.6318 21.1074C18.9452 21.4707 18.7532 22 18.2679 22Z" fill="white"/>
<path d="M24 10C26.7614 10 29 7.76142 29 5C29 2.23858 26.7614 0 24 0C21.2386 0 19 2.23858 19 5C19 7.76142 21.2386 10 24 10Z" fill="#2C9D04"/>
</svg>
