<svg width="16" height="16" viewBox="0 0 16 16" fill="none" xmlns="http://www.w3.org/2000/svg">
<g id="Subscription Groups">
<path id="Vector" d="M6.0013 3.83398V11.6673C5.66797 11.5006 5.2513 11.334 4.7513 11.334C3.58464 11.334 2.66797 12.084 2.66797 13.0006C2.66797 13.9173 3.58464 14.6673 4.7513 14.6673C5.91797 14.6673 6.83464 13.9173 6.83464 13.0006V6.91732L12.668 5.00065V9.25065C12.3346 9.00065 11.918 8.83398 11.418 8.83398C10.2513 8.83398 9.33464 9.58398 9.33464 10.5007C9.33464 11.4173 10.2513 12.1673 11.418 12.1673C12.5846 12.1673 13.5013 11.4173 13.5013 10.5007V1.33398L6.0013 3.83398Z" fill="white" fill-opacity="0.6"/>
</g>
</svg>
