<svg width="24" height="24" viewBox="0 0 24 24" fill="none" xmlns="http://www.w3.org/2000/svg">
<g id="Frame 2608270">
<path id="Vector" d="M12 24C18.6274 24 24 18.6274 24 12C24 5.37258 18.6274 0 12 0C5.37258 0 0 5.37258 0 12C0 18.6274 5.37258 24 12 24Z" fill="#007DBA"/>
<path id="$" d="M11.5802 20V4H12.5926V20H11.5802ZM14.2654 9.28125C14.2161 8.77708 14.0041 8.38542 13.6296 8.10625C13.2551 7.82708 12.7469 7.6875 12.1049 7.6875C11.6687 7.6875 11.3004 7.75 11 7.875C10.6996 7.99583 10.4691 8.16458 10.3086 8.38125C10.1523 8.59792 10.0741 8.84375 10.0741 9.11875C10.0658 9.34792 10.1132 9.54792 10.216 9.71875C10.323 9.88958 10.4691 10.0375 10.6543 10.1625C10.8395 10.2833 11.0535 10.3896 11.2963 10.4813C11.5391 10.5688 11.7984 10.6438 12.0741 10.7063L13.2099 10.9812C13.7613 11.1062 14.2675 11.2729 14.7284 11.4813C15.1893 11.6896 15.5885 11.9458 15.9259 12.25C16.2634 12.5542 16.5247 12.9125 16.7099 13.325C16.8992 13.7375 16.9959 14.2104 17 14.7437C16.9959 15.5271 16.7984 16.2063 16.4074 16.7812C16.0206 17.3521 15.4609 17.7958 14.7284 18.1125C14 18.425 13.1214 18.5813 12.0926 18.5813C11.072 18.5813 10.1831 18.4229 9.42593 18.1062C8.67284 17.7896 8.08436 17.3208 7.66049 16.7C7.24074 16.075 7.02058 15.3021 7 14.3813H9.58642C9.61523 14.8104 9.73663 15.1687 9.95062 15.4563C10.1687 15.7396 10.4588 15.9542 10.821 16.1C11.1872 16.2417 11.6008 16.3125 12.0617 16.3125C12.5144 16.3125 12.9074 16.2458 13.2407 16.1125C13.5782 15.9792 13.8395 15.7937 14.0247 15.5563C14.2099 15.3188 14.3025 15.0458 14.3025 14.7375C14.3025 14.45 14.2181 14.2083 14.0494 14.0125C13.8848 13.8167 13.642 13.65 13.321 13.5125C13.0041 13.375 12.6152 13.25 12.1543 13.1375L10.7778 12.7875C9.71193 12.525 8.87037 12.1146 8.25309 11.5563C7.6358 10.9979 7.32922 10.2458 7.33333 9.3C7.32922 8.525 7.53292 7.84792 7.94444 7.26875C8.36008 6.68958 8.93004 6.2375 9.65432 5.9125C10.3786 5.5875 11.2016 5.425 12.1235 5.425C13.0617 5.425 13.8807 5.5875 14.5802 5.9125C15.284 6.2375 15.8313 6.68958 16.2222 7.26875C16.6132 7.84792 16.8148 8.51875 16.8272 9.28125H14.2654Z" fill="white"/>
</g>
</svg>
