<svg width="20" height="20" viewBox="0 0 24 24" fill="none" xmlns="http://www.w3.org/2000/svg">
<path d="M14.7403 7.61558C13.2269 9.12899 10.7731 9.12899 9.25974 7.61558C7.74633 6.10218 7.74633 3.64846 9.25974 2.13505C10.7731 0.621649 13.2269 0.621649 14.7403 2.13505C16.2537 3.64846 16.2537 6.10218 14.7403 7.61558Z" fill="white"/>
<path d="M7.61558 14.7403C6.10218 16.2537 3.64846 16.2537 2.13505 14.7403C0.621649 13.2269 0.621649 10.7731 2.13505 9.25974C3.64846 7.74633 6.10218 7.74633 7.61558 9.25974C9.12899 10.7731 9.12899 13.2269 7.61558 14.7403Z" fill="white"/>
<path d="M21.8649 14.7403C20.3515 16.2537 17.8978 16.2537 16.3844 14.7403C14.871 13.2269 14.871 10.7731 16.3844 9.25974C17.8978 7.74633 20.3515 7.74633 21.8649 9.25974C23.3784 10.7731 23.3784 13.2269 21.8649 14.7403Z" fill="white"/>
<path d="M14.7403 21.8649C13.2269 23.3784 10.7731 23.3784 9.25974 21.8649C7.74633 20.3515 7.74633 17.8978 9.25974 16.3844C10.7731 14.871 13.2269 14.871 14.7403 16.3844C16.2537 17.8978 16.2537 20.3515 14.7403 21.8649Z" fill="white"/>
</svg>
