<svg width="24" height="24" viewBox="0 0 24 24" fill="none" xmlns="http://www.w3.org/2000/svg">
<g clip-path="url(#clip0_1867_74936)">
<path d="M12 23L16.8125 14.75C17.2708 13.9622 17.5 13.0456 17.5 12C17.5 11.1979 17.3353 10.4388 17.0059 9.72266C16.6764 9.00651 16.2181 8.39062 15.6309 7.875H22.1836C22.7279 9.20703 23 10.582 23 12C23 13.9909 22.5094 15.8314 21.5283 17.5215C20.5472 19.2116 19.2116 20.5472 17.5215 21.5283C15.8314 22.5094 13.9909 23 12 23ZM6.60742 10.9043L3.3418 5.23242C4.35872 3.92904 5.62272 2.89779 7.13379 2.13867C8.64486 1.37956 10.2669 1 12 1C14.0052 1 15.8493 1.49772 17.5322 2.49316C19.2152 3.48861 20.5436 4.82422 21.5176 6.5H12C10.6823 6.5 9.51855 6.91895 8.50879 7.75684C7.49902 8.59473 6.86523 9.64388 6.60742 10.9043ZM12 7.875C13.1458 7.875 14.1198 8.27604 14.9219 9.07812C15.724 9.88021 16.125 10.8542 16.125 12C16.125 13.1458 15.724 14.1198 14.9219 14.9219C14.1198 15.724 13.1458 16.125 12 16.125C10.8542 16.125 9.88021 15.724 9.07812 14.9219C8.27604 14.1198 7.875 13.1458 7.875 12C7.875 10.8542 8.27604 9.88021 9.07812 9.07812C9.88021 8.27604 10.8542 7.875 12 7.875ZM7.1875 14.75C7.67448 15.5807 8.34766 16.2467 9.20703 16.748C10.0664 17.2493 10.9974 17.5 12 17.5C12.6016 17.5 13.1888 17.3997 13.7617 17.1992L10.4746 22.8926C8.71289 22.6348 7.10872 22.001 5.66211 20.9912C4.21549 19.9814 3.07682 18.6852 2.24609 17.1025C1.41536 15.5199 1 13.819 1 12C1 10.0378 1.49414 8.20443 2.48242 6.5L7.1875 14.75Z" fill="#595959"/>
</g>
<defs>
<clipPath id="clip0_1867_74936">
<rect width="22" height="22" fill="white" transform="translate(1 1)"/>
</clipPath>
</defs>
</svg>
