<svg width="27" height="25" viewBox="0 0 27 25" fill="none" xmlns="http://www.w3.org/2000/svg">
<g clip-path="url(#clip0_1867_74933)">
<path d="M12 24L16.8125 15.75C17.2708 14.9622 17.5 14.0456 17.5 13C17.5 12.1979 17.3353 11.4388 17.0059 10.7227C16.6764 10.0065 16.2181 9.39062 15.6309 8.875H22.1836C22.7279 10.207 23 11.582 23 13C23 14.9909 22.5094 16.8314 21.5283 18.5215C20.5472 20.2116 19.2116 21.5472 17.5215 22.5283C15.8314 23.5094 13.9909 24 12 24ZM6.60742 11.9043L3.3418 6.23242C4.35872 4.92904 5.62272 3.89779 7.13379 3.13867C8.64486 2.37956 10.2669 2 12 2C14.0052 2 15.8493 2.49772 17.5322 3.49316C19.2152 4.48861 20.5436 5.82422 21.5176 7.5H12C10.6823 7.5 9.51855 7.91895 8.50879 8.75684C7.49902 9.59473 6.86523 10.6439 6.60742 11.9043ZM12 8.875C13.1458 8.875 14.1198 9.27604 14.9219 10.0781C15.724 10.8802 16.125 11.8542 16.125 13C16.125 14.1458 15.724 15.1198 14.9219 15.9219C14.1198 16.724 13.1458 17.125 12 17.125C10.8542 17.125 9.88021 16.724 9.07812 15.9219C8.27604 15.1198 7.875 14.1458 7.875 13C7.875 11.8542 8.27604 10.8802 9.07812 10.0781C9.88021 9.27604 10.8542 8.875 12 8.875ZM7.1875 15.75C7.67448 16.5807 8.34766 17.2467 9.20703 17.748C10.0664 18.2493 10.9974 18.5 12 18.5C12.6016 18.5 13.1888 18.3997 13.7617 18.1992L10.4746 23.8926C8.71289 23.6348 7.10872 23.001 5.66211 21.9912C4.21549 20.9814 3.07682 19.6852 2.24609 18.1025C1.41536 16.5199 1 14.819 1 13C1 11.0378 1.49414 9.20443 2.48242 7.5L7.1875 15.75Z" fill="white"/>
</g>
<path d="M22 10C24.7614 10 27 7.76142 27 5C27 2.23858 24.7614 0 22 0C19.2386 0 17 2.23858 17 5C17 7.76142 19.2386 10 22 10Z" fill="#2C9D04"/>
<defs>
<clipPath id="clip0_1867_74933">
<rect width="22" height="22" fill="white" transform="translate(1 2)"/>
</clipPath>
</defs>
</svg>
