<svg width="44" height="44" viewBox="0 0 44 44" fill="none" xmlns="http://www.w3.org/2000/svg">
<path d="M0 22C0 9.84974 9.84974 0 22 0C34.1503 0 44 9.84974 44 22C44 34.1503 34.1503 44 22 44C9.84974 44 0 34.1503 0 22Z" fill="#2E2E2E"/>
<path d="M26.5836 11.3055H17.417C16.4044 11.3055 15.5836 12.2632 15.5836 13.4444V30.5555C15.5836 31.7368 16.4044 32.6944 17.417 32.6944H26.5836C27.5961 32.6944 28.417 31.7368 28.417 30.5555V13.4444C28.417 12.2632 27.5961 11.3055 26.5836 11.3055Z" stroke="white" stroke-width="1.925" stroke-linecap="round" stroke-linejoin="round"/>
<path d="M22.0004 28.4166H22.0111" stroke="white" stroke-width="2.75" stroke-linecap="round" stroke-linejoin="round"/>
</svg>
