<svg width="29" height="24" viewBox="0 0 29 24" fill="none" xmlns="http://www.w3.org/2000/svg">
<path d="M1 18.2137V5.55972H9.90763V8.32778H4.43934V10.5027H9.36328V13.2707H4.43934V18.2137H1Z" fill="white"/>
<path d="M23 10.305H19.5112C19.4864 10.0166 19.4204 9.75506 19.3132 9.52027C19.2101 9.28548 19.0658 9.08365 18.8802 8.91476C18.6988 8.74176 18.4781 8.60994 18.2183 8.51932C17.9585 8.42458 17.6637 8.37721 17.3338 8.37721C16.7564 8.37721 16.2677 8.51726 15.8677 8.79737C15.4718 9.07747 15.1708 9.47908 14.9646 10.0022C14.7625 10.5253 14.6615 11.1535 14.6615 11.8867C14.6615 12.6611 14.7646 13.3099 14.9708 13.833C15.1811 14.352 15.4842 14.7433 15.8801 15.007C16.276 15.2665 16.7523 15.3962 17.309 15.3962C17.6266 15.3962 17.9111 15.3571 18.1627 15.2788C18.4142 15.1964 18.6328 15.0791 18.8184 14.9266C19.0039 14.7742 19.1545 14.5909 19.2699 14.3767C19.3895 14.1584 19.4699 13.9133 19.5112 13.6415L23 13.6662C22.9588 14.2017 22.8082 14.7475 22.5484 15.3035C22.2886 15.8555 21.9195 16.3663 21.4412 16.8359C20.9669 17.3013 20.3793 17.6762 19.6782 17.9604C18.9771 18.2446 18.1627 18.3867 17.2348 18.3867C16.0718 18.3867 15.0285 18.1375 14.1047 17.6391C13.1851 17.1407 12.4572 16.4075 11.9211 15.4395C11.3891 14.4715 11.1232 13.2872 11.1232 11.8867C11.1232 10.478 11.3953 9.29166 11.9397 8.32778C12.484 7.35979 13.2181 6.62864 14.1419 6.13434C15.0656 5.63593 16.0966 5.38672 17.2348 5.38672C18.0348 5.38672 18.7709 5.49588 19.4431 5.71419C20.1153 5.9325 20.705 6.25174 21.2123 6.67189C21.7195 7.08792 22.1278 7.60076 22.4371 8.21039C22.7464 8.82002 22.934 9.51821 23 10.305Z" fill="white"/>
<path d="M24 10C26.7614 10 29 7.76142 29 5C29 2.23858 26.7614 0 24 0C21.2386 0 19 2.23858 19 5C19 7.76142 21.2386 10 24 10Z" fill="#2C9D04"/>
</svg>
