<svg width="22" height="22" viewBox="0 0 22 22" fill="none" xmlns="http://www.w3.org/2000/svg">
<rect x="1.5" y="1.5" width="19" height="19" rx="9.5" fill="#F97066"/>
<rect x="1.5" y="1.5" width="19" height="19" rx="9.5" stroke="#0F0F0F" stroke-width="3"/>
<mask id="mask0_3555_18144" style="mask-type:alpha" maskUnits="userSpaceOnUse" x="5" y="5" width="12" height="12">
<path d="M7.17861 14.6849C7.09815 14.6044 7.04505 14.5111 7.01931 14.4049C6.99356 14.2987 6.99356 14.1925 7.01931 14.0863C7.04505 13.9801 7.09654 13.8884 7.17378 13.8112L10.0508 10.9293L7.17378 8.05233C7.09654 7.97831 7.04505 7.8882 7.01931 7.782C6.99678 7.67259 6.99678 7.56478 7.01931 7.45858C7.04505 7.35238 7.09815 7.25906 7.17861 7.17861C7.25584 7.09815 7.34756 7.04505 7.45376 7.01931C7.56317 6.99356 7.67098 6.99356 7.77718 7.01931C7.88659 7.04505 7.97992 7.09654 8.05715 7.17378L10.9342 10.0508L13.8112 7.17378C13.8884 7.09654 13.9801 7.04505 14.0863 7.01931C14.1925 6.99356 14.2987 6.99356 14.4049 7.01931C14.5111 7.04505 14.6044 7.09976 14.6849 7.18343C14.7653 7.26067 14.8184 7.35238 14.8442 7.45858C14.8731 7.56478 14.8731 7.67098 14.8442 7.77718C14.8184 7.88338 14.7669 7.97509 14.6897 8.05233L11.8175 10.9293L14.6897 13.8112C14.7669 13.8884 14.8184 13.9801 14.8442 14.0863C14.8699 14.1925 14.8699 14.2987 14.8442 14.4049C14.8184 14.5111 14.7653 14.6044 14.6849 14.6849C14.6044 14.7653 14.5111 14.8184 14.4049 14.8442C14.2987 14.8699 14.1925 14.8699 14.0863 14.8442C13.9801 14.8184 13.8884 14.7669 13.8112 14.6897L10.9342 11.8127L8.05715 14.6897C7.97992 14.7669 7.8882 14.8184 7.782 14.8442C7.67581 14.8699 7.568 14.8699 7.45858 14.8442C7.35238 14.8184 7.25906 14.7653 7.17861 14.6849Z" fill="white"/>
</mask>
<g mask="url(#mask0_3555_18144)">
<rect x="5" y="5" width="12" height="12" fill="#010E09"/>
</g>
</svg>
