<svg width="12" height="12" viewBox="0 0 12 12" fill="none" xmlns="http://www.w3.org/2000/svg">
<rect width="12" height="12" rx="6" fill="#0084D3"/>
<g clip-path="url(#clip0_4914_3970)">
<path d="M5.9999 9.5999C5.04512 9.5999 4.12945 9.22062 3.45432 8.54549C2.77919 7.87036 2.3999 6.95468 2.3999 5.9999C2.3999 5.04512 2.77919 4.12945 3.45432 3.45432C4.12945 2.77919 5.04512 2.3999 5.9999 2.3999C6.95468 2.3999 7.87036 2.77919 8.54549 3.45432C9.22062 4.12945 9.5999 5.04512 9.5999 5.9999C9.5999 6.95468 9.22062 7.87036 8.54549 8.54549C7.87036 9.22062 6.95468 9.5999 5.9999 9.5999ZM8.7899 6.7199C8.91168 6.24763 8.91168 5.75218 8.7899 5.2799H7.4147C7.44806 5.75932 7.44806 6.24048 7.4147 6.7199H8.7899ZM8.4947 7.4399H7.3355C7.2752 7.87383 7.16029 8.2984 6.9935 8.7035C7.62592 8.47021 8.15693 8.02324 8.4947 7.4399ZM5.3087 6.7199H6.6911C6.73018 6.2407 6.73018 5.75911 6.6911 5.2799H5.3087C5.26963 5.75911 5.26963 6.2407 5.3087 6.7199ZM5.3987 7.4399C5.5463 8.3039 5.8055 8.8799 5.9999 8.8799C6.1943 8.8799 6.4535 8.3039 6.6011 7.4399H5.3987ZM3.2099 6.7199H4.5851C4.55174 6.24048 4.55174 5.75932 4.5851 5.2799H3.2099C3.08812 5.75218 3.08812 6.24763 3.2099 6.7199ZM3.5051 7.4399C3.84287 8.02324 4.37388 8.47021 5.0063 8.7035C4.8551 8.3579 4.7399 7.9259 4.6643 7.4399H3.5051ZM8.4947 4.5599C8.15693 3.97656 7.62592 3.5296 6.9935 3.2963C7.1447 3.6419 7.2599 4.0739 7.3355 4.5599H8.4947ZM5.3987 4.5599H6.6011C6.4535 3.6959 6.1943 3.1199 5.9999 3.1199C5.8055 3.1199 5.5463 3.6959 5.3987 4.5599ZM3.5051 4.5599H4.6643C4.7363 4.0739 4.8551 3.6419 5.0063 3.2963C4.37388 3.5296 3.84287 3.97656 3.5051 4.5599Z" fill="white"/>
</g>
<defs>
<clipPath id="clip0_4914_3970">
<rect width="7.2" height="7.2" fill="white" transform="translate(2.3999 2.3999)"/>
</clipPath>
</defs>
</svg>
