<svg width="12" height="12" viewBox="0 0 12 12" fill="none" xmlns="http://www.w3.org/2000/svg">
<path d="M0 6C0 2.68629 2.68629 0 6 0C9.31371 0 12 2.68629 12 6C12 9.31371 9.31371 12 6 12C2.68629 12 0 9.31371 0 6Z" fill="#19B26B"/>
<g clip-path="url(#clip0_4914_2463)">
<path d="M3.89988 7.2V6.3C3.89988 6.22043 3.93148 6.14413 3.98775 6.08787C4.04401 6.03161 4.12031 6 4.19988 6H7.79988C7.87944 6 7.95575 6.03161 8.01201 6.08787C8.06827 6.14413 8.09988 6.22043 8.09988 6.3V7.2M5.99988 6V4.8M7.49988 7.2H8.69988C8.86556 7.2 8.99988 7.33431 8.99988 7.5V8.7C8.99988 8.86568 8.86556 9 8.69988 9H7.49988C7.33419 9 7.19988 8.86568 7.19988 8.7V7.5C7.19988 7.33431 7.33419 7.2 7.49988 7.2ZM3.29988 7.2H4.49988C4.66556 7.2 4.79988 7.33431 4.79988 7.5V8.7C4.79988 8.86568 4.66556 9 4.49988 9H3.29988C3.13419 9 2.99988 8.86568 2.99988 8.7V7.5C2.99988 7.33431 3.13419 7.2 3.29988 7.2ZM5.39988 3H6.59988C6.76556 3 6.89988 3.13431 6.89988 3.3V4.5C6.89988 4.66569 6.76556 4.8 6.59988 4.8H5.39988C5.23419 4.8 5.09988 4.66569 5.09988 4.5V3.3C5.09988 3.13431 5.23419 3 5.39988 3Z" stroke="white" stroke-width="0.6" stroke-linecap="round" stroke-linejoin="round"/>
</g>
<defs>
<clipPath id="clip0_4914_2463">
<rect width="7.2" height="7.2" fill="white" transform="translate(2.3999 2.3999)"/>
</clipPath>
</defs>
</svg>
