<svg width="64" height="64" viewBox="0 0 64 64" fill="none" xmlns="http://www.w3.org/2000/svg">
<g clip-path="url(#clip0_3718_12076)">
<path d="M32 63.999C49.6731 63.999 64 49.6721 64 31.999C64 14.3259 49.6731 -0.000976562 32 -0.000976562C14.3269 -0.000976562 0 14.3259 0 31.999C0 49.6721 14.3269 63.999 32 63.999Z" fill="url(#paint0_linear_3718_12076)"/>
<path d="M30.0801 18.0471C24.3201 14.6551 20.2881 12.2871 20.2881 12.2871V51.7751C20.2881 51.7751 39.7441 40.2551 53.7601 31.9991C46.1441 27.5191 36.9281 22.0791 30.0801 18.0471Z" fill="white"/>
<path d="M30.9759 25.6621C28.3518 24.1261 26.4958 23.0381 26.4958 23.0381V40.9581C26.4958 40.9581 35.3918 35.7101 41.7278 31.9981C38.2718 29.9501 34.1119 27.4541 30.9759 25.6621Z" fill="#2C2C2C"/>
<path d="M30.4638 35.5811H26.4958V49.0211H30.4638V35.5811Z" fill="#2C2C2C"/>
</g>
<defs>
<linearGradient id="paint0_linear_3718_12076" x1="10" y1="3.59902" x2="36.5952" y2="69.2236" gradientUnits="userSpaceOnUse">
<stop stop-color="#393939"/>
<stop offset="1" stop-color="#2E2E2E"/>
</linearGradient>
<clipPath id="clip0_3718_12076">
<rect width="64" height="64" fill="white"/>
</clipPath>
</defs>
</svg>
