<svg width="12" height="12" viewBox="0 0 12 12" fill="none" xmlns="http://www.w3.org/2000/svg">
<rect width="12" height="12" rx="6" fill="#D92D21"/>
<g clip-path="url(#clip0_4914_1828)">
<path fill-rule="evenodd" clip-rule="evenodd" d="M3.91043 8.93149C4.51642 9.3634 5.24597 9.5999 5.9999 9.5999C6.95468 9.5999 7.87036 9.22062 8.54549 8.54549C9.22062 7.87036 9.5999 6.95468 9.5999 5.9999C9.5999 5.24597 9.3634 4.51642 8.93149 3.91043L8.41369 4.42824C8.4418 4.4713 8.46882 4.5152 8.4947 4.5599H8.28202L7.56202 5.2799H8.7899C8.91168 5.75218 8.91168 6.24763 8.7899 6.7199H7.4147C7.44485 6.28667 7.44775 5.85202 7.42342 5.41851L6.71956 6.12236C6.7168 6.32173 6.70732 6.52102 6.6911 6.7199H6.12202L5.40202 7.4399H6.6011C6.4535 8.3039 6.1943 8.8799 5.9999 8.8799C5.80571 8.8799 5.54687 8.30516 5.39919 7.44274L4.78838 8.05355C4.84951 8.29313 4.92236 8.51163 5.0063 8.7035C4.80213 8.62818 4.60853 8.5306 4.42858 8.41334L3.91043 8.93149ZM3.04565 8.05721C2.62814 7.45766 2.3999 6.74055 2.3999 5.9999C2.3999 5.04512 2.77919 4.12945 3.45432 3.45432C4.12945 2.77919 5.04512 2.3999 5.9999 2.3999C6.74055 2.3999 7.45766 2.62814 8.05721 3.04565L7.53783 3.56503C7.3674 3.45728 7.18511 3.36698 6.9935 3.2963C7.07233 3.47649 7.14138 3.68017 7.20013 3.90274L6.59247 4.5104C6.44356 3.67397 6.19057 3.1199 5.9999 3.1199C5.8055 3.1199 5.5463 3.6959 5.3987 4.5599H6.54296L5.82296 5.2799H5.3087C5.294 5.46024 5.28483 5.64092 5.28119 5.82168L4.5736 6.52927C4.55233 6.11302 4.55616 5.69581 4.5851 5.2799H3.2099C3.08812 5.75218 3.08812 6.24763 3.2099 6.7199H4.38296L3.66296 7.4399H3.5051C3.52433 7.47312 3.54419 7.50589 3.56466 7.53821L3.04565 8.05721ZM7.3355 7.4399H8.4947C8.15693 8.02324 7.62592 8.47021 6.9935 8.7035C7.16029 8.2984 7.2752 7.87383 7.3355 7.4399ZM4.6643 4.5599H3.5051C3.84287 3.97656 4.37388 3.5296 5.0063 3.2963C4.8551 3.6419 4.7363 4.0739 4.6643 4.5599Z" fill="white"/>
<rect x="2.91602" y="9.26477" width="8.9697" height="0.64704" rx="0.32352" transform="rotate(-45 2.91602 9.26477)" fill="white"/>
</g>
<defs>
<clipPath id="clip0_4914_1828">
<rect width="7.2" height="7.2" fill="white" transform="translate(2.3999 2.3999)"/>
</clipPath>
</defs>
</svg>
