<svg width="32" height="32" viewBox="0 0 32 32" fill="white" xmlns="http://www.w3.org/2000/svg">
<g id="&#226;&#157;&#135;&#239;&#184;&#143; Change the icon here">
<path id="Vector" d="M1.6665 7.91616C1.6665 6.52374 2.22428 5.18834 3.21712 4.20375C4.20997 3.21915 5.55655 2.66602 6.96065 2.66602H21.0784C22.4825 2.66602 23.8291 3.21915 24.8219 4.20375C25.8147 5.18834 26.3725 6.52374 26.3725 7.91616V11.4688C25.7863 11.402 25.1945 11.3996 24.6078 11.4618V9.66621H3.43122V21.9166C3.43122 22.8448 3.80307 23.7351 4.46496 24.3915C5.12686 25.0479 6.02459 25.4167 6.96065 25.4167H13.123C12.735 25.9354 12.468 26.5332 12.3413 27.1667H6.96065C5.55655 27.1667 4.20997 26.6136 3.21712 25.629C2.22428 24.6444 1.6665 23.309 1.6665 21.9166V7.91616ZM19.3913 14.1936L16.8501 11.6735C16.6847 11.5092 16.4602 11.4168 16.226 11.4166C15.9919 11.4165 15.7673 11.5086 15.6016 11.6726C15.4359 11.8367 15.3427 12.0593 15.3426 12.2915C15.3424 12.5237 15.4352 12.7465 15.6007 12.9108L18.3854 15.6706C18.6589 15.1509 18.9942 14.6556 19.3913 14.1936ZM12.4383 12.9108C12.604 12.7465 12.6971 12.5236 12.6971 12.2913C12.6971 12.0589 12.604 11.8361 12.4383 11.6718C12.2726 11.5075 12.0479 11.4152 11.8136 11.4152C11.5793 11.4152 11.3546 11.5075 11.1889 11.6718L6.77712 16.0469C6.69495 16.1282 6.62975 16.2247 6.58527 16.331C6.54079 16.4373 6.51789 16.5513 6.51789 16.6664C6.51789 16.7815 6.54079 16.8955 6.58527 17.0018C6.62975 17.1081 6.69495 17.2046 6.77712 17.2859L11.1889 21.661C11.2709 21.7424 11.3683 21.8069 11.4755 21.851C11.5827 21.895 11.6976 21.9177 11.8136 21.9177C11.9296 21.9177 12.0445 21.895 12.1517 21.851C12.2589 21.8069 12.3563 21.7424 12.4383 21.661C12.5204 21.5797 12.5854 21.4831 12.6298 21.3768C12.6742 21.2705 12.6971 21.1566 12.6971 21.0415C12.6971 20.9265 12.6742 20.8125 12.6298 20.7062C12.5854 20.6 12.5204 20.5034 12.4383 20.422L8.64948 16.6664L12.4383 12.9108ZM26.1819 13.2083C26.8278 13.2818 27.0131 14.0483 26.5525 14.5068L24.8319 16.2131C24.5849 16.4581 24.3889 16.749 24.2552 17.0691C24.1215 17.3892 24.0527 17.7322 24.0527 18.0787C24.0527 18.4252 24.1215 18.7682 24.2552 19.0883C24.3889 19.4084 24.5849 19.6993 24.8319 19.9442C25.079 20.1892 25.3722 20.3836 25.695 20.5162C26.0178 20.6487 26.3637 20.717 26.7131 20.717C27.0625 20.717 27.4084 20.6487 27.7312 20.5162C28.054 20.3836 28.3472 20.1892 28.5943 19.9442L30.3149 18.238C30.7755 17.7812 31.5502 17.9649 31.6243 18.6055C31.7472 19.6455 31.6006 20.6995 31.1983 21.6677C30.796 22.6359 30.1513 23.4863 29.3252 24.1386C28.4991 24.7908 27.5189 25.2233 26.4773 25.3952C25.4357 25.5671 24.3671 25.4727 23.3725 25.1209L18.5619 29.8933C18.063 30.3881 17.3863 30.666 16.6807 30.666C15.9751 30.666 15.2984 30.3881 14.7995 29.8933C14.3006 29.3985 14.0203 28.7274 14.0203 28.0277C14.0203 27.6813 14.0891 27.3382 14.2228 27.0181C14.3565 26.698 14.5525 26.4072 14.7995 26.1622L19.6101 21.3915C19.2553 20.4051 19.16 19.3452 19.3335 18.312C19.5069 17.2789 19.9432 16.3067 20.6011 15.4874C21.2591 14.6682 22.1169 14.0289 23.0934 13.6301C24.07 13.2313 25.133 13.0861 26.1819 13.2083Z" fill="white"/>
</g>
</svg>
