<svg width="22" height="24" viewBox="0 0 22 24" fill="none" xmlns="http://www.w3.org/2000/svg">
<g id="Group 2">
<path id="Path" d="M21.6875 14.844C21.4627 14.484 21.1432 14.124 20.729 13.896C20.3977 13.728 20.1847 13.452 19.9954 13.128C19.3919 12.096 19.7469 10.74 20.7527 10.128C21.936 9.444 22.3147 7.92 21.6284 6.732L20.8355 5.316C20.161 4.128 18.6819 3.708 17.5104 4.404C16.4691 4.98 15.1319 4.596 14.5284 3.576C14.3391 3.24 14.2326 2.88 14.2563 2.52C14.2918 2.052 14.1498 1.608 13.9368 1.248C13.499 0.504 12.7061 0 11.8305 0H10.162C9.29817 0.024 8.50535 0.504 8.06752 1.248C7.84269 1.608 7.71252 2.052 7.73619 2.52C7.75985 2.88 7.65336 3.24 7.46402 3.576C6.86053 4.596 5.52338 4.98 4.49389 4.404C3.31057 3.708 1.84326 4.128 1.15693 5.316L0.36411 6.732C-0.310382 7.92 0.0682806 9.444 1.23977 10.128C2.24559 10.74 2.60058 12.096 2.00892 13.128C1.80776 13.452 1.59476 13.728 1.26343 13.896C0.861104 14.124 0.506109 14.484 0.316778 14.844C-0.12105 15.588 -0.0973841 16.524 0.340444 17.304L1.15693 18.744C1.59476 19.512 2.41125 19.992 3.26324 19.992C3.66557 19.992 4.1389 19.872 4.51756 19.632C4.81339 19.428 5.16839 19.356 5.55888 19.356C6.73037 19.356 7.71252 20.352 7.73619 21.54C7.73619 22.92 8.82484 24 10.1975 24H11.8068C13.1676 24 14.2563 22.92 14.2563 21.54C14.2918 20.352 15.2739 19.356 16.4454 19.356C16.8241 19.356 17.1791 19.428 17.4867 19.632C17.8654 19.872 18.3269 19.992 18.7411 19.992C19.5812 19.992 20.3977 19.512 20.8355 18.744L21.6639 17.304C22.0898 16.5 22.1253 15.588 21.6875 14.844Z" fill="#868686"/>
<circle id="Ellipse 23" cx="11" cy="12" r="4" fill="white"/>
</g>
</svg>
