<svg width="25" height="24" viewBox="0 0 25 24" fill="none" xmlns="http://www.w3.org/2000/svg">
<mask id="mask0_3959_57358" style="mask-type:alpha" maskUnits="userSpaceOnUse" x="0" y="0" width="25" height="24">
<path d="M11.7258 5.42381V18.2487C11.7258 18.4582 11.6554 18.6366 11.5146 18.7839C11.3739 18.9312 11.202 19.0048 10.9991 19.0048C10.7896 19.0048 10.6063 18.9263 10.4492 18.7691L6.52119 14.851H3.43772C3.22823 14.851 3.05147 14.779 2.90745 14.6349C2.76342 14.4909 2.69141 14.3142 2.69141 14.1047V9.56784C2.69141 9.35834 2.76342 9.18158 2.90745 9.03756C3.05147 8.89353 3.22823 8.82152 3.43772 8.82152H6.52119L10.4492 4.89353C10.6128 4.72987 10.7962 4.64803 10.9991 4.64803C11.202 4.64803 11.3739 4.72496 11.5146 4.8788C11.6554 5.03265 11.7258 5.21432 11.7258 5.42381Z" fill="white"/>
<path fill-rule="evenodd" clip-rule="evenodd" d="M14.6275 4.34892V2C19.1999 3.03763 22.6092 7.11973 22.6092 12C22.6092 16.8803 19.1999 20.9624 14.6275 22V19.6511C17.9228 18.6705 20.3287 15.6146 20.3287 12C20.3287 8.38541 17.9228 5.32953 14.6275 4.34892ZM14.6275 7.4048C16.315 8.24858 17.4781 9.98176 17.4781 12C17.4781 14.0183 16.315 15.7514 14.6275 16.5838V7.4048Z" fill="white"/>
</mask>
<g mask="url(#mask0_3959_57358)">
<rect x="0.628906" width="24" height="24" fill="white"/>
</g>
</svg>
