<svg width="26" height="26" viewBox="0 0 26 26" fill="none" xmlns="http://www.w3.org/2000/svg">
<path d="M14.7562 4.3125C14.24 2.5625 11.76 2.5625 11.2437 4.3125L11.1187 4.7375C11.0416 4.99949 10.9068 5.2409 10.7242 5.44402C10.5417 5.64713 10.3159 5.80681 10.0636 5.91133C9.8113 6.01585 9.53878 6.06258 9.26606 6.04807C8.99333 6.03356 8.72731 5.9582 8.4875 5.8275L8.1 5.615C6.49625 4.7425 4.7425 6.49625 5.61625 8.09875L5.8275 8.4875C6.385 9.5125 5.85625 10.7887 4.7375 11.1187L4.3125 11.2437C2.5625 11.76 2.5625 14.24 4.3125 14.7562L4.7375 14.8813C4.99949 14.9584 5.2409 15.0932 5.44402 15.2758C5.64713 15.4583 5.80681 15.6841 5.91133 15.9364C6.01585 16.1887 6.06258 16.4612 6.04807 16.7339C6.03356 17.0067 5.9582 17.2727 5.8275 17.5125L5.615 17.9C4.7425 19.5037 6.49625 21.2575 8.09875 20.3837L8.4875 20.1725C8.72731 20.0418 8.99333 19.9664 9.26606 19.9519C9.53878 19.9374 9.8113 19.9841 10.0636 20.0887C10.3159 20.1932 10.5417 20.3529 10.7242 20.556C10.9068 20.7591 11.0416 21.0005 11.1187 21.2625L11.2437 21.6875C11.76 23.4375 14.24 23.4375 14.7562 21.6875L14.8813 21.2625C14.9584 21.0005 15.0932 20.7591 15.2758 20.556C15.4583 20.3529 15.6841 20.1932 15.9364 20.0887C16.1887 19.9841 16.4612 19.9374 16.7339 19.9519C17.0067 19.9664 17.2727 20.0418 17.5125 20.1725L17.9 20.385C19.5037 21.2575 21.2575 19.5037 20.3837 17.9012L20.1725 17.5125C20.0418 17.2727 19.9664 17.0067 19.9519 16.7339C19.9374 16.4612 19.9841 16.1887 20.0887 15.9364C20.1932 15.6841 20.3529 15.4583 20.556 15.2758C20.7591 15.0932 21.0005 14.9584 21.2625 14.8813L21.6875 14.7562C23.4375 14.24 23.4375 11.76 21.6875 11.2437L21.2625 11.1187C21.0005 11.0416 20.7591 10.9068 20.556 10.7242C20.3529 10.5417 20.1932 10.3159 20.0887 10.0636C19.9841 9.8113 19.9374 9.53878 19.9519 9.26606C19.9664 8.99333 20.0418 8.72731 20.1725 8.4875L20.385 8.1C21.2575 6.49625 19.5037 4.7425 17.9012 5.61625L17.5125 5.8275C17.2727 5.9582 17.0067 6.03356 16.7339 6.04807C16.4612 6.06258 16.1887 6.01585 15.9364 5.91133C15.6841 5.80681 15.4583 5.64713 15.2758 5.44402C15.0932 5.2409 14.9584 4.99949 14.8813 4.7375L14.7562 4.3125ZM13 16.6625C12.0286 16.6625 11.0971 16.2766 10.4102 15.5898C9.72337 14.9029 9.3375 13.9714 9.3375 13C9.3375 12.0286 9.72337 11.0971 10.4102 10.4102C11.0971 9.72337 12.0286 9.3375 13 9.3375C13.971 9.3375 14.9023 9.72324 15.5889 10.4099C16.2755 11.0965 16.6613 12.0277 16.6613 12.9987C16.6613 13.9698 16.2755 14.901 15.5889 15.5876C14.9023 16.2743 13.971 16.66 13 16.66V16.6625Z" fill="white"/>
</svg>
