<svg width="34" height="34" viewBox="0 0 34 34" fill="none" xmlns="http://www.w3.org/2000/svg">
<g id="Frame">
<path id="Vector" d="M10.7144 12.375C10.1521 12.375 9.60114 12.5325 9.12379 12.8295C8.64644 13.1266 8.26182 13.5514 8.01351 14.0559L4.3663 21.4629C4.84553 21.3072 5.34638 21.2283 5.85026 21.2292H28.1628C28.6806 21.2292 29.1792 21.3113 29.6467 21.4636L25.9995 14.0559C25.7512 13.5514 25.3666 13.1266 24.8892 12.8295C24.4119 12.5325 23.8609 12.375 23.2986 12.375H10.7144ZM2.83984 26.0104V30.6146C2.83984 31.413 3.15701 32.1787 3.72157 32.7433C4.28614 33.3078 5.05185 33.625 5.85026 33.625H28.1628C28.9612 33.625 29.7269 33.3078 30.2914 32.7433C30.856 32.1787 31.1732 31.413 31.1732 30.6146V26.0104C31.1732 25.212 30.856 24.4463 30.2914 23.8817C29.7269 23.3172 28.9612 23 28.1628 23H5.85026C5.05185 23 4.28614 23.3172 3.72157 23.8817C3.15701 24.4463 2.83984 25.212 2.83984 26.0104ZM27.2773 28.3125C27.2773 28.6882 27.1281 29.0486 26.8624 29.3142C26.5967 29.5799 26.2364 29.7292 25.8607 29.7292C25.485 29.7292 25.1246 29.5799 24.8589 29.3142C24.5933 29.0486 24.444 28.6882 24.444 28.3125C24.444 27.9368 24.5933 27.5764 24.8589 27.3108C25.1246 27.0451 25.485 26.8958 25.8607 26.8958C26.2364 26.8958 26.5967 27.0451 26.8624 27.3108C27.1281 27.5764 27.2773 27.9368 27.2773 28.3125Z" fill="white"/>
</g>
</svg>
