<svg width="26" height="26" viewBox="0 0 26 26" fill="none" xmlns="http://www.w3.org/2000/svg">
<g clip-path="url(#clip0_212_5079)">
<path d="M13.0051 23C7.52908 23 3 18.4686 3 13C3 7.53141 7.52908 3 12.9949 3C18.4606 3 23 7.53141 23 13C23 18.4686 18.4709 23 13.0051 23ZM13.0051 21.1771C17.5342 21.1771 21.1781 17.5314 21.1781 13C21.1781 8.46859 17.5239 4.82286 12.9949 4.82286C8.46577 4.82286 4.84251 8.46859 4.84251 13C4.84251 17.5314 8.46577 21.1771 13.0051 21.1771ZM12.9949 18.5201C12.7375 18.5201 12.5419 18.3347 12.5419 18.0669V17.3872C11.1935 17.2533 10.1333 16.5324 9.85538 15.4614C9.8245 15.3481 9.80391 15.2451 9.80391 15.1318C9.80391 14.7714 10.051 14.5242 10.4215 14.5242C10.7303 14.5242 10.9465 14.689 11.07 15.0185C11.2244 15.6365 11.7082 16.0896 12.5419 16.2132V13.484L12.4287 13.4531C10.8024 13.0824 9.96861 12.3409 9.96861 11.0844C9.96861 9.74562 11.0391 8.81874 12.5419 8.65396V7.99485C12.5419 7.71679 12.7272 7.54171 12.9949 7.54171C13.2522 7.54171 13.4478 7.72709 13.4478 7.99485V8.65396C14.7241 8.79815 15.7123 9.51905 15.9696 10.5489C15.9902 10.6622 16.0211 10.7549 16.0211 10.8682C16.0211 11.2286 15.7638 11.4758 15.4035 11.4758C15.0741 11.4758 14.8785 11.2904 14.755 10.9815C14.5594 10.3635 14.1065 9.97219 13.4478 9.84861V12.4233L13.6227 12.4542C15.3109 12.7734 16.1652 13.5561 16.1652 14.8847C16.1652 16.3574 14.9918 17.2533 13.4478 17.3975V18.0669C13.4478 18.3347 13.2522 18.5201 12.9949 18.5201ZM12.5419 12.1967V9.84861C11.7597 9.98249 11.2759 10.4459 11.2759 11.0124C11.2759 11.5685 11.6464 11.9289 12.4699 12.1761L12.5419 12.1967ZM13.4478 13.7106V16.2132C14.3948 16.1102 14.858 15.6262 14.858 14.967C14.858 14.38 14.5389 14.0093 13.6433 13.7621L13.4478 13.7106Z" fill="#019BE7"/>
</g>
<defs>
<clipPath id="clip0_212_5079">
<rect width="20" height="20" fill="white" transform="translate(3 3)"/>
</clipPath>
</defs>
</svg>
