<svg width="16" height="16" viewBox="0 0 16 16" fill="none" xmlns="http://www.w3.org/2000/svg">
<g clip-path="url(#clip0_2491_156375)">
<path fill-rule="evenodd" clip-rule="evenodd" d="M-0.0356688 13.5309C-0.291425 13.5309 -0.536707 13.4314 -0.717554 13.2544C-0.898401 13.0774 -1 12.8374 -1 12.5871C-1 12.3368 -0.898401 12.0967 -0.717554 11.9197C-0.536707 11.7427 -0.291425 11.6433 -0.0356688 11.6433H2.59246C3.69822 11.6433 4.70627 11.0267 5.19101 10.0552L6.28392 7.86817L5.19101 5.68112C4.95318 5.20489 4.58354 4.80357 4.12415 4.52282C3.66475 4.24206 3.13406 4.09316 2.59246 4.09305H-0.0356688C-0.291425 4.09305 -0.536707 3.99361 -0.717554 3.81662C-0.898401 3.63963 -1 3.39957 -1 3.14927C-1 2.89896 -0.898401 2.65891 -0.717554 2.48191C-0.536707 2.30492 -0.291425 2.20549 -0.0356688 2.20549H2.59246C3.49523 2.20548 4.37987 2.45351 5.14569 2.92137C5.9115 3.38922 6.52773 4.05809 6.92423 4.85185L7.35754 5.72013L7.79084 4.85185C8.18734 4.05809 8.80357 3.38922 9.56939 2.92137C10.3352 2.45351 11.2198 2.20548 12.1226 2.20549H13.708L12.4608 0.984863C12.2852 0.806783 12.1881 0.568337 12.1904 0.32088C12.1927 0.073424 12.2943 -0.163242 12.4732 -0.338145C12.652 -0.513048 12.894 -0.612193 13.1468 -0.614226C13.3996 -0.616259 13.6432 -0.521017 13.825 -0.349014L16.718 2.48233C16.8986 2.65929 17 2.89916 17 3.14927C17 3.39937 16.8986 3.63925 16.718 3.81621L13.825 6.64755C13.7367 6.74027 13.6302 6.81465 13.5119 6.86623C13.3937 6.91781 13.266 6.94555 13.1365 6.94779C13.007 6.95002 12.8784 6.92671 12.7583 6.87924C12.6382 6.83178 12.5292 6.76113 12.4376 6.67151C12.346 6.58189 12.2738 6.47513 12.2253 6.35762C12.1768 6.2401 12.153 6.11422 12.1553 5.9875C12.1576 5.86078 12.1859 5.73581 12.2386 5.62004C12.2913 5.50427 12.3673 5.40007 12.4621 5.31367L13.7093 4.09305H12.1226C11.0169 4.09305 10.0088 4.70965 9.52407 5.68112L6.92423 10.8845C6.52773 11.6783 5.9115 12.3471 5.14569 12.815C4.37987 13.2828 3.49523 13.5309 2.59246 13.5309H-0.0356688ZM8.50059 11.5904L9.39549 9.79852L9.52407 10.0552C9.76189 10.5315 10.1315 10.9328 10.5909 11.2135C11.0503 11.4943 11.581 11.6432 12.1226 11.6433H13.708L12.4608 10.4227C12.3687 10.3356 12.2953 10.2314 12.2448 10.1162C12.1943 10.0011 12.1678 9.8772 12.1667 9.75189C12.1657 9.62657 12.1902 9.50231 12.2387 9.38634C12.2872 9.27038 12.3589 9.16504 12.4495 9.07647C12.5401 8.98789 12.6478 8.91786 12.7663 8.87047C12.8848 8.82307 13.0118 8.79925 13.1399 8.80039C13.2679 8.80154 13.3944 8.82763 13.5121 8.87715C13.6297 8.92667 13.7361 8.99861 13.825 9.08879L16.718 11.9201C16.8986 12.0971 17 12.337 17 12.5871C17 12.8372 16.8986 13.0771 16.718 13.254L13.825 16.0854C13.7367 16.1781 13.6302 16.2525 13.5119 16.304C13.3937 16.3556 13.266 16.3834 13.1365 16.3856C13.007 16.3878 12.8784 16.3645 12.7583 16.3171C12.6382 16.2696 12.5292 16.1989 12.4376 16.1093C12.346 16.0197 12.2738 15.9129 12.2253 15.7954C12.1768 15.6779 12.153 15.552 12.1553 15.4253C12.1576 15.2986 12.1859 15.1736 12.2386 15.0578C12.2913 14.9421 12.3673 14.8379 12.4621 14.7515L13.7093 13.5309H12.1226C11.4076 13.5309 10.7015 13.3754 10.0555 13.0755C9.40949 12.7756 8.83971 12.3388 8.38744 11.7968C8.4273 11.7301 8.46459 11.6609 8.50059 11.5904Z" fill="white"/>
</g>
<defs>
<clipPath id="clip0_2491_156375">
<rect width="16" height="16" fill="white"/>
</clipPath>
</defs>
</svg>
