<svg width="16" height="16" viewBox="0 0 16 16" fill="none" xmlns="http://www.w3.org/2000/svg">
<g id="Icons 24">
<path id="Vector" d="M1.66797 8.25716C1.66797 9.08887 1.83179 9.91243 2.15007 10.6808C2.46834 11.4492 2.93485 12.1474 3.52296 12.7355C4.11106 13.3236 4.80925 13.7901 5.57764 14.1084C6.34604 14.4267 7.1696 14.5905 8.0013 14.5905C8.83301 14.5905 9.65657 14.4267 10.425 14.1084C11.1934 13.7901 11.8915 13.3236 12.4796 12.7355C13.0677 12.1474 13.5343 11.4492 13.8525 10.6808C14.1708 9.91243 14.3346 9.08887 14.3346 8.25716C14.3346 7.42546 14.1708 6.6019 13.8525 5.8335C13.5343 5.0651 13.0677 4.36692 12.4796 3.77882C11.8915 3.19071 11.1934 2.7242 10.425 2.40592C9.65657 2.08764 8.83301 1.92383 8.0013 1.92383C7.1696 1.92383 6.34604 2.08764 5.57764 2.40592C4.80925 2.7242 4.11106 3.19071 3.52296 3.77882C2.93485 4.36692 2.46834 5.0651 2.15007 5.8335C1.83179 6.6019 1.66797 7.42546 1.66797 8.25716Z" fill="#2C9D04" stroke="#2C9D04" stroke-width="1.14" stroke-linecap="round" stroke-linejoin="round"/>
<path id="&#244;&#128;&#132;&#169;" d="M7.99923 4.25781C8.3606 4.25781 8.60151 4.50703 8.60151 4.88087V9.49146L8.56413 10.3928L9.39902 9.42915L10.3336 8.49873C10.4457 8.38658 10.587 8.31181 10.7656 8.31181C11.0896 8.31181 11.3346 8.55272 11.3346 8.89333C11.3346 9.05117 11.2723 9.19655 11.1477 9.32531L8.44367 12.0294C8.33152 12.1457 8.16537 12.2121 7.99923 12.2121C7.83723 12.2121 7.66693 12.1457 7.55478 12.0294L4.85488 9.32531C4.73027 9.19655 4.66797 9.05117 4.66797 8.89333C4.66797 8.55272 4.91304 8.31181 5.23702 8.31181C5.41979 8.31181 5.56101 8.38658 5.66901 8.49873L6.60359 9.42915L7.43848 10.3928L7.39694 9.49146V4.88087C7.39694 4.50703 7.64201 4.25781 7.99923 4.25781Z" fill="white"/>
</g>
</svg>
