<svg width="24" height="24" viewBox="0 0 24 24" fill="none" xmlns="http://www.w3.org/2000/svg">
<path d="M19.998 7.99951H14.386L15.509 4.63251C15.711 4.02451 15.609 3.35051 15.234 2.83051C14.859 2.31051 14.251 1.99951 13.61 1.99951H11.998C11.701 1.99951 11.42 2.13151 11.229 2.35951L6.52905 7.99951H3.99805C2.89505 7.99951 1.99805 8.89651 1.99805 9.99951V18.9995C1.99805 20.1025 2.89505 20.9995 3.99805 20.9995H17.305C17.7119 20.9982 18.1088 20.8734 18.4433 20.6416C18.7777 20.4098 19.0339 20.082 19.178 19.7015L21.935 12.3505C21.9769 12.2382 21.9982 12.1193 21.998 11.9995V9.99951C21.998 8.89651 21.101 7.99951 19.998 7.99951ZM3.99805 9.99951H5.99805V18.9995H3.99805V9.99951ZM19.998 11.8185L17.305 18.9995H7.99805V9.36151L12.466 3.99951H13.612L12.05 8.68251C11.9993 8.83283 11.9852 8.99306 12.0088 9.14994C12.0324 9.30681 12.093 9.4558 12.1857 9.58455C12.2784 9.7133 12.4004 9.81811 12.5417 9.89027C12.683 9.96244 12.8394 9.99989 12.998 9.99951H19.998V11.8185Z" fill="white"/>
</svg>
