<svg width="32" height="32" viewBox="0 0 32 32" fill="none" xmlns="http://www.w3.org/2000/svg">
<path d="M27.9974 4C28.351 4 28.6902 4.14048 28.9402 4.39052C29.1903 4.64057 29.3307 4.97971 29.3307 5.33333V14.6667H26.6641V6.66667H5.33073V25.3333H13.3307V28H3.9974C3.64377 28 3.30464 27.8595 3.05459 27.6095C2.80454 27.3594 2.66406 27.0203 2.66406 26.6667V5.33333C2.66406 4.97971 2.80454 4.64057 3.05459 4.39052C3.30464 4.14048 3.64377 4 3.9974 4H27.9974ZM27.9974 17.3333C28.351 17.3333 28.6902 17.4738 28.9402 17.7239C29.1903 17.9739 29.3307 18.313 29.3307 18.6667V26.6667C29.3307 27.0203 29.1903 27.3594 28.9402 27.6095C28.6902 27.8595 28.351 28 27.9974 28H17.3307C16.9771 28 16.638 27.8595 16.3879 27.6095C16.1379 27.3594 15.9974 27.0203 15.9974 26.6667V18.6667C15.9974 18.313 16.1379 17.9739 16.3879 17.7239C16.638 17.4738 16.9771 17.3333 17.3307 17.3333H27.9974ZM8.94006 8.39067L11.9401 11.3907L14.6641 8.66667V16H7.33073L10.0547 13.276L7.05473 10.276L8.94006 8.39067Z" fill="white"/>
</svg>
