<svg width="24" height="24" viewBox="0 0 24 24" fill="none" xmlns="http://www.w3.org/2000/svg">
<path d="M5.4331 22C4.73474 22 4.18897 21.8063 3.79577 21.419C3.40845 21.0376 3.21479 20.5123 3.21479 19.8433V13.0123C3.49061 13.1473 3.78404 13.25 4.09507 13.3204C4.4061 13.3908 4.72887 13.4261 5.06338 13.4261C5.50352 13.4261 5.92019 13.3615 6.31338 13.2324C6.71244 13.0974 7.07629 12.9096 7.40493 12.669C7.7277 12.9096 8.08861 13.0974 8.48768 13.2324C8.88674 13.3615 9.30634 13.4261 9.74648 13.4261C10.1866 13.4261 10.6033 13.3615 10.9965 13.2324C11.3955 13.0974 11.7565 12.9126 12.0792 12.6778C12.4079 12.9126 12.7688 13.0974 13.162 13.2324C13.561 13.3615 13.9777 13.4261 14.412 13.4261C14.8521 13.4261 15.2717 13.3615 15.6708 13.2324C16.0698 13.0974 16.4337 12.9096 16.7623 12.669C17.0792 12.9096 17.4372 13.0974 17.8363 13.2324C18.2353 13.3615 18.6549 13.4261 19.0951 13.4261C19.4296 13.4261 19.7523 13.3879 20.0634 13.3116C20.3744 13.2295 20.6678 13.118 20.9437 12.9771V19.8433C20.9437 20.5123 20.7471 21.0376 20.3539 21.419C19.9665 21.8063 19.4237 22 18.7254 22H5.4331ZM6.51584 20.3011H11.3838V15.9525C11.3838 15.7412 11.3222 15.5739 11.1989 15.4507C11.0757 15.3275 10.9085 15.2658 10.6972 15.2658H7.21127C7 15.2658 6.82981 15.3275 6.7007 15.4507C6.57746 15.5739 6.51584 15.7412 6.51584 15.9525V20.3011ZM13.9894 18.5405H17.537C17.7424 18.5405 17.9067 18.4789 18.0299 18.3556C18.159 18.2324 18.2236 18.0651 18.2236 17.8539V15.4067C18.2236 15.2013 18.159 15.037 18.0299 14.9137C17.9067 14.7846 17.7424 14.7201 17.537 14.7201H13.9894C13.7782 14.7201 13.608 14.7846 13.4789 14.9137C13.3556 15.037 13.294 15.2013 13.294 15.4067V17.8539C13.294 18.0651 13.3556 18.2324 13.4789 18.3556C13.608 18.4789 13.7782 18.5405 13.9894 18.5405ZM4.27993 4.1919V4.04225C4.27993 3.41432 4.46772 2.91843 4.84331 2.55458C5.2189 2.18486 5.72653 2 6.3662 2H17.7306C18.3644 2 18.8691 2.18486 19.2447 2.55458C19.6203 2.91843 19.8081 3.41432 19.8081 4.04225V4.1919H4.27993ZM2.16725 8.5581C2.18486 8.52289 2.20246 8.48768 2.22007 8.45246C2.24354 8.41725 2.26408 8.37911 2.28169 8.33803L4.03345 5.22183H20.0546L21.7975 8.33803C21.821 8.37911 21.8415 8.41725 21.8592 8.45246C21.8826 8.48768 21.9032 8.52289 21.9208 8.5581H2.16725ZM5.03697 12.3961C4.47359 12.3961 3.96303 12.2758 3.50528 12.0352C3.04754 11.7946 2.68075 11.4806 2.40493 11.0933C2.13498 10.706 2 10.2864 2 9.83451V9.58803H22.088V9.71127C22.088 10.1631 21.9531 10.5945 21.6831 11.0053C21.4131 11.4102 21.0493 11.7447 20.5915 12.0088C20.1338 12.267 19.6232 12.3961 19.0599 12.3961C18.5786 12.3961 18.1356 12.2964 17.7306 12.0968C17.3316 11.8914 16.9971 11.6185 16.7271 11.2782C16.4572 11.6185 16.1197 11.8914 15.7148 12.0968C15.3099 12.2964 14.8668 12.3961 14.3856 12.3961C13.9043 12.3961 13.4613 12.2964 13.0563 12.0968C12.6514 11.8914 12.3169 11.6156 12.0528 11.2694C11.777 11.6156 11.4366 11.8914 11.0317 12.0968C10.6326 12.2964 10.1925 12.3961 9.71127 12.3961C9.23005 12.3961 8.78697 12.2964 8.38204 12.0968C7.97711 11.8914 7.64261 11.6156 7.37852 11.2694C7.1027 11.6156 6.76232 11.8914 6.35739 12.0968C5.95246 12.2964 5.51232 12.3961 5.03697 12.3961Z" fill="#9AE151"/>
</svg>
