<svg width="28" height="28" viewBox="0 0 32 32" fill="none" xmlns="http://www.w3.org/2000/svg">
<path fill-rule="evenodd" clip-rule="evenodd" d="M4.54534 4.5459H27.4534C28.8533 4.5459 29.9987 5.6913 29.9987 7.09123V24.9086C29.9987 26.3085 28.8533 27.4539 27.4534 27.4539H18.5447V24.9086H27.4534V7.09123H4.54534V10.9092H2V7.09123C2 5.6913 3.1454 4.5459 4.54534 4.5459ZM2 27.4539V23.6359C4.11263 23.6359 5.818 25.3413 5.818 27.4539H2ZM2 18.5451V21.0904C5.51256 21.0904 8.36334 23.9412 8.36334 27.4538H10.9087C10.9087 22.5285 6.92523 18.5451 2 18.5451ZM2 16.0004V13.4551C9.7251 13.4551 15.9994 19.7166 15.9994 27.4544H13.454C13.454 21.1293 8.32516 16.0004 2 16.0004Z" fill="white"/>
</svg>
