<svg width="24" height="24" viewBox="0 0 24 24" fill="none" xmlns="http://www.w3.org/2000/svg">
<path d="M12 2C10.6923 2 9.69231 3 9.69231 4.30769V8.92308C9.69231 10.2308 10.6923 11.2308 12 11.2308H16.6154L19.6923 14.3077V11.2308C21 11.2308 22 10.2308 22 8.92308V4.30769C22 3 21 2 19.6923 2H12ZM15.2215 4.30769H16.5431L17.8415 8.92308H16.6877L16.3746 7.76923H15.2208L14.9331 8.92308H13.9231L15.2215 4.30769ZM15.8462 5.07692C15.7692 5.38462 15.6831 5.76 15.6054 5.99077L15.39 7H16.3031L16.0862 5.99C15.9331 5.76 15.8462 5.38462 15.8462 5.07692ZM4.30769 9.69231C3 9.69231 2 10.6923 2 12V16.6154C2 17.9231 3 18.9231 4.30769 18.9231V22L7.38462 18.9231H12C13.3077 18.9231 14.3077 17.9231 14.3077 16.6154V12H12C10.5385 12 9.38 11 8.99538 9.69231H4.30769ZM7.84154 11.9277C9.14923 11.9277 9.76462 13.0046 9.76462 14.2354C9.76462 15.3123 9.39462 15.9954 8.77923 16.3031C9.08692 16.4569 9.45154 16.5385 9.83615 16.6154L9.54846 17.3846C9.01 17.2308 8.45154 16.9908 7.91308 16.7592C7.83615 16.6823 7.70154 16.6877 7.62462 16.6877C6.70154 16.6108 5.84615 15.8462 5.84615 14.3077C5.84615 13 6.61077 11.9277 7.84154 11.9277ZM7.84154 12.7692C7.22615 12.7692 6.92769 13.4615 6.92769 14.3077C6.92769 15.2308 7.22615 15.8462 7.84154 15.8462C8.45692 15.8462 8.77846 15.1538 8.77846 14.3077C8.77846 13.4615 8.45692 12.7692 7.84154 12.7692Z" fill="white"/>
</svg>
