<svg width="24" height="24" viewBox="0 0 24 24" fill="none" xmlns="http://www.w3.org/2000/svg">
<path d="M12 18.9998C12.946 18.9998 13.81 18.8968 14.598 18.7188L12.841 16.9618C12.568 16.9828 12.291 16.9998 12 16.9998C6.64898 16.9998 4.57598 13.1538 4.07398 11.9998C4.45093 11.1587 4.96003 10.3832 5.58198 9.70285L4.18398 8.30485C2.64598 9.97185 2.06298 11.6508 2.05198 11.6838C1.983 11.8892 1.983 12.1115 2.05198 12.3168C2.07298 12.3828 4.36698 18.9998 12 18.9998ZM12 4.99985C10.163 4.99985 8.65398 5.39585 7.39598 5.98085L3.70698 2.29285L2.29298 3.70685L20.293 21.7068L21.707 20.2928L18.388 16.9738C21.002 15.0228 21.935 12.3588 21.949 12.3168C22.018 12.1115 22.018 11.8892 21.949 11.6838C21.927 11.6168 19.633 4.99985 12 4.99985ZM16.972 15.5578L14.692 13.2778C14.882 12.8878 15 12.4588 15 11.9998C15 10.3588 13.641 8.99985 12 8.99985C11.541 8.99985 11.112 9.11785 10.723 9.30885L8.91498 7.50085C9.9075 7.16026 10.9507 6.99085 12 6.99985C17.351 6.99985 19.424 10.8458 19.926 11.9998C19.624 12.6918 18.76 14.3418 16.972 15.5578Z" fill="white"/>
</svg>
