<svg width="32" height="32" viewBox="0 0 32 32" fill="none" xmlns="http://www.w3.org/2000/svg">
<path d="M18.2831 4.70625C17.612 2.43125 14.388 2.43125 13.7169 4.70625L13.5544 5.25875C13.4541 5.59934 13.2789 5.91317 13.0415 6.17722C12.8042 6.44127 12.5107 6.64885 12.1827 6.78473C11.8547 6.92061 11.5004 6.98135 11.1459 6.96249C10.7913 6.94363 10.4455 6.84566 10.1337 6.67575L9.63 6.3995C7.54512 5.26525 5.26525 7.54513 6.40112 9.62837L6.67575 10.1337C7.4005 11.4662 6.71312 13.1254 5.25875 13.5544L4.70625 13.7169C2.43125 14.388 2.43125 17.612 4.70625 18.2831L5.25875 18.4456C5.59934 18.5459 5.91317 18.7211 6.17722 18.9585C6.44127 19.1958 6.64885 19.4893 6.78473 19.8173C6.92061 20.1453 6.98135 20.4996 6.96249 20.8541C6.94363 21.2087 6.84566 21.5545 6.67575 21.8662L6.3995 22.37C5.26525 24.4549 7.54513 26.7347 9.62837 25.5989L10.1337 25.3242C10.4455 25.1543 10.7913 25.0564 11.1459 25.0375C11.5004 25.0187 11.8547 25.0794 12.1827 25.2153C12.5107 25.3512 12.8042 25.5587 13.0415 25.8228C13.2789 26.0868 13.4541 26.4007 13.5544 26.7412L13.7169 27.2937C14.388 29.5687 17.612 29.5687 18.2831 27.2937L18.4456 26.7412C18.5459 26.4007 18.7211 26.0868 18.9585 25.8228C19.1958 25.5587 19.4893 25.3512 19.8173 25.2153C20.1453 25.0794 20.4996 25.0187 20.8541 25.0375C21.2087 25.0564 21.5545 25.1543 21.8662 25.3242L22.37 25.6005C24.4549 26.7348 26.7347 24.4549 25.5989 22.3716L25.3242 21.8662C25.1543 21.5545 25.0564 21.2087 25.0375 20.8541C25.0187 20.4996 25.0794 20.1453 25.2153 19.8173C25.3512 19.4893 25.5587 19.1958 25.8228 18.9585C26.0868 18.7211 26.4007 18.5459 26.7412 18.4456L27.2937 18.2831C29.5687 17.612 29.5687 14.388 27.2937 13.7169L26.7412 13.5544C26.4007 13.4541 26.0868 13.2789 25.8228 13.0415C25.5587 12.8042 25.3512 12.5107 25.2153 12.1827C25.0794 11.8547 25.0187 11.5004 25.0375 11.1459C25.0564 10.7913 25.1543 10.4455 25.3242 10.1337L25.6005 9.63C26.7348 7.54512 24.4549 5.26525 22.3716 6.40112L21.8662 6.67575C21.5545 6.84566 21.2087 6.94363 20.8541 6.96249C20.4996 6.98135 20.1453 6.92061 19.8173 6.78473C19.4893 6.64885 19.1958 6.44127 18.9585 6.17722C18.7211 5.91317 18.5459 5.59934 18.4456 5.25875L18.2831 4.70625ZM16 20.7613C14.7372 20.7613 13.5262 20.2596 12.6333 19.3667C11.7404 18.4738 11.2388 17.2628 11.2388 16C11.2388 14.7372 11.7404 13.5262 12.6333 12.6333C13.5262 11.7404 14.7372 11.2388 16 11.2388C17.2623 11.2388 18.473 11.7402 19.3656 12.6328C20.2582 13.5254 20.7596 14.736 20.7596 15.9984C20.7596 17.2607 20.2582 18.4713 19.3656 19.3639C18.473 20.2565 17.2623 20.758 16 20.758V20.7613Z" fill="white"/>
</svg>
