<svg width="89" height="87" viewBox="0 0 89 87" fill="none" xmlns="http://www.w3.org/2000/svg">
<g id="Frame 19991">
<path id="Vector" d="M44.5 8.99997C37.6766 8.99997 31.0063 11.0234 25.3328 14.8143C19.6593 18.6052 15.2374 23.9933 12.6262 30.2974C10.0149 36.6014 9.33173 43.5382 10.6629 50.2306C11.9941 56.9229 15.2799 63.0702 20.1048 67.8952C24.9297 72.7201 31.0771 76.0059 37.7694 77.3371C44.4617 78.6683 51.3985 77.985 57.7026 75.3738C64.0066 72.7626 69.3948 68.3406 73.1857 62.6671C76.9766 56.9936 79 50.3234 79 43.5C79 34.35 75.3652 25.5748 68.8952 19.1048C62.4252 12.6348 53.65 8.99997 44.5 8.99997ZM64.027 58.128L59.1625 62.9925L44.5 48.3645L29.872 63.027L24.973 58.128L39.6355 43.5L24.973 28.872L29.872 23.973L44.5 38.6355L59.128 24.0075L63.9925 28.872L49.3645 43.5L64.027 58.128Z" fill="#F97066"/>
</g>
</svg>
