<svg width="18" height="18" viewBox="0 0 18 18" fill="none" xmlns="http://www.w3.org/2000/svg">
<path fill-rule="evenodd" clip-rule="evenodd" d="M0.964331 14.5311C0.708575 14.5311 0.463293 14.4317 0.282446 14.2547C0.101599 14.0777 0 13.8376 0 13.5873C0 13.337 0.101599 13.097 0.282446 12.92C0.463293 12.743 0.708575 12.6435 0.964331 12.6435H3.59246C4.69822 12.6435 5.70627 12.0269 6.19101 11.0555L7.28392 8.86842L6.19101 6.68136C5.95318 6.20514 5.58354 5.80381 5.12415 5.52306C4.66475 5.24231 4.13406 5.0934 3.59246 5.09329H0.964331C0.708575 5.09329 0.463293 4.99386 0.282446 4.81687C0.101599 4.63987 0 4.39982 0 4.14951C0 3.8992 0.101599 3.65915 0.282446 3.48216C0.463293 3.30516 0.708575 3.20573 0.964331 3.20573H3.59246C4.49523 3.20572 5.37987 3.45376 6.14569 3.92161C6.9115 4.38946 7.52773 5.05833 7.92423 5.85209L8.35754 6.72037L8.79084 5.85209C9.18734 5.05833 9.80357 4.38946 10.5694 3.92161C11.3352 3.45376 12.2198 3.20572 13.1226 3.20573H14.708L13.4608 1.98511C13.2852 1.80703 13.1881 1.56858 13.1904 1.32112C13.1927 1.07367 13.2943 0.837002 13.4732 0.662099C13.652 0.487196 13.894 0.388051 14.1468 0.386018C14.3996 0.383985 14.6432 0.479227 14.825 0.65123L17.718 3.48257C17.8986 3.65953 18 3.89941 18 4.14951C18 4.39961 17.8986 4.63949 17.718 4.81645L14.825 7.64779C14.7367 7.74052 14.6302 7.81489 14.5119 7.86647C14.3937 7.91806 14.266 7.94579 14.1365 7.94803C14.007 7.95027 13.8784 7.92695 13.7583 7.87949C13.6382 7.83202 13.5292 7.76137 13.4376 7.67175C13.346 7.58213 13.2738 7.47538 13.2253 7.35786C13.1768 7.24034 13.153 7.11447 13.1553 6.98775C13.1576 6.86102 13.1859 6.73605 13.2386 6.62028C13.2913 6.50451 13.3673 6.40032 13.4621 6.31391L14.7093 5.09329H13.1226C12.0169 5.09329 11.0088 5.7099 10.5241 6.68136L7.92423 11.8847C7.52773 12.6785 6.9115 13.3474 6.14569 13.8152C5.37987 14.2831 4.49523 14.5311 3.59246 14.5311H0.964331ZM9.50059 12.5907L10.3955 10.7988L10.5241 11.0555C10.7619 11.5317 11.1315 11.933 11.5909 12.2138C12.0503 12.4945 12.581 12.6434 13.1226 12.6435H14.708L13.4608 11.4229C13.3687 11.3358 13.2953 11.2316 13.2448 11.1165C13.1943 11.0013 13.1678 10.8774 13.1667 10.7521C13.1657 10.6268 13.1902 10.5026 13.2387 10.3866C13.2872 10.2706 13.3589 10.1653 13.4495 10.0767C13.5401 9.98814 13.6478 9.91811 13.7663 9.87071C13.8848 9.82331 14.0118 9.79949 14.1399 9.80064C14.2679 9.80178 14.3944 9.82788 14.5121 9.87739C14.6297 9.92691 14.7361 9.99886 14.825 10.089L17.718 12.9204C17.8986 13.0973 18 13.3372 18 13.5873C18 13.8374 17.8986 14.0773 17.718 14.2543L14.825 17.0856C14.7367 17.1783 14.6302 17.2527 14.5119 17.3043C14.3937 17.3559 14.266 17.3836 14.1365 17.3858C14.007 17.3881 13.8784 17.3648 13.7583 17.3173C13.6382 17.2698 13.5292 17.1992 13.4376 17.1096C13.346 17.0199 13.2738 16.9132 13.2253 16.7957C13.1768 16.6782 13.153 16.5523 13.1553 16.4256C13.1576 16.2988 13.1859 16.1739 13.2386 16.0581C13.2913 15.9423 13.3673 15.8381 13.4621 15.7517L14.7093 14.5311H13.1226C12.4076 14.5312 11.7015 14.3757 11.0555 14.0757C10.4095 13.7758 9.83971 13.3391 9.38744 12.7971C9.4273 12.7304 9.46459 12.6612 9.50059 12.5907Z" fill="#8C8C8C"/>
</svg>
