<svg width="24" height="24" viewBox="0 0 24 24" fill="none" xmlns="http://www.w3.org/2000/svg">
<path d="M15.9531 11.9141C15.9531 12.0495 15.9271 12.1745 15.875 12.2891C15.8229 12.4036 15.7448 12.513 15.6406 12.6172L9.55469 18.5703C9.38281 18.7474 9.16927 18.8359 8.91406 18.8359C8.7474 18.8359 8.59375 18.7943 8.45312 18.7109C8.3125 18.6328 8.20052 18.5234 8.11719 18.3828C8.03906 18.2474 8 18.0964 8 17.9297C8 17.6797 8.09375 17.4583 8.28125 17.2656L13.7656 11.9141L8.28125 6.5625C8.09375 6.36979 8 6.15104 8 5.90625C8 5.73438 8.03906 5.58073 8.11719 5.44531C8.20052 5.3099 8.3125 5.20312 8.45312 5.125C8.59375 5.04167 8.7474 5 8.91406 5C9.16927 5 9.38281 5.08594 9.55469 5.25781L15.6406 11.2109C15.7448 11.3151 15.8229 11.4245 15.875 11.5391C15.9271 11.6536 15.9531 11.7786 15.9531 11.9141Z" fill="white"/>
</svg>
