<svg width="26" height="26" viewBox="0 0 26 26" fill="none" xmlns="http://www.w3.org/2000/svg">
<path fill-rule="evenodd" clip-rule="evenodd" d="M18 25.375C20.7614 25.375 23 23.1364 23 20.375C23 17.6136 20.7614 15.375 18 15.375C15.2386 15.375 13 17.6136 13 20.375C13 23.1364 15.2386 25.375 18 25.375ZM16.4595 22.7368C16.5435 22.8289 16.6444 22.875 16.7621 22.875C16.821 22.875 16.8781 22.8642 16.9336 22.8425C16.9908 22.8226 17.0547 22.791 17.1253 22.7476L20.152 20.8614C20.268 20.7892 20.3546 20.716 20.4117 20.6419C20.4706 20.5679 20.5 20.4784 20.5 20.3736C20.5 20.2689 20.4706 20.1794 20.4117 20.1054C20.3546 20.0313 20.268 19.9581 20.152 19.8858L17.1253 17.9997C17.0547 17.9563 16.9908 17.9247 16.9336 17.9048C16.8781 17.8849 16.821 17.875 16.7621 17.875C16.6444 17.875 16.5435 17.9211 16.4595 18.0132C16.3754 18.1035 16.3334 18.23 16.3334 18.3926V22.3547C16.3334 22.5173 16.3754 22.6446 16.4595 22.7368Z" fill="#656565"/>
<path fill-rule="evenodd" clip-rule="evenodd" d="M11.455 23.0784C11.1606 22.2744 11 21.4059 11 20.5C11 17.2361 13.0849 14.4591 15.9956 13.4283C16.2646 12.9389 16.4923 12.3363 16.6011 11.7752C16.9661 11.5866 17.4204 11.1228 17.5574 9.98596C17.626 9.42065 17.4603 8.98591 17.2329 8.70092C17.5341 7.67548 18.1571 5.00954 17.0928 3.2996C16.8564 2.91916 16.5551 2.61367 16.1915 2.38453C15.5372 1.71154 14.6327 1.28222 13.4914 1.10053C13.1593 1.0341 12.7906 1 12.3894 1C12.3853 1 12.3813 1.00026 12.3772 1.00052C12.3732 1.00078 12.3692 1.00104 12.365 1.00104H12.3557L12.3448 1.00126L12.334 1.00104H12.3247C12.3205 1.00104 12.3165 1.00078 12.3125 1.00052C12.3084 1.00026 12.3044 1 12.3003 1C11.8991 1 11.5304 1.0341 11.1983 1.10053C10.057 1.28222 9.1525 1.71154 8.49819 2.38453C8.13461 2.61367 7.83327 2.91916 7.59694 3.2996C6.53261 5.00954 7.15563 7.67548 7.45676 8.70092C7.22936 8.98591 7.06374 9.42065 7.13227 9.98596C7.26934 11.1228 7.72363 11.5866 8.08861 11.7752C8.24437 12.5783 8.64362 13.4665 9.05897 13.9862C9.1329 13.995 9.20428 14.0038 9.27287 14.0125C9.31863 14.0673 9.36455 14.1178 9.41035 14.1634L9.41139 14.4054L9.41141 14.4083C9.41608 14.9335 9.42012 15.3894 9.36985 15.9769C9.0522 16.7053 7.99459 17.1203 6.77493 17.5989L6.77392 17.5993L6.77252 17.5999C4.74481 18.3962 2.22009 19.3877 2.03115 22.5301L2 23.0784H11.455Z" fill="white"/>
</svg>
