<svg width="16" height="16" viewBox="0 0 16 16" fill="none" xmlns="http://www.w3.org/2000/svg">
<path d="M8 11.8242C7.71875 11.8242 7.48438 11.7148 7.25781 11.4961L1.67188 5.77734C1.49219 5.59766 1.39844 5.37891 1.39844 5.12109C1.39844 4.58984 1.8125 4.17578 2.33594 4.17578C2.59375 4.17578 2.83594 4.28516 3.01562 4.46484L8.00781 9.58203L12.9844 4.46484C13.1719 4.28516 13.4141 4.17578 13.6641 4.17578C14.1875 4.17578 14.6016 4.58984 14.6016 5.12109C14.6016 5.37891 14.5078 5.59766 14.3359 5.77734L8.74219 11.4883C8.53125 11.7148 8.28906 11.8242 8 11.8242Z" fill="#ADADAD"/>
</svg>
