<svg width="32" height="32" viewBox="0 0 32 32" fill="none" xmlns="http://www.w3.org/2000/svg">
<path d="M5 16.8347C5 15.5313 5.22201 14.2923 5.66602 13.1179C6.11719 11.9434 6.74023 10.8835 7.53516 9.93817C8.33724 8.98569 9.26823 8.19077 10.3281 7.5534C11.3952 6.91603 12.5518 6.47918 13.7979 6.24286V4.63153C13.7979 4.31642 13.891 4.11948 14.0771 4.04071C14.2633 3.95477 14.4818 4.0049 14.7324 4.1911L18.0732 6.53289C18.2809 6.67612 18.3848 6.84442 18.3848 7.03778C18.3848 7.23114 18.2809 7.39585 18.0732 7.53192L14.7324 9.87371C14.4818 10.0528 14.2633 10.1029 14.0771 10.0241C13.891 9.93817 13.7979 9.74123 13.7979 9.43329V7.66082C12.7451 7.88999 11.7676 8.28387 10.8652 8.84246C9.96289 9.3939 9.17513 10.0778 8.50195 10.8942C7.83594 11.7106 7.31673 12.6237 6.94434 13.6335C6.5791 14.6361 6.39648 15.7031 6.39648 16.8347C6.39648 18.1309 6.63639 19.3483 7.11621 20.487C7.60319 21.6257 8.27637 22.6247 9.13574 23.4841C9.99512 24.3363 10.9906 25.0059 12.1221 25.4929C13.2536 25.9798 14.471 26.2233 15.7744 26.2233C17.0706 26.2233 18.2881 25.9798 19.4268 25.4929C20.5654 25.0059 21.5645 24.3363 22.4238 23.4841C23.2832 22.6247 23.9528 21.6257 24.4326 20.487C24.9196 19.3483 25.1631 18.1309 25.1631 16.8347C25.1631 15.7461 24.9876 14.7149 24.6367 13.7409C24.2858 12.7598 23.7952 11.8718 23.165 11.0768C22.542 10.2748 21.8079 9.598 20.9629 9.04657C20.791 8.91766 20.6836 8.76369 20.6406 8.58465C20.5977 8.40562 20.6227 8.23374 20.7158 8.06903C20.8232 7.90431 20.9736 7.80405 21.167 7.76825C21.3604 7.73244 21.5465 7.77899 21.7256 7.90789C22.6924 8.55243 23.5374 9.33661 24.2607 10.2604C24.984 11.1771 25.5462 12.194 25.9473 13.3112C26.3483 14.4284 26.5488 15.6029 26.5488 16.8347C26.5488 18.3099 26.266 19.6992 25.7002 21.0026C25.1344 22.2988 24.3574 23.4411 23.3691 24.4294C22.3809 25.4177 21.235 26.1947 19.9316 26.7604C18.6354 27.3262 17.2497 27.6091 15.7744 27.6091C14.2992 27.6091 12.9098 27.3262 11.6064 26.7604C10.3102 26.1947 9.16439 25.4177 8.16895 24.4294C7.18066 23.4411 6.40365 22.2988 5.83789 21.0026C5.2793 19.6992 5 18.3099 5 16.8347ZM12.9707 21.196C12.7845 21.196 12.6377 21.1387 12.5303 21.0241C12.43 20.9024 12.3799 20.7448 12.3799 20.5514V14.0417H12.3584L11.1123 14.9763C11.055 15.0121 11.0013 15.0407 10.9512 15.0622C10.901 15.0765 10.8438 15.0837 10.7793 15.0837C10.6576 15.0837 10.5537 15.0407 10.4678 14.9548C10.389 14.8688 10.3496 14.7614 10.3496 14.6325C10.3496 14.4463 10.4427 14.2852 10.6289 14.1491L12.0469 13.1179C12.1829 13.0176 12.3154 12.9352 12.4443 12.8708C12.5732 12.7992 12.7201 12.7634 12.8848 12.7634C13.0924 12.7634 13.2572 12.8207 13.3789 12.9352C13.5007 13.0498 13.5615 13.211 13.5615 13.4186V20.5514C13.5615 20.7376 13.5078 20.8916 13.4004 21.0134C13.3001 21.1351 13.1569 21.196 12.9707 21.196ZM18.2344 21.2497C17.5397 21.2497 16.9883 21.0384 16.5801 20.6159C16.1719 20.1934 15.8783 19.6563 15.6992 19.0046C15.5273 18.3457 15.4414 17.669 15.4414 16.9743C15.4414 16.4587 15.488 15.9502 15.5811 15.4489C15.6742 14.9404 15.8281 14.4785 16.043 14.0632C16.2578 13.6478 16.5443 13.3184 16.9023 13.0749C17.2604 12.8242 17.7044 12.6989 18.2344 12.6989C18.9219 12.6989 19.4697 12.9102 19.8779 13.3327C20.2861 13.7552 20.5798 14.2923 20.7588 14.944C20.9378 15.5957 21.0273 16.2725 21.0273 16.9743C21.0273 17.4828 20.9772 17.9912 20.877 18.4997C20.7839 19.0082 20.6299 19.4701 20.415 19.8854C20.2002 20.3008 19.9137 20.6338 19.5557 20.8845C19.1976 21.1279 18.7572 21.2497 18.2344 21.2497ZM18.2344 20.2614C18.6139 20.2614 18.9219 20.1074 19.1582 19.7995C19.3945 19.4844 19.5628 19.0762 19.6631 18.5749C19.7705 18.0736 19.8242 17.5401 19.8242 16.9743C19.8242 16.4014 19.7705 15.8679 19.6631 15.3737C19.5557 14.8724 19.3838 14.4678 19.1475 14.1598C18.9183 13.8447 18.6139 13.6872 18.2344 13.6872C17.8548 13.6872 17.5469 13.8412 17.3105 14.1491C17.0814 14.457 16.9131 14.8617 16.8057 15.363C16.6982 15.8643 16.6445 16.4014 16.6445 16.9743C16.6445 17.5401 16.6982 18.0736 16.8057 18.5749C16.9131 19.0762 17.0814 19.4844 17.3105 19.7995C17.5469 20.1074 17.8548 20.2614 18.2344 20.2614Z" fill="white"/>
</svg>
