<svg width="24" height="24" viewBox="0 0 24 24" fill="none" xmlns="http://www.w3.org/2000/svg">
<path d="M20.8458 18.8995C20.9755 19.0423 20.9755 19.1772 20.8458 19.3042L19.6541 20.4709C19.6054 20.5185 19.5406 20.5423 19.4595 20.5423C19.3785 20.5423 19.3136 20.5185 19.265 20.4709L15.6169 16.8995C14.8062 17.5026 13.8983 17.9392 12.893 18.209C11.8878 18.4788 10.8096 18.5265 9.65839 18.3519C8.79907 18.2249 7.9965 17.963 7.25067 17.5661C6.50484 17.1693 5.83198 16.6852 5.23207 16.1138C4.63217 15.5423 4.15387 14.8677 3.79717 14.0899C3.44047 13.3122 3.19727 12.5185 3.06756 11.709C2.90542 10.455 3.03513 9.26455 3.45668 8.13757C3.87824 7.01058 4.50246 6.05026 5.32936 5.25661C6.15625 4.46296 7.13717 3.85979 8.27213 3.44709C9.40708 3.03439 10.6231 2.90741 11.9202 3.06614C12.7795 3.17725 13.5902 3.41534 14.3522 3.78042C15.1143 4.1455 15.7952 4.61376 16.3951 5.18519C16.9951 5.75661 17.4977 6.40741 17.903 7.13757C18.3084 7.86772 18.5759 8.66138 18.7056 9.51852C18.8839 10.6138 18.8353 11.6534 18.5597 12.6376C18.284 13.6217 17.8382 14.5265 17.222 15.3519L20.8458 18.8995ZM10.8987 16.2566C11.677 16.2566 12.4066 16.1138 13.0876 15.828C13.7685 15.5423 14.3684 15.1455 14.8873 14.6376C15.4061 14.1296 15.8115 13.5423 16.1033 12.8757C16.3951 12.209 16.5411 11.4947 16.5411 10.7328C16.5411 9.9709 16.3951 9.25661 16.1033 8.58995C15.8115 7.92328 15.4061 7.33598 14.8873 6.82804C14.3684 6.32011 13.7685 5.92328 13.0876 5.63757C12.4066 5.35185 11.677 5.20899 10.8987 5.20899C10.1205 5.20899 9.39087 5.35185 8.70989 5.63757C8.02892 5.92328 7.43713 6.32011 6.9345 6.82804C6.43188 7.33598 6.02654 7.92328 5.71848 8.58995C5.41042 9.25661 5.2645 9.9709 5.28072 10.7328C5.29693 11.4947 5.44285 12.209 5.71848 12.8757C5.99411 13.5423 6.39945 14.1296 6.9345 14.6376C7.46955 15.1455 8.06135 15.5423 8.70989 15.828C9.35844 16.1138 10.0881 16.2566 10.8987 16.2566Z" fill="white"/>
</svg>
