<svg width="16" height="19" viewBox="0 0 16 19" fill="none" xmlns="http://www.w3.org/2000/svg">
<path d="M15.3333 2.71429H11.3333V1.69643C11.3333 1.24651 11.1577 0.815014 10.8452 0.496872C10.5326 0.17873 10.1087 0 9.66667 0H6.33333C5.89131 0 5.46738 0.17873 5.15482 0.496872C4.84226 0.815014 4.66667 1.24651 4.66667 1.69643V2.71429H0.666667C0.489856 2.71429 0.320287 2.78578 0.195262 2.91303C0.070238 3.04029 0 3.21289 0 3.39286C0 3.57283 0.070238 3.74542 0.195262 3.87268C0.320287 3.99994 0.489856 4.07143 0.666667 4.07143H1.375L2.16667 17.0033C2.22583 18.142 3.08333 19 4.16667 19H11.8333C12.9221 19 13.7625 18.1611 13.8333 17.0067L14.625 4.07143H15.3333C15.5101 4.07143 15.6797 3.99994 15.8047 3.87268C15.9298 3.74542 16 3.57283 16 3.39286C16 3.21289 15.9298 3.04029 15.8047 2.91303C15.6797 2.78578 15.5101 2.71429 15.3333 2.71429ZM5.35708 16.2857H5.33333C5.16056 16.2858 4.99449 16.2177 4.87013 16.0956C4.74577 15.9735 4.67282 15.8071 4.66667 15.6313L4.33333 6.13132C4.32703 5.95135 4.39123 5.7762 4.5118 5.64441C4.63237 5.51262 4.79944 5.43498 4.97625 5.42857C5.15306 5.42216 5.32513 5.4875 5.45461 5.61023C5.58409 5.73295 5.66037 5.903 5.66667 6.08297L6 15.583C6.00318 15.6721 5.98906 15.761 5.95846 15.8445C5.92786 15.9281 5.88137 16.0047 5.82166 16.07C5.76195 16.1353 5.69018 16.1879 5.61047 16.2249C5.53075 16.2619 5.44465 16.2826 5.35708 16.2857ZM8.66667 15.6071C8.66667 15.7871 8.59643 15.9597 8.47141 16.087C8.34638 16.2142 8.17681 16.2857 8 16.2857C7.82319 16.2857 7.65362 16.2142 7.5286 16.087C7.40357 15.9597 7.33333 15.7871 7.33333 15.6071V6.10714C7.33333 5.92717 7.40357 5.75458 7.5286 5.62732C7.65362 5.50006 7.82319 5.42857 8 5.42857C8.17681 5.42857 8.34638 5.50006 8.47141 5.62732C8.59643 5.75458 8.66667 5.92717 8.66667 6.10714V15.6071ZM10 2.71429H6V1.69643C5.9995 1.65173 6.00778 1.60738 6.02435 1.56599C6.04092 1.52459 6.06546 1.48699 6.09651 1.45538C6.12756 1.42377 6.16451 1.3988 6.20518 1.38193C6.24585 1.36506 6.28942 1.35663 6.33333 1.35714H9.66667C9.71058 1.35663 9.75415 1.36506 9.79482 1.38193C9.83549 1.3988 9.87244 1.42377 9.90349 1.45538C9.93454 1.48699 9.95908 1.52459 9.97565 1.56599C9.99222 1.60738 10.0005 1.65173 10 1.69643V2.71429ZM11.3333 15.6313C11.3272 15.8071 11.2542 15.9735 11.1299 16.0956C11.0055 16.2177 10.8394 16.2858 10.6667 16.2857H10.6425C10.555 16.2825 10.4689 16.2618 10.3892 16.2248C10.3096 16.1878 10.2379 16.1351 10.1782 16.0698C10.1185 16.0046 10.0721 15.928 10.0415 15.8445C10.0109 15.7609 9.99682 15.6721 10 15.583L10.3333 6.08297C10.3365 5.99386 10.3568 5.90624 10.3932 5.82513C10.4296 5.74402 10.4813 5.67099 10.5454 5.61023C10.6095 5.54946 10.6847 5.50214 10.7668 5.47097C10.8489 5.43981 10.9362 5.4254 11.0238 5.42857C11.1113 5.43175 11.1974 5.45244 11.2771 5.48948C11.3568 5.52651 11.4285 5.57916 11.4882 5.64441C11.5479 5.70967 11.5944 5.78626 11.625 5.8698C11.6556 5.95334 11.6698 6.04221 11.6667 6.13132L11.3333 15.6313Z" fill="#F0F0F0"/>
</svg>
