<svg width="24" height="24" viewBox="0 0 24 24" fill="none" xmlns="http://www.w3.org/2000/svg">
<path d="M1 4.90468C1 4.68857 1.08585 4.48132 1.23866 4.3285C1.39147 4.17569 1.59873 4.08984 1.81484 4.08984H19.7413C19.9574 4.08984 20.1647 4.17569 20.3175 4.3285C20.4703 4.48132 20.5561 4.68857 20.5561 4.90468C20.5561 5.12079 20.4703 5.32805 20.3175 5.48086C20.1647 5.63367 19.9574 5.71952 19.7413 5.71952H1.81484C1.59873 5.71952 1.39147 5.63367 1.23866 5.48086C1.08585 5.32805 1 5.12079 1 4.90468ZM11.5929 10.6086H1.81484C1.59873 10.6086 1.39147 10.6944 1.23866 10.8472C1.08585 11 1 11.2073 1 11.4234C1 11.6395 1.08585 11.8468 1.23866 11.9996C1.39147 12.1524 1.59873 12.2382 1.81484 12.2382H11.5929C11.809 12.2382 12.0163 12.1524 12.1691 11.9996C12.3219 11.8468 12.4077 11.6395 12.4077 11.4234C12.4077 11.2073 12.3219 11 12.1691 10.8472C12.0163 10.6944 11.809 10.6086 11.5929 10.6086ZM11.5929 17.1273H1.81484C1.59873 17.1273 1.39147 17.2131 1.23866 17.3659C1.08585 17.5187 1 17.726 1 17.9421C1 18.1582 1.08585 18.3655 1.23866 18.5183C1.39147 18.6711 1.59873 18.7569 1.81484 18.7569H11.5929C11.809 18.7569 12.0163 18.6711 12.1691 18.5183C12.3219 18.3655 12.4077 18.1582 12.4077 17.9421C12.4077 17.726 12.3219 17.5187 12.1691 17.3659C12.0163 17.2131 11.809 17.1273 11.5929 17.1273ZM22.6177 13.9922L16.099 9.91798C15.9756 9.84091 15.834 9.79824 15.6886 9.7944C15.5432 9.79057 15.3995 9.82571 15.2723 9.89617C15.1451 9.96663 15.039 10.0699 14.9652 10.1951C14.8913 10.3204 14.8523 10.4631 14.8523 10.6086V18.7569C14.8523 18.9024 14.8913 19.0451 14.9652 19.1704C15.039 19.2956 15.1451 19.3989 15.2723 19.4693C15.3995 19.5398 15.5432 19.5749 15.6886 19.5711C15.834 19.5673 15.9756 19.5246 16.099 19.4475L22.6177 15.3733C22.7347 15.3 22.8312 15.1982 22.898 15.0774C22.9649 14.9566 23 14.8208 23 14.6827C23 14.5447 22.9649 14.4089 22.898 14.2881C22.8312 14.1673 22.7347 14.0655 22.6177 13.9922Z" fill="white"/>
</svg>
