<svg width="16" height="16" viewBox="0 0 16 16" fill="none" xmlns="http://www.w3.org/2000/svg">
<g id="Icons 24" clip-path="url(#clip0_1562_146197)">
<path id="&#244;&#128;&#129;&#185;" d="M8 15.7891C3.88686 15.7891 0.5 12.4022 0.5 8.28906C0.5 4.18312 3.88686 0.789062 7.99281 0.789062C12.1059 0.789062 15.5 4.18312 15.5 8.28906C15.5 12.4022 12.1131 15.7891 8 15.7891ZM8.00719 4.41322C7.57574 4.41322 7.25216 4.71524 7.25216 5.1323V8.51198L7.33126 10.0292L6.71285 9.23106L5.90748 8.37535C5.79243 8.23873 5.60546 8.15244 5.41131 8.15244C5.02301 8.15244 4.74257 8.43288 4.74257 8.81399C4.74257 9.01533 4.8001 9.16634 4.94391 9.31735L7.40316 11.8341C7.59012 12.0283 7.76989 12.1146 8.00719 12.1146C8.24449 12.1146 8.43145 12.0211 8.61122 11.8341L11.0705 9.31735C11.2143 9.16634 11.279 9.01533 11.279 8.81399C11.279 8.43288 10.9914 8.15244 10.5959 8.15244C10.4089 8.15244 10.222 8.23154 10.0997 8.37535L9.30872 9.21667L8.67593 10.0364L8.75503 8.51198V5.1323C8.75503 4.71524 8.43864 4.41322 8.00719 4.41322Z" fill="#FD9C2A"/>
</g>
<defs>
<clipPath id="clip0_1562_146197">
<rect width="16" height="16" fill="white"/>
</clipPath>
</defs>
</svg>
