<svg width="24" height="24" viewBox="0 0 24 24" fill="none" xmlns="http://www.w3.org/2000/svg">
<path d="M5.38291 11.405C5.10419 11.405 4.87102 11.3139 4.68342 11.1317C4.50117 10.9441 4.41005 10.7082 4.41005 10.4241C4.41005 10.14 4.50117 9.90687 4.68342 9.72462C4.87102 9.53702 5.10419 9.44322 5.38291 9.44322H5.96181L8.29347 9.6201L6.5005 7.92362L4.29749 5.7206C4.20101 5.62412 4.12596 5.51692 4.07236 5.39899C4.02412 5.28107 4 5.15511 4 5.02111C4 4.72094 4.0938 4.47705 4.28141 4.28945C4.47437 4.09648 4.72362 4 5.02915 4C5.30251 4 5.533 4.09648 5.7206 4.28945L7.91558 6.50854L9.6201 8.29347L9.44322 5.97789V5.4794C9.44322 5.19531 9.53434 4.96482 9.71658 4.78794C9.90419 4.6057 10.1374 4.51457 10.4161 4.51457C10.7002 4.51457 10.936 4.6057 11.1236 4.78794C11.3112 4.97018 11.405 5.20067 11.405 5.4794V9.82915C11.405 10.3276 11.2657 10.7162 10.9869 10.995C10.7136 11.2683 10.3303 11.405 9.83719 11.405H5.38291ZM13.4633 19.5176C13.1846 19.5176 12.9514 19.4265 12.7638 19.2442C12.5762 19.062 12.4824 18.8288 12.4824 18.5447V14.1307C12.4824 13.6375 12.6191 13.2543 12.8925 12.9809C13.1658 12.7075 13.5518 12.5709 14.0503 12.5709H18.5608C18.8395 12.5709 19.07 12.662 19.2523 12.8442C19.4399 13.0265 19.5337 13.2623 19.5337 13.5518C19.5337 13.8305 19.4399 14.061 19.2523 14.2432C19.07 14.4255 18.8395 14.5166 18.5608 14.5166H17.9176L15.5779 14.3477L17.3789 16.0442L19.6221 18.2874C19.7132 18.3839 19.7856 18.4884 19.8392 18.601C19.8928 18.7189 19.9196 18.8476 19.9196 18.9869C19.9196 19.2817 19.8231 19.5229 19.6302 19.7106C19.4372 19.9035 19.1906 20 18.8905 20C18.6117 20 18.3812 19.9062 18.199 19.7186L15.9638 17.4673L14.2673 15.6744L14.4442 17.9899V18.5447C14.4442 18.8288 14.3504 19.062 14.1628 19.2442C13.9752 19.4265 13.742 19.5176 13.4633 19.5176Z" fill="white"/>
</svg>
