<svg width="26" height="26" viewBox="0 0 26 26" fill="none" xmlns="http://www.w3.org/2000/svg">
<path fill-rule="evenodd" clip-rule="evenodd" d="M12.3489 7.0625C12.6183 7.0625 12.8766 7.1695 13.0671 7.35997C13.2576 7.55044 13.3646 7.80876 13.3646 8.07812V13.4135L16.1189 16.1679C16.2187 16.2609 16.2988 16.373 16.3543 16.4976C16.4098 16.6222 16.4396 16.7567 16.442 16.893C16.4444 17.0294 16.4194 17.1649 16.3683 17.2913C16.3172 17.4178 16.2412 17.5327 16.1447 17.6291C16.0483 17.7256 15.9334 17.8016 15.8069 17.8527C15.6805 17.9037 15.545 17.9288 15.4086 17.9264C15.2723 17.924 15.1378 17.8942 15.0132 17.8387C14.8886 17.7832 14.7765 17.7031 14.6835 17.6033L11.6312 14.551L11.3333 14.2531V8.07812C11.3333 7.80876 11.4403 7.55044 11.6308 7.35997C11.8212 7.1695 12.0796 7.0625 12.3489 7.0625Z" fill="#656565"/>
<path fill-rule="evenodd" clip-rule="evenodd" d="M9.00769 3.8313C10.8277 3.03894 12.8423 2.80612 14.7951 3.1625C16.7479 3.51887 18.5504 4.44831 19.9732 5.83248C21.3959 7.21664 22.3746 8.99289 22.7845 10.9351C23.1944 12.8772 23.017 14.8975 22.2749 16.7385C21.5328 18.5795 20.2596 20.158 18.6173 21.2731C16.9751 22.3881 15.0382 22.9892 13.0532 22.9999C11.0682 23.0105 9.12496 22.4301 7.47089 21.3327C5.81683 20.2353 4.52678 18.6705 3.76502 16.8375C3.71454 16.7233 3.68739 16.6001 3.68517 16.4753C3.68295 16.3504 3.70571 16.2263 3.7521 16.1104C3.7985 15.9944 3.8676 15.8889 3.95535 15.8C4.04309 15.7111 4.14772 15.6406 4.26307 15.5928C4.37843 15.5449 4.50219 15.5205 4.62709 15.5211C4.75199 15.5217 4.87551 15.5473 4.9904 15.5963C5.10529 15.6453 5.20922 15.7167 5.2961 15.8065C5.38298 15.8962 5.45106 16.0024 5.49633 16.1188C6.19389 17.7977 7.43439 19.1941 9.01939 20.0847C10.6044 20.9753 12.4423 21.3086 14.2391 21.0313C16.0359 20.754 17.6878 19.8821 18.9305 18.5551C20.1733 17.2281 20.935 15.5226 21.0939 13.7116C21.2528 11.9005 20.7997 10.0885 19.8071 8.56531C18.8144 7.04217 17.3396 5.89595 15.6185 5.30999C13.8975 4.72403 12.0296 4.7322 10.3137 5.3332C8.59785 5.93419 7.13313 7.09328 6.15385 8.62505H8.31267C8.56132 8.62505 8.79978 8.72382 8.97561 8.89964C9.15143 9.07545 9.2502 9.31391 9.2502 9.56255C9.2502 9.81119 9.15143 10.0496 8.97561 10.2255C8.79978 10.4013 8.56132 10.5001 8.31267 10.5001H3V5.18755C3 4.93891 3.09878 4.70045 3.2746 4.52464C3.45042 4.34882 3.68888 4.25005 3.93753 4.25005C4.18618 4.25005 4.42464 4.34882 4.60046 4.52464C4.77629 4.70045 4.87506 4.93891 4.87506 5.18755V7.17005C5.92653 5.70535 7.35445 4.55091 9.00769 3.8313Z" fill="white"/>
</svg>
