<svg width="24" height="24" viewBox="0 0 24 24" fill="none" xmlns="http://www.w3.org/2000/svg">
<path d="M12.0859 15.9531C11.9505 15.9531 11.8255 15.9271 11.7109 15.875C11.5964 15.8229 11.487 15.7448 11.3828 15.6406L5.42969 9.55469C5.2526 9.38281 5.16406 9.16927 5.16406 8.91406C5.16406 8.7474 5.20573 8.59375 5.28906 8.45312C5.36719 8.3125 5.47656 8.20052 5.61719 8.11719C5.7526 8.03906 5.90365 8 6.07031 8C6.32031 8 6.54167 8.09375 6.73437 8.28125L12.0859 13.7656L17.4375 8.28125C17.6302 8.09375 17.849 8 18.0938 8C18.2656 8 18.4193 8.03906 18.5547 8.11719C18.6901 8.20052 18.7969 8.3125 18.875 8.45312C18.9583 8.59375 19 8.7474 19 8.91406C19 9.16927 18.9141 9.38281 18.7422 9.55469L12.7891 15.6406C12.6849 15.7448 12.5755 15.8229 12.4609 15.875C12.3464 15.9271 12.2214 15.9531 12.0859 15.9531Z" fill="white"/>
</svg>
