<svg width="16" height="16" viewBox="0 0 16 16" fill="none" xmlns="http://www.w3.org/2000/svg">
<path id="Vector" d="M8.0013 15.3333C12.0513 15.3333 15.3346 12.05 15.3346 7.99999C15.3346 3.94999 12.0513 0.666656 8.0013 0.666656M8.0013 15.3333C3.9513 15.3333 0.667969 12.05 0.667969 7.99999C0.667969 3.94999 3.9513 0.666656 8.0013 0.666656M8.0013 15.3333C10.0013 15.3333 10.668 12 10.668 7.99999C10.668 3.99999 10.0013 0.666656 8.0013 0.666656M8.0013 15.3333C6.0013 15.3333 5.33464 12 5.33464 7.99999C5.33464 3.99999 6.0013 0.666656 8.0013 0.666656M1.33464 10.6667H14.668M1.33464 5.33332H14.668" stroke="#019BE7" stroke-width="1.33333"/>
</svg>
