<svg width="24" height="24" viewBox="0 0 24 24" fill="none" xmlns="http://www.w3.org/2000/svg">
<path d="M12 21.9904C10.6322 21.9904 9.3442 21.7283 8.13615 21.2042C6.92809 20.6865 5.86385 19.9674 4.94343 19.047C4.02301 18.1266 3.30074 17.0655 2.77661 15.8639C2.25887 14.6558 2 13.3647 2 11.9904C2 10.6226 2.25887 9.33781 2.77661 8.13615C3.30074 6.92809 4.01981 5.86385 4.93384 4.94343C5.85427 4.02301 6.9185 3.30393 8.12656 2.78619C9.33461 2.26206 10.6226 2 11.9904 2C13.3583 2 14.6462 2.26206 15.8543 2.78619C17.0687 3.30393 18.133 4.02301 19.047 4.94343C19.9674 5.86385 20.6897 6.92809 21.2138 8.13615C21.7379 9.33781 22 10.6226 22 11.9904C22 13.3647 21.7379 14.6558 21.2138 15.8639C20.6897 17.0655 19.9674 18.1266 19.047 19.047C18.133 19.9674 17.0719 20.6865 15.8639 21.2042C14.6558 21.7283 13.3678 21.9904 12 21.9904ZM11.9904 17.5513C12.1182 17.5513 12.2237 17.5129 12.3068 17.4362C12.3963 17.3531 12.441 17.2413 12.441 17.1007V16.4487C13.2784 16.372 13.9687 16.1099 14.512 15.6625C15.0617 15.2087 15.3365 14.5983 15.3365 13.8313C15.3365 13.1473 15.116 12.6008 14.675 12.1918C14.2403 11.7827 13.5884 11.4982 12.7191 11.3384L12.441 11.2809V8.97987C12.7351 9.03739 12.9811 9.14925 13.1793 9.31544C13.3774 9.48162 13.5244 9.69575 13.6203 9.95781C13.7929 10.3285 14.055 10.5139 14.4065 10.5139C14.6366 10.5139 14.8188 10.45 14.953 10.3221C15.0936 10.1879 15.164 10.0185 15.164 9.814C15.164 9.75647 15.1576 9.69575 15.1448 9.63183C15.132 9.56791 15.116 9.50719 15.0968 9.44966C14.9562 8.9511 14.6494 8.52924 14.1764 8.18408C13.7098 7.83893 13.1314 7.63119 12.441 7.56088V6.90892C12.441 6.7683 12.3963 6.65964 12.3068 6.58293C12.2237 6.49984 12.1182 6.45829 11.9904 6.45829C11.8626 6.45829 11.7571 6.49984 11.674 6.58293C11.5909 6.65964 11.5494 6.7683 11.5494 6.90892V7.56088C10.7376 7.63758 10.0697 7.90284 9.54554 8.35666C9.0278 8.81048 8.76894 9.39533 8.76894 10.1112C8.76894 10.776 8.98306 11.3065 9.41131 11.7028C9.84596 12.0927 10.4819 12.3835 11.3193 12.5753L11.5494 12.6328V15.0585C11.1787 15.001 10.8814 14.8795 10.6577 14.6942C10.4404 14.5088 10.2934 14.2851 10.2167 14.023C10.1336 13.8313 10.0281 13.6874 9.90029 13.5916C9.77245 13.4957 9.61585 13.4477 9.43049 13.4477C9.20038 13.4477 9.01502 13.5181 8.8744 13.6587C8.74017 13.7929 8.67306 13.9687 8.67306 14.186C8.67306 14.2435 8.67625 14.3042 8.68265 14.3682C8.69543 14.4321 8.71461 14.496 8.74017 14.5599C8.88718 15.0713 9.20358 15.4995 9.68936 15.8447C10.1815 16.1834 10.8015 16.3816 11.5494 16.4391V17.1007C11.5494 17.2413 11.5909 17.3531 11.674 17.4362C11.7571 17.5129 11.8626 17.5513 11.9904 17.5513ZM11.5494 11.0508L11.4823 11.0316C11.1115 10.9294 10.8367 10.7951 10.6577 10.629C10.4787 10.4564 10.3893 10.2454 10.3893 9.99616C10.3893 9.74049 10.4915 9.51997 10.6961 9.33461C10.907 9.14286 11.1914 9.02141 11.5494 8.97028V11.0508ZM12.441 12.8437L12.6136 12.8821C13.0227 12.9907 13.3071 13.1314 13.4669 13.3039C13.6331 13.4765 13.7162 13.6938 13.7162 13.9559C13.7162 14.2435 13.6075 14.4864 13.3902 14.6846C13.1793 14.8827 12.8629 15.0073 12.441 15.0585V12.8437Z" fill="url(#paint0_linear_219_29740)"/>
<defs>
<linearGradient id="paint0_linear_219_29740" x1="24.3213" y1="19.6582" x2="12.4699" y2="-1.38269" gradientUnits="userSpaceOnUse">
<stop stop-color="#DB8B13"/>
<stop offset="1" stop-color="#FBC677"/>
</linearGradient>
</defs>
</svg>
