<svg width="24" height="24" viewBox="0 0 24 24" fill="none" xmlns="http://www.w3.org/2000/svg">
<g clip-path="url(#clip0_218_29645)">
<path d="M24 21.614C24 21.922 23.985 22.384 23.9551 23H0.0224299C0.0224299 22.8533 0.0186916 22.626 0.011215 22.318C0.00373832 22.01 0 21.7753 0 21.614C0 21.174 0.00747663 20.9027 0.0224299 20.8C0.201869 20.0813 0.680374 19.4617 1.45794 18.941C2.23551 18.4203 3.06916 18.0317 3.95888 17.775C4.8486 17.5183 5.78692 17.1737 6.77383 16.741C7.76075 16.3083 8.48598 15.828 8.94953 15.3C9.20374 14.9773 9.33084 14.6987 9.33084 14.464C9.33084 14.1413 9.2486 13.606 9.08411 12.858C9.0243 12.55 8.94579 12.2823 8.8486 12.055C8.7514 11.8277 8.63178 11.5857 8.48972 11.329C8.34766 11.0723 8.23178 10.8413 8.14206 10.636C7.91776 10.1227 7.67103 9.15467 7.40187 7.732C7.31215 7.17467 7.26729 6.62467 7.26729 6.082C7.26729 4.542 7.66729 3.31 8.46729 2.386C9.26729 1.462 10.4449 1 12 1C13.5551 1 14.7327 1.462 15.5327 2.386C16.3327 3.31 16.7327 4.542 16.7327 6.082C16.7327 6.53667 16.6804 7.08667 16.5757 7.732C16.3664 9.03733 16.1271 10.0053 15.8579 10.636C15.7682 10.8413 15.6523 11.0723 15.5103 11.329C15.3682 11.5857 15.2486 11.8277 15.1514 12.055C15.0542 12.2823 14.9757 12.55 14.9159 12.858C14.7514 13.606 14.6692 14.1413 14.6692 14.464C14.6692 14.728 14.7963 15.0067 15.0505 15.3C15.514 15.828 16.2393 16.3083 17.2262 16.741C18.2131 17.1737 19.1477 17.5183 20.0299 17.775C20.9121 18.0317 21.7421 18.4203 22.5196 18.941C23.2972 19.4617 23.7757 20.0813 23.9551 20.8C23.985 20.9173 24 21.1887 24 21.614Z" fill="white"/>
</g>
<defs>
<clipPath id="clip0_218_29645">
<rect width="24" height="24" fill="white"/>
</clipPath>
</defs>
</svg>
