<svg width="24" height="24" viewBox="0 0 24 24" fill="none" xmlns="http://www.w3.org/2000/svg">
<path d="M6.99976 6.00012C7.26497 6.00012 7.51933 5.89477 7.70686 5.70723C7.8944 5.51969 7.99976 5.26534 7.99976 5.00012C7.99976 4.73491 7.8944 4.48055 7.70686 4.29302C7.51933 4.10548 7.26497 4.00012 6.99976 4.00012H4.99976C4.73454 4.00012 4.48019 4.10548 4.29265 4.29302C4.10511 4.48055 3.99976 4.73491 3.99976 5.00012V19.0001C3.99976 19.2653 4.10511 19.5197 4.29265 19.7072C4.48019 19.8948 4.73454 20.0001 4.99976 20.0001H6.99976C7.26497 20.0001 7.51933 19.8948 7.70686 19.7072C7.8944 19.5197 7.99976 19.2653 7.99976 19.0001C7.99976 18.7349 7.8944 18.4806 7.70686 18.293C7.51933 18.1055 7.26497 18.0001 6.99976 18.0001H5.99976V6.00012H6.99976ZM20.8198 11.4201L17.9998 7.42012C17.8468 7.20453 17.6148 7.05826 17.3543 7.01329C17.0938 6.96832 16.8261 7.0283 16.6098 7.18012C16.5016 7.25591 16.4095 7.35237 16.3389 7.46393C16.2682 7.57549 16.2203 7.69994 16.198 7.83011C16.1757 7.96027 16.1794 8.09356 16.2089 8.22229C16.2383 8.35102 16.293 8.47264 16.3698 8.58012L18.0898 11.0001H9.99976C9.73454 11.0001 9.48019 11.1055 9.29265 11.293C9.10511 11.4806 8.99976 11.7349 8.99976 12.0001C8.99976 12.2653 9.10511 12.5197 9.29265 12.7072C9.48019 12.8948 9.73454 13.0001 9.99976 13.0001H17.9998L16.1998 15.4001C16.121 15.5052 16.0636 15.6247 16.031 15.7519C15.9985 15.8792 15.9912 16.0115 16.0098 16.1415C16.0284 16.2715 16.0724 16.3966 16.1393 16.5096C16.2062 16.6226 16.2947 16.7213 16.3998 16.8001C16.5729 16.9299 16.7834 17.0001 16.9998 17.0001C17.155 17.0001 17.3081 16.964 17.447 16.8945C17.5858 16.8251 17.7066 16.7243 17.7998 16.6001L20.7998 12.6001C20.9278 12.431 20.9988 12.2255 21.0024 12.0134C21.006 11.8013 20.942 11.5935 20.8198 11.4201Z" fill="white"/>
</svg>
