<svg width="16" height="16" viewBox="0 0 16 16" fill="none" xmlns="http://www.w3.org/2000/svg">
<g id="Frame">
<path id="Vector" d="M7.9987 1.33398C4.33203 1.33398 1.33203 4.33398 1.33203 8.00065C1.33203 11.6673 4.33203 14.6673 7.9987 14.6673C11.6654 14.6673 14.6654 11.6673 14.6654 8.00065C14.6654 4.33398 11.6654 1.33398 7.9987 1.33398ZM10.332 9.33398C10.132 9.66731 9.73203 9.73398 9.3987 9.60065L7.66536 8.60065C7.46536 8.46732 7.33203 8.26732 7.33203 8.00065V4.66732C7.33203 4.26732 7.5987 4.00065 7.9987 4.00065C8.3987 4.00065 8.66536 4.26732 8.66536 4.66732V7.60065L10.0654 8.40065C10.3987 8.60065 10.4654 9.00065 10.332 9.33398Z" fill="#019BE7"/>
</g>
</svg>
