<svg width="100" height="101" viewBox="0 0 100 101" fill="none" xmlns="http://www.w3.org/2000/svg">
<g id="Frame" clip-path="url(#clip0_583_57900)">
<path id="Vector" d="M15.0039 30.5C15.0039 26.5217 16.5843 22.7064 19.3973 19.8934C22.2104 17.0803 26.0257 15.5 30.0039 15.5H70.0039C73.9822 15.5 77.7975 17.0803 80.6105 19.8934C83.4236 22.7064 85.0039 26.5217 85.0039 30.5V40.65C83.3431 40.4591 81.6662 40.4524 80.0039 40.63V35.5H20.0039V70.5C20.0039 73.1521 21.0575 75.6957 22.9328 77.571C24.8082 79.4464 27.3517 80.5 30.0039 80.5H47.4639C46.3646 81.9821 45.608 83.6899 45.2489 85.5H30.0039C26.0257 85.5 22.2104 83.9196 19.3973 81.1066C16.5843 78.2935 15.0039 74.4782 15.0039 70.5V30.5ZM65.2239 48.435L58.0239 41.235C57.5551 40.7655 56.9191 40.5015 56.2557 40.5011C55.5923 40.5006 54.9558 40.7637 54.4864 41.2325C54.017 41.7012 53.753 42.3373 53.7525 43.0007C53.752 43.6641 54.0151 44.3005 54.4839 44.77L62.3739 52.655C63.1489 51.17 64.0989 49.755 65.2239 48.435ZM45.5239 44.77C45.9933 44.3005 46.2571 43.6638 46.2571 43C46.2571 42.3361 45.9933 41.6994 45.5239 41.23C45.0545 40.7605 44.4178 40.4968 43.7539 40.4968C43.09 40.4968 42.4533 40.7605 41.9839 41.23L29.4839 53.73C29.2511 53.9622 29.0664 54.2381 28.9403 54.5418C28.8143 54.8455 28.7494 55.1711 28.7494 55.5C28.7494 55.8288 28.8143 56.1544 28.9403 56.4581C29.0664 56.7619 29.2511 57.0377 29.4839 57.27L41.9839 69.77C42.2163 70.0024 42.4923 70.1868 42.796 70.3126C43.0997 70.4384 43.4252 70.5031 43.7539 70.5031C44.0826 70.5031 44.4081 70.4384 44.7118 70.3126C45.0155 70.1868 45.2915 70.0024 45.5239 69.77C45.7563 69.5375 45.9407 69.2616 46.0665 68.9579C46.1923 68.6542 46.2571 68.3287 46.2571 68C46.2571 67.6712 46.1923 67.3457 46.0665 67.0421C45.9407 66.7384 45.7563 66.4624 45.5239 66.23L34.7889 55.5L45.5239 44.77ZM84.4639 45.62C86.2939 45.83 86.8189 48.02 85.5139 49.33L80.6389 54.205C79.939 54.9049 79.3837 55.7359 79.0049 56.6504C78.6261 57.5649 78.4311 58.5451 78.4311 59.535C78.4311 60.5248 78.6261 61.505 79.0049 62.4195C79.3837 63.3341 79.939 64.165 80.6389 64.865C81.3389 65.5649 82.1698 66.1201 83.0843 66.4989C83.9989 66.8778 84.979 67.0727 85.9689 67.0727C86.9588 67.0727 87.939 66.8778 88.8535 66.4989C89.768 66.1201 90.599 65.5649 91.2989 64.865L96.1739 59.99C97.4789 58.685 99.6739 59.21 99.8839 61.04C100.232 64.0115 99.8167 67.0227 98.6769 69.7889C97.537 72.5551 95.7104 74.9848 93.3699 76.8484C91.0293 78.7119 88.2521 79.9477 85.3008 80.4388C82.3496 80.9299 79.3218 80.6601 76.5039 79.655L62.8739 93.29C61.4603 94.7036 59.543 95.4977 57.5439 95.4977C55.5448 95.4977 53.6275 94.7036 52.2139 93.29C50.8003 91.8764 50.0061 89.9591 50.0061 87.96C50.0061 86.9701 50.2011 85.9899 50.5799 85.0754C50.9587 84.1609 51.514 83.3299 52.2139 82.63L65.8439 69C64.8385 66.1816 64.5687 63.1533 65.06 60.2016C65.5513 57.2499 66.7876 54.4723 68.6517 52.1316C70.5159 49.7909 72.9464 47.9644 75.7133 46.825C78.4802 45.6855 81.492 45.2708 84.4639 45.62Z" fill="#019BE7"/>
</g>
<defs>
<clipPath id="clip0_583_57900">
<rect width="100" height="100" fill="white" transform="translate(0 0.5)"/>
</clipPath>
</defs>
</svg>
