<svg width="24" height="24" viewBox="0 0 24 24" fill="none" xmlns="http://www.w3.org/2000/svg">
<path d="M3.44451 21.6075H20.4318V21.8778C20.4318 22.1763 20.1825 22.4184 19.8749 22.4184H4.00147C3.69387 22.4184 3.44451 22.1763 3.44451 21.8778V21.6075Z" fill="#595959"/>
<path d="M5.11538 23.1892H18.7609V23.4594C18.7609 23.758 18.5116 24 18.204 24H5.67234C5.36474 24 5.11538 23.758 5.11538 23.4594V23.1892Z" fill="#2E2E2E"/>
<path fill-rule="evenodd" clip-rule="evenodd" d="M1 7.70282C1 6.21009 2.2468 5 3.78481 5H20.2152C21.7532 5 23 6.2101 23 7.70282V17.7033C23 19.196 21.7532 20.4061 20.2152 20.4061H3.78481C2.2468 20.4061 1 19.196 1 17.7033V7.70282ZM10.4252 10.7153L11.5192 8.46606C11.7169 8.06004 12.2848 8.06513 12.4809 8.46606L13.5748 10.7153L16.0225 11.0772C16.4614 11.1417 16.6373 11.6904 16.319 12.0047L14.5482 13.7545L14.967 16.2263C15.0424 16.6731 14.5784 17.0061 14.1897 16.7988L12 15.6317L9.8104 16.7988C9.42172 17.0078 8.95766 16.6731 9.03305 16.2263L9.45188 13.7545L7.68107 12.0047C7.36276 11.6904 7.53867 11.1417 7.9776 11.0772L10.4252 10.7153Z" fill="#BFBFBF"/>
</svg>
