<svg width="24" height="24" viewBox="0 0 24 24" fill="none" xmlns="http://www.w3.org/2000/svg">
<mask id="mask0_4025_145279" style="mask-type:alpha" maskUnits="userSpaceOnUse" x="0" y="0" width="24" height="24">
<g clip-path="url(#clip0_4025_145279)">
<g clip-path="url(#clip1_4025_145279)">
<path fill-rule="evenodd" clip-rule="evenodd" d="M1 4.2C1 3.61652 1.23178 3.05694 1.64436 2.64436C2.05695 2.23178 2.61652 2 3.2 2H9.272C9.60174 2.00004 9.92726 2.0742 10.2245 2.21701C10.5217 2.35981 10.783 2.56759 10.9891 2.825L12.5291 4.75H20.8C21.3835 4.75 21.9431 4.98178 22.3556 5.39436C22.7682 5.80694 23 6.36652 23 6.95V19.6C23 20.1835 22.7682 20.7431 22.3556 21.1556C21.9431 21.5682 21.3835 21.8 20.8 21.8H3.2C2.61652 21.8 2.05695 21.5682 1.64436 21.1556C1.23178 20.7431 1 20.1835 1 19.6V4.2ZM12 9.7C12.2917 9.7 12.5715 9.81589 12.7778 10.0222C12.9841 10.2285 13.1 10.5083 13.1 10.8V13.7799L13.5554 13.3234C13.6576 13.2213 13.7789 13.1403 13.9124 13.085C14.0459 13.0298 14.189 13.0014 14.3335 13.0014C14.478 13.0015 14.621 13.03 14.7545 13.0853C14.888 13.1407 15.0092 13.2217 15.1114 13.3239C15.2135 13.4262 15.2945 13.5475 15.3497 13.681C15.405 13.8145 15.4334 13.9576 15.4333 14.102C15.4333 14.2465 15.4048 14.3896 15.3494 14.523C15.2941 14.6565 15.213 14.7778 15.1108 14.8799L12.7788 17.2119C12.6766 17.3142 12.5553 17.3953 12.4218 17.4507C12.2882 17.506 12.1451 17.5345 12.0005 17.5345C11.856 17.5345 11.7129 17.506 11.5793 17.4507C11.4458 17.3953 11.3245 17.3142 11.2223 17.2119L8.8892 14.8799C8.787 14.7778 8.70591 14.6565 8.65058 14.523C8.59524 14.3896 8.56673 14.2465 8.56668 14.102C8.56663 13.9576 8.59503 13.8145 8.65028 13.681C8.70552 13.5475 8.78652 13.4262 8.88865 13.3239C8.99078 13.2217 9.11204 13.1407 9.2455 13.0853C9.37897 13.03 9.52203 13.0015 9.66651 13.0014C9.811 13.0014 9.95407 13.0298 10.0876 13.085C10.2211 13.1403 10.3424 13.2213 10.4446 13.3234L10.9 13.7799V10.8C10.9 10.5083 11.0159 10.2285 11.2222 10.0222C11.4285 9.81589 11.7083 9.7 12 9.7Z" fill="#868686"/>
</g>
</g>
</mask>
<g mask="url(#mask0_4025_145279)">
<rect width="24" height="24" fill="#BFBFBF"/>
</g>
<defs>
<clipPath id="clip0_4025_145279">
<rect width="24" height="24" fill="white"/>
</clipPath>
<clipPath id="clip1_4025_145279">
<rect width="24" height="24" fill="white"/>
</clipPath>
</defs>
</svg>
