<svg width="24" height="24" viewBox="0 0 24 24" fill="none" xmlns="http://www.w3.org/2000/svg">
<path fill-rule="evenodd" clip-rule="evenodd" d="M2.7612 15.8268C2.25866 14.6136 2 13.3132 2 12C2 10.6868 2.25866 9.38642 2.7612 8.17317C3.26375 6.95991 4.00035 5.85752 4.92893 4.92893C5.85752 4.00035 6.95991 3.26375 8.17317 2.7612C9.38642 2.25866 10.6868 2 12 2C13.3132 2 14.6136 2.25866 15.8268 2.7612C17.0401 3.26375 18.1425 4.00035 19.0711 4.92893C19.9997 5.85752 20.7363 6.95991 21.2388 8.17317C21.7413 9.38642 22 10.6868 22 12C22 13.3132 21.7413 14.6136 21.2388 15.8268C20.7363 17.0401 19.9997 18.1425 19.0711 19.0711C18.1425 19.9997 17.0401 20.7362 15.8268 21.2388C14.6136 21.7413 13.3132 22 12 22C10.6868 22 9.38642 21.7413 8.17317 21.2388C6.95991 20.7362 5.85752 19.9997 4.92893 19.0711C4.00035 18.1425 3.26375 17.0401 2.7612 15.8268ZM12.9003 7.32069C12.9003 6.75994 12.5389 6.38611 11.9969 6.38611C11.4611 6.38611 11.0935 6.75994 11.0935 7.32069V14.2366L11.1558 15.5886L9.90343 14.1431L8.50156 12.7475C8.33956 12.5793 8.12773 12.4671 7.85358 12.4671C7.3676 12.4671 7 12.8285 7 13.3394C7 13.5761 7.09346 13.7942 7.28037 13.9874L11.3302 18.0434C11.4984 18.2179 11.7539 18.3176 11.9969 18.3176C12.2461 18.3176 12.4953 18.2179 12.6636 18.0434L16.7196 13.9874C16.9065 13.7942 17 13.5761 17 13.3394C17 12.8285 16.6324 12.4671 16.1464 12.4671C15.8785 12.4671 15.6667 12.5793 15.4984 12.7475L14.0966 14.1431L12.8442 15.5886L12.9003 14.2366V7.32069Z" fill="white"/>
</svg>
