<svg width="24" height="24" viewBox="0 0 24 24" fill="none" xmlns="http://www.w3.org/2000/svg">
<path fill-rule="evenodd" clip-rule="evenodd" d="M8 8C9.1 8 10 7.1 10 6C10 4.9 9.1 4 8 4C6.9 4 6 4.9 6 6C6 7.1 6.9 8 8 8ZM8 10C6.9 10 6 10.9 6 12C6 13.1 6.9 14 8 14C9.1 14 10 13.1 10 12C10 10.9 9.1 10 8 10ZM6 18C6 16.9 6.9 16 8 16C9.1 16 10 16.9 10 18C10 19.1 9.1 20 8 20C6.9 20 6 19.1 6 18Z" fill="white"/>
<path fill-rule="evenodd" clip-rule="evenodd" d="M16 8C17.1 8 18 7.1 18 6C18 4.9 17.1 4 16 4C14.9 4 14 4.9 14 6C14 7.1 14.9 8 16 8ZM16 10C14.9 10 14 10.9 14 12C14 13.1 14.9 14 16 14C17.1 14 18 13.1 18 12C18 10.9 17.1 10 16 10ZM14 18C14 16.9 14.9 16 16 16C17.1 16 18 16.9 18 18C18 19.1 17.1 20 16 20C14.9 20 14 19.1 14 18Z" fill="white"/>
</svg>
