<svg width="24" height="24" viewBox="0 0 24 24" fill="none" xmlns="http://www.w3.org/2000/svg">
<path d="M4.90786 10.9714C4.64689 10.9714 4.43033 10.8853 4.2582 10.7132C4.08607 10.5355 4 10.3189 4 10.0635V5.49922C4 5.02724 4.13049 4.66077 4.39146 4.39979C4.65799 4.13326 5.03002 4 5.50755 4H10.1218C10.3883 4 10.6049 4.08607 10.7715 4.2582C10.9436 4.43033 11.0297 4.64689 11.0297 4.90786C11.0297 5.17439 10.9436 5.39372 10.7715 5.56585C10.5994 5.73243 10.3828 5.81572 10.1218 5.81572H9.48049L6.85685 5.64081L8.89746 7.58147L11.3129 9.98023C11.3962 10.0691 11.46 10.1718 11.5044 10.2884C11.5544 10.3995 11.5794 10.5188 11.5794 10.6465C11.5794 10.9242 11.4878 11.1491 11.3045 11.3212C11.1269 11.4933 10.8964 11.5794 10.6132 11.5794C10.3634 11.5794 10.1524 11.4933 9.98023 11.3212L7.58147 8.89746L5.64081 6.85685L5.81572 9.47216V10.0635C5.81572 10.3245 5.72966 10.541 5.55752 10.7132C5.39094 10.8853 5.17439 10.9714 4.90786 10.9714ZM13.9115 20.05C13.6505 20.05 13.4312 19.9639 13.2535 19.7918C13.0814 19.6197 12.9953 19.4031 12.9953 19.1421C12.9953 18.8812 13.0814 18.6646 13.2535 18.4925C13.4312 18.3203 13.6505 18.2343 13.9115 18.2343H14.5529L17.1848 18.4092L15.1276 16.4685L12.7288 14.0698C12.6344 13.9809 12.5622 13.881 12.5122 13.7699C12.4678 13.6533 12.4456 13.5312 12.4456 13.4035C12.4456 13.1258 12.5372 12.9009 12.7205 12.7288C12.9037 12.5567 13.1341 12.4706 13.4118 12.4706C13.6728 12.4706 13.8865 12.5567 14.0531 12.7288L16.4435 15.1442L18.3925 17.1931L18.2176 14.5778V13.9865C18.2176 13.7255 18.3037 13.509 18.4758 13.3368C18.6479 13.1647 18.8617 13.0786 19.1172 13.0786C19.3781 13.0786 19.5947 13.1647 19.7668 13.3368C19.9445 13.509 20.0333 13.7255 20.0333 13.9865V18.5424C20.0333 19.02 19.9001 19.3892 19.6335 19.6502C19.3726 19.9167 19.0033 20.05 18.5258 20.05H13.9115Z" fill="white"/>
</svg>
