<svg width="84" height="84" viewBox="0 0 84 84" fill="none" xmlns="http://www.w3.org/2000/svg">
<g id="Icons 24">
<g id="Vector">
<path d="M44.5106 56.9729L33.7511 67.7324C31.586 69.7513 28.7215 70.8504 25.7616 70.798C22.8018 70.7457 19.978 69.5458 17.8856 67.4516C15.7933 65.3574 14.5961 62.5325 14.5464 59.5726C14.4967 56.6127 15.5984 53.7491 17.6193 51.5859L17.6134 51.5917L28.3729 40.8322C29.0261 40.1066 29.3758 39.158 29.3499 38.182C29.3241 37.2061 28.9245 36.2773 28.2338 35.5873C27.5431 34.8973 26.6139 34.4988 25.6379 34.474C24.6619 34.4492 23.7136 34.8 22.9887 35.454L22.9917 35.451L12.2322 46.2105C8.81302 49.8108 6.93602 54.6046 7.00167 59.5694C7.06731 64.5341 9.07039 69.2766 12.5836 72.7853C16.0968 76.2939 20.8419 78.2907 25.8067 78.3499C30.7715 78.409 35.5629 76.5258 39.1587 73.1019L39.1499 73.1077L49.9094 62.3483C50.5626 61.6227 50.9123 60.674 50.8864 59.698C50.8606 58.7221 50.461 57.7933 49.7703 57.1033C49.0796 56.4133 48.1504 56.0148 47.1744 55.99C46.1984 55.9652 45.2501 56.316 44.5252 56.97L44.5282 56.9671L44.5106 56.9729ZM77 27.3763C76.9983 23.6125 75.8808 19.9337 73.7887 16.805C71.6966 13.6762 68.7239 11.238 65.2463 9.79844C61.7687 8.3589 57.9424 7.98272 54.251 8.71743C50.5597 9.45215 47.169 11.2648 44.5077 13.9262L33.7482 24.6857C33.3639 25.0316 33.0541 25.4521 32.8376 25.9216C32.621 26.391 32.5023 26.8997 32.4886 27.4165C32.4749 27.9334 32.5665 28.4476 32.7579 28.9279C32.9492 29.4082 33.2363 29.8445 33.6017 30.2103C33.9671 30.576 34.4031 30.8636 34.8832 31.0555C35.3633 31.2474 35.8774 31.3396 36.3943 31.3265C36.9111 31.3133 37.4199 31.1952 37.8896 30.9791C38.3593 30.7631 38.7801 30.4537 39.1265 30.0698L49.8888 19.3074C52.0539 17.2885 54.9185 16.1894 57.8783 16.2418C60.8382 16.2942 63.662 17.494 65.7543 19.5882C67.8466 21.6824 69.0439 24.5073 69.0936 27.4672C69.1433 30.4272 68.0415 33.2907 66.0207 35.454L66.0266 35.4481L55.2671 46.2076C54.8829 46.5535 54.573 46.974 54.3565 47.4435C54.1399 47.9129 54.0212 48.4216 54.0075 48.9384C53.9938 49.4553 54.0854 49.9695 54.2768 50.4498C54.4681 50.93 54.7553 51.3664 55.1207 51.7322C55.486 52.0979 55.922 52.3855 56.4021 52.5774C56.8822 52.7693 57.3963 52.8615 57.9132 52.8484C58.43 52.8352 58.9388 52.7171 59.4085 52.501C59.8782 52.285 60.299 51.9756 60.6454 51.5917L71.4078 40.8293C73.1822 39.0735 74.5903 36.9827 75.5503 34.6784C76.5103 32.374 77.003 29.9019 77 27.4056V27.3763Z" fill="white"/>
<path d="M28.3612 56.9876C29.0499 57.6763 29.9996 58.1013 31.0518 58.1013C32.104 58.1013 33.0536 57.6763 33.7424 56.9876L55.2613 35.4686C55.9145 34.743 56.2642 33.7944 56.2383 32.8184C56.2125 31.8424 55.813 30.9136 55.1222 30.2237C54.4315 29.5337 53.5023 29.1352 52.5263 29.1104C51.5503 29.0856 50.602 29.4364 49.8772 30.0903L49.8801 30.0874L28.3612 51.6064C27.6724 52.2951 27.2474 53.2448 27.2474 54.297C27.2474 55.3492 27.6724 56.2988 28.3612 56.9876Z" fill="white"/>
</g>
</g>
</svg>
