<svg width="18" height="18" viewBox="0 0 18 18" fill="none" xmlns="http://www.w3.org/2000/svg">
<path d="M12.8834 0.21644C12.702 0.0611272 12.4663 -0.0157594 12.2282 0.00269443C11.9901 0.0211482 11.7691 0.133431 11.6138 0.314841C11.4585 0.496251 11.3816 0.731929 11.4 0.970028C11.4185 1.20813 11.5308 1.42914 11.7122 1.58446L14.0642 3.60048H4.69931C4.16073 3.60032 3.62739 3.70627 3.12976 3.91227C2.63214 4.11826 2.17996 4.42027 1.79907 4.80105C1.41819 5.18183 1.11604 5.63391 0.909899 6.13148C0.703757 6.62905 0.597656 7.16235 0.597656 7.70093V8.70054C0.597656 8.93924 0.692479 9.16816 0.861263 9.33695C1.03005 9.50573 1.25897 9.60055 1.49767 9.60055C1.73637 9.60055 1.96529 9.50573 2.13407 9.33695C2.30286 9.16816 2.39768 8.93924 2.39768 8.70054V7.70093C2.39768 7.09082 2.64004 6.5057 3.07146 6.07428C3.50287 5.64287 4.08799 5.4005 4.69811 5.4005H14.0654L11.7122 7.41653C11.5308 7.57184 11.4185 7.79286 11.4 8.03096C11.3816 8.26906 11.4585 8.50473 11.6138 8.68614C11.7691 8.86755 11.9901 8.97984 12.2282 8.99829C12.4663 9.01674 12.702 8.93986 12.8834 8.78455L17.0835 5.1845C17.1823 5.10001 17.2616 4.99511 17.316 4.87704C17.3704 4.75896 17.3985 4.6305 17.3985 4.50049C17.3985 4.37049 17.3704 4.24203 17.316 4.12395C17.2616 4.00587 17.1823 3.90098 17.0835 3.81648L12.8834 0.21644Z" fill="white"/>
<path d="M6.3824 9.31578C6.53745 9.49708 6.61418 9.73251 6.59572 9.97035C6.57727 10.2082 6.46515 10.429 6.284 10.5842L3.93197 12.6014H13.2981C13.6002 12.6016 13.8994 12.5422 14.1786 12.4266C14.4578 12.3111 14.7114 12.1416 14.9251 11.928C15.1387 11.7143 15.3082 11.4607 15.4237 11.1815C15.5393 10.9023 15.5987 10.6031 15.5985 10.301V9.30138C15.5985 9.06268 15.6933 8.83376 15.8621 8.66497C16.0309 8.49619 16.2598 8.40137 16.4985 8.40137C16.7372 8.40137 16.9661 8.49619 17.1349 8.66497C17.3037 8.83376 17.3985 9.06268 17.3985 9.30138V10.301C17.3985 11.3885 16.9665 12.4315 16.1975 13.2004C15.4286 13.9694 14.3856 14.4014 13.2981 14.4014H3.93077L6.284 16.4175C6.37382 16.4944 6.44762 16.5882 6.50118 16.6936C6.55474 16.7991 6.587 16.914 6.59614 17.0319C6.60528 17.1498 6.59111 17.2683 6.55443 17.3807C6.51776 17.4932 6.4593 17.5973 6.3824 17.6871C6.30549 17.7769 6.21165 17.8507 6.10623 17.9043C6.0008 17.9578 5.88586 17.9901 5.76797 17.9992C5.65007 18.0084 5.53153 17.9942 5.41912 17.9575C5.3067 17.9208 5.20261 17.8624 5.11278 17.7855L0.912729 14.1854C0.813927 14.1009 0.734601 13.9961 0.680211 13.878C0.62582 13.7599 0.597656 13.6314 0.597656 13.5014C0.597656 13.3714 0.62582 13.243 0.680211 13.1249C0.734601 13.0068 0.813927 12.9019 0.912729 12.8174L5.11278 9.21738C5.29408 9.06233 5.52951 8.9856 5.76736 9.00405C6.0052 9.0225 6.22598 9.13462 6.3812 9.31578H6.3824Z" fill="white"/>
</svg>
