<svg width="24" height="25" viewBox="0 0 24 25" fill="none" xmlns="http://www.w3.org/2000/svg">
<path d="M13.5806 4.18125C13.116 2.60625 10.884 2.60625 10.4194 4.18125L10.3069 4.56375C10.2375 4.79954 10.1161 5.01681 9.95182 5.19961C9.7875 5.38242 9.58434 5.52613 9.35726 5.6202C9.13017 5.71427 8.88491 5.75632 8.63945 5.74326C8.394 5.73021 8.15458 5.66238 7.93875 5.54475L7.59 5.3535C6.14662 4.56825 4.56825 6.14663 5.35462 7.58887L5.54475 7.93875C6.0465 8.86125 5.57062 10.0099 4.56375 10.3069L4.18125 10.4194C2.60625 10.884 2.60625 13.116 4.18125 13.5806L4.56375 13.6931C4.79954 13.7625 5.01681 13.8839 5.19961 14.0482C5.38242 14.2125 5.52613 14.4157 5.6202 14.6427C5.71427 14.8698 5.75632 15.1151 5.74326 15.3605C5.73021 15.606 5.66238 15.8454 5.54475 16.0612L5.3535 16.41C4.56825 17.8534 6.14663 19.4317 7.58887 18.6454L7.93875 18.4552C8.15458 18.3376 8.394 18.2698 8.63945 18.2567C8.88491 18.2437 9.13017 18.2857 9.35726 18.3798C9.58434 18.4739 9.7875 18.6176 9.95182 18.8004C10.1161 18.9832 10.2375 19.2005 10.3069 19.4362L10.4194 19.8187C10.884 21.3937 13.116 21.3937 13.5806 19.8187L13.6931 19.4362C13.7625 19.2005 13.8839 18.9832 14.0482 18.8004C14.2125 18.6176 14.4157 18.4739 14.6427 18.3798C14.8698 18.2857 15.1151 18.2437 15.3605 18.2567C15.606 18.2698 15.8454 18.3376 16.0612 18.4552L16.41 18.6465C17.8534 19.4318 19.4317 17.8534 18.6454 16.4111L18.4552 16.0612C18.3376 15.8454 18.2698 15.606 18.2567 15.3605C18.2437 15.1151 18.2857 14.8698 18.3798 14.6427C18.4739 14.4157 18.6176 14.2125 18.8004 14.0482C18.9832 13.8839 19.2005 13.7625 19.4362 13.6931L19.8187 13.5806C21.3937 13.116 21.3937 10.884 19.8187 10.4194L19.4362 10.3069C19.2005 10.2375 18.9832 10.1161 18.8004 9.95182C18.6176 9.7875 18.4739 9.58434 18.3798 9.35726C18.2857 9.13017 18.2437 8.88491 18.2567 8.63945C18.2698 8.394 18.3376 8.15458 18.4552 7.93875L18.6465 7.59C19.4318 6.14662 17.8534 4.56825 16.4111 5.35462L16.0612 5.54475C15.8454 5.66238 15.606 5.73021 15.3605 5.74326C15.1151 5.75632 14.8698 5.71427 14.6427 5.6202C14.4157 5.52613 14.2125 5.38242 14.0482 5.19961C13.8839 5.01681 13.7625 4.79954 13.6931 4.56375L13.5806 4.18125ZM12 15.2963C11.1258 15.2963 10.2874 14.949 9.6692 14.3308C9.05103 13.7126 8.70375 12.8742 8.70375 12C8.70375 11.1258 9.05103 10.2874 9.6692 9.6692C10.2874 9.05103 11.1258 8.70375 12 8.70375C12.8739 8.70375 13.712 9.05091 14.33 9.66887C14.948 10.2868 15.2951 11.125 15.2951 11.9989C15.2951 12.8728 14.948 13.7109 14.33 14.3289C13.712 14.9468 12.8739 15.294 12 15.294V15.2963Z" fill="white"/>
</svg>
