<svg width="18" height="14" viewBox="0 0 18 14" fill="none" xmlns="http://www.w3.org/2000/svg">
<path id="Vector" d="M3.15576 3.28125L1.03076 3.28125C0.889865 3.28125 0.754739 3.22528 0.65511 3.12565C0.555482 3.02602 0.499511 2.8909 0.499511 2.75L0.499511 0.625C0.499511 0.484104 0.555481 0.348978 0.65511 0.24935C0.754739 0.14972 0.889864 0.09375 1.03076 0.09375L3.15576 0.0937498C3.29666 0.0937498 3.43178 0.14972 3.53141 0.249349C3.63104 0.348978 3.68701 0.484104 3.68701 0.625L3.68701 2.75C3.68701 2.8909 3.63104 3.02602 3.53141 3.12565C3.43178 3.22528 3.29666 3.28125 3.15576 3.28125ZM3.15576 13.9062L1.03076 13.9062C0.889865 13.9062 0.75474 13.8503 0.655111 13.7507C0.555483 13.651 0.499512 13.5159 0.499512 13.375L0.499511 11.25C0.499511 11.1091 0.555482 10.974 0.655111 10.8743C0.75474 10.7747 0.889865 10.7187 1.03076 10.7187L3.15576 10.7187C3.29666 10.7187 3.43178 10.7747 3.53141 10.8743C3.63104 10.974 3.68701 11.1091 3.68701 11.25L3.68701 13.375C3.68701 13.5159 3.63104 13.651 3.53141 13.7507C3.43178 13.8503 3.29666 13.9062 3.15576 13.9062ZM3.15576 8.59375L1.03076 8.59375C0.889865 8.59375 0.754739 8.53778 0.655111 8.43815C0.555482 8.33852 0.499511 8.2034 0.499511 8.0625L0.499511 5.9375C0.499511 5.7966 0.555482 5.66148 0.655111 5.56185C0.754739 5.46222 0.889865 5.40625 1.03076 5.40625L3.15576 5.40625C3.29666 5.40625 3.43178 5.46222 3.53141 5.56185C3.63104 5.66148 3.68701 5.7966 3.68701 5.9375L3.68701 8.0625C3.68701 8.2034 3.63104 8.33852 3.53141 8.43815C3.43178 8.53778 3.29666 8.59375 3.15576 8.59375ZM16.9683 2.75L6.34326 2.75C6.20236 2.75 6.06724 2.69403 5.96761 2.5944C5.86798 2.49477 5.81201 2.35965 5.81201 2.21875L5.81201 1.15625C5.81201 1.01535 5.86798 0.880228 5.96761 0.780599C6.06724 0.68097 6.20236 0.624999 6.34326 0.624999L16.9683 0.624999C17.1092 0.624999 17.2443 0.680969 17.3439 0.780598C17.4435 0.880227 17.4995 1.01535 17.4995 1.15625L17.4995 2.21875C17.4995 2.35964 17.4435 2.49477 17.3439 2.5944C17.2443 2.69403 17.1092 2.75 16.9683 2.75ZM16.9683 13.375L6.34326 13.375C6.20237 13.375 6.06724 13.319 5.96761 13.2194C5.86798 13.1198 5.81201 12.9846 5.81201 12.8437L5.81201 11.7812C5.81201 11.6404 5.86798 11.5052 5.96761 11.4056C6.06724 11.306 6.20237 11.25 6.34326 11.25L16.9683 11.25C17.1092 11.25 17.2443 11.306 17.3439 11.4056C17.4435 11.5052 17.4995 11.6404 17.4995 11.7812L17.4995 12.8437C17.4995 12.9846 17.4435 13.1198 17.3439 13.2194C17.2443 13.319 17.1092 13.375 16.9683 13.375ZM16.9683 8.0625L6.34326 8.0625C6.20236 8.0625 6.06724 8.00653 5.96761 7.9069C5.86798 7.80727 5.81201 7.67215 5.81201 7.53125L5.81201 6.46875C5.81201 6.32785 5.86798 6.19273 5.96761 6.0931C6.06724 5.99347 6.20236 5.9375 6.34326 5.9375L16.9683 5.9375C17.1092 5.9375 17.2443 5.99347 17.3439 6.0931C17.4435 6.19273 17.4995 6.32785 17.4995 6.46875L17.4995 7.53125C17.4995 7.67214 17.4435 7.80727 17.3439 7.9069C17.2443 8.00653 17.1092 8.0625 16.9683 8.0625Z" fill="#828282"/>
</svg>
