<svg width="24" height="24" viewBox="0 0 24 24" fill="none" xmlns="http://www.w3.org/2000/svg">
<path d="M4.00195 16.0005L9.61395 16.0005L8.49095 19.3675C8.28895 19.9755 8.39095 20.6495 8.76595 21.1695C9.14095 21.6895 9.74895 22.0005 10.39 22.0005L12.002 22.0005C12.299 22.0005 12.58 21.8685 12.771 21.6405L17.471 16.0005L20.002 16.0005C21.105 16.0005 22.002 15.1035 22.002 14.0005L22.002 5.00049C22.002 3.89749 21.105 3.00049 20.002 3.00049L6.69496 3.00049C6.28807 3.00184 5.89117 3.12665 5.55674 3.35841C5.2223 3.59017 4.96608 3.91798 4.82195 4.29849L2.06495 11.6495C2.02309 11.7618 2.00175 11.8807 2.00195 12.0005L2.00195 14.0005C2.00195 15.1035 2.89895 16.0005 4.00195 16.0005ZM20.002 14.0005L18.002 14.0005L18.002 5.00049L20.002 5.00049L20.002 14.0005ZM4.00195 12.1815L6.69496 5.00049L16.002 5.00049L16.002 14.6385L11.534 20.0005L10.388 20.0005L11.95 15.3175C12.0007 15.1672 12.0148 15.0069 11.9912 14.8501C11.9676 14.6932 11.907 14.5442 11.8143 14.4154C11.7216 14.2867 11.5996 14.1819 11.4583 14.1097C11.317 14.0376 11.1606 14.0001 11.002 14.0005L4.00195 14.0005L4.00195 12.1815Z" fill="white"/>
</svg>
