<svg width="26" height="26" viewBox="0 0 26 26" fill="none" xmlns="http://www.w3.org/2000/svg">
<path fill-rule="evenodd" clip-rule="evenodd" d="M6.5 13C9.64112 13 12.1875 10.4536 12.1875 7.3125C12.1875 4.17138 9.64112 1.625 6.5 1.625C3.35888 1.625 0.8125 4.17138 0.8125 7.3125C0.8125 10.4536 3.35888 13 6.5 13ZM4.74763 9.99903C4.84327 10.1038 4.95803 10.1562 5.09191 10.1562C5.15886 10.1562 5.22389 10.1439 5.287 10.1193C5.35204 10.0967 5.42472 10.0607 5.50505 10.0114L8.94784 7.86584C9.07982 7.78363 9.17832 7.7004 9.24335 7.61614C9.3103 7.53188 9.34377 7.43015 9.34377 7.31096C9.34377 7.19176 9.3103 7.09003 9.24335 7.00578C9.17832 6.92152 9.07982 6.83828 8.94784 6.75608L5.50505 4.61055C5.42472 4.56123 5.35204 4.52527 5.287 4.50266C5.22389 4.48005 5.15886 4.46875 5.09191 4.46875C4.95803 4.46875 4.84327 4.52116 4.74763 4.62597C4.652 4.72872 4.60418 4.87258 4.60418 5.05754V9.56438C4.60418 9.74934 4.652 9.89422 4.74763 9.99903Z" fill="white"/>
<path fill-rule="evenodd" clip-rule="evenodd" d="M13.8024 7.6994C13.8091 7.57128 13.8125 7.44229 13.8125 7.3125C13.8125 6.754 13.7499 6.21012 13.6313 5.6875L22.5565 5.6875C23.1121 5.6875 23.5625 6.13788 23.5625 6.69345C23.5625 7.24902 23.1121 7.6994 22.5565 7.6994H13.8024ZM7.89346 14.4924C9.30967 14.2192 10.5803 13.5373 11.5779 12.5744H22.5565C23.1121 12.5744 23.5625 13.0248 23.5625 13.5804C23.5625 14.1359 23.1121 14.5863 22.5565 14.5863H8.31845C8.16658 14.5863 8.02256 14.5527 7.89346 14.4924ZM2.4375 20.4673C2.4375 19.9117 2.88788 19.4613 3.44345 19.4613H22.5565C23.1121 19.4613 23.5625 19.9117 23.5625 20.4673C23.5625 21.0228 23.1121 21.4732 22.5565 21.4732H3.44345C2.88788 21.4732 2.4375 21.0228 2.4375 20.4673Z" fill="#656565"/>
</svg>
