<svg width="96" height="86" viewBox="0 0 96 86" fill="none" xmlns="http://www.w3.org/2000/svg">
<g id="Frame 19988">
<path id="Vector" d="M53.9992 3.84042L94.7667 74.4494C95.3884 75.5261 95.7156 76.7474 95.7156 77.9907C95.7156 79.2339 95.3884 80.4553 94.7668 81.532C94.1452 82.6086 93.2511 83.5027 92.1744 84.1244C91.0978 84.746 89.8764 85.0733 88.6332 85.0733H7.09806C5.85482 85.0733 4.63349 84.746 3.55682 84.1244C2.48015 83.5027 1.58608 82.6086 0.964471 81.532C0.342862 80.4553 0.0156171 79.2339 0.015625 77.9907C0.0156329 76.7474 0.342894 75.5261 0.964516 74.4494L41.7321 3.84042C44.4565 -0.881326 51.27 -0.881326 53.9992 3.84042Z" fill="#FFC84B" fill-opacity="0.11"/>
<path id="Vector_2" d="M47.8663 26.7505C46.7098 26.7507 45.5935 27.1753 44.7293 27.9438C43.865 28.7123 43.3129 29.7712 43.1776 30.9198L43.1445 31.4723V50.3592C43.1459 51.5627 43.6067 52.7203 44.4329 53.5954C45.259 54.4705 46.3882 54.9971 47.5896 55.0676C48.791 55.1382 49.974 54.7473 50.8968 53.9749C51.8197 53.2024 52.4128 52.1067 52.555 50.9117L52.588 50.3592V31.4723C52.588 30.22 52.0906 29.019 51.2051 28.1335C50.3196 27.248 49.1186 26.7505 47.8663 26.7505ZM47.8663 59.8027C46.614 59.8027 45.413 60.3002 44.5275 61.1857C43.642 62.0712 43.1445 63.2722 43.1445 64.5245C43.1445 65.7768 43.642 66.9778 44.5275 67.8633C45.413 68.7488 46.614 69.2462 47.8663 69.2462C49.1186 69.2462 50.3196 68.7488 51.2051 67.8633C52.0906 66.9778 52.588 65.7768 52.588 64.5245C52.588 63.2722 52.0906 62.0712 51.2051 61.1857C50.3196 60.3002 49.1186 59.8027 47.8663 59.8027Z" fill="#FFC84B"/>
</g>
</svg>
