<svg width="8" height="14" viewBox="0 0 8 14" fill="none" xmlns="http://www.w3.org/2000/svg">
<path id="&#244;&#128;&#134;&#138;" d="M7.95312 6.91406C7.95312 7.04948 7.92708 7.17448 7.875 7.28906C7.82292 7.40365 7.74479 7.51302 7.64062 7.61719L1.55469 13.5703C1.38281 13.7474 1.16927 13.8359 0.914062 13.8359C0.747396 13.8359 0.59375 13.7943 0.453125 13.7109C0.3125 13.6328 0.200521 13.5234 0.117188 13.3828C0.0390625 13.2474 0 13.0964 0 12.9297C0 12.6797 0.09375 12.4583 0.28125 12.2656L5.76562 6.91406L0.28125 1.5625C0.09375 1.36979 0 1.15104 0 0.90625C0 0.734375 0.0390625 0.580729 0.117188 0.445312C0.200521 0.309896 0.3125 0.203125 0.453125 0.125C0.59375 0.0416667 0.747396 0 0.914062 0C1.16927 0 1.38281 0.0859375 1.55469 0.257812L7.64062 6.21094C7.74479 6.3151 7.82292 6.42448 7.875 6.53906C7.92708 6.65365 7.95312 6.77865 7.95312 6.91406Z" fill="#969696"/>
</svg>
