<svg width="24" height="24" viewBox="0 0 24 24" fill="none" xmlns="http://www.w3.org/2000/svg">
<path fill-rule="evenodd" clip-rule="evenodd" d="M16.1565 10.9253C16.2631 10.9931 16.3508 11.0866 16.4116 11.1972C16.4724 11.3079 16.5043 11.4321 16.5043 11.5583C16.5043 11.6846 16.4724 11.8088 16.4116 11.9195C16.3508 12.0301 16.2631 12.1236 16.1565 12.1913L10.152 16.0013C10.0384 16.0735 9.90748 16.1137 9.77297 16.1178C9.63846 16.1219 9.50532 16.0898 9.38751 16.0248C9.2697 15.9597 9.17156 15.8642 9.10338 15.7482C9.0352 15.6321 8.9995 15.4999 9.00001 15.3653V7.74984C9.00003 7.61552 9.03613 7.48368 9.10453 7.36808C9.17293 7.25248 9.27111 7.15738 9.38883 7.09269C9.50655 7.02801 9.63947 6.99613 9.77372 7.00038C9.90797 7.00462 10.0386 7.04484 10.152 7.11684L16.1565 10.9253Z" fill="white"/>
<path fill-rule="evenodd" clip-rule="evenodd" d="M16.7908 0.997792C14.6068 0.0468172 12.1892 -0.232665 9.84587 0.194935C7.50254 0.622535 5.33948 1.73787 3.63214 3.39891C1.9248 5.05995 0.75044 7.19154 0.258597 9.52224C-0.233246 11.8529 -0.0203151 14.2773 0.870276 16.4866C1.76087 18.6958 3.28882 20.5901 5.25957 21.9281C7.23031 23.2661 9.55467 23.9873 11.9367 23.9998C14.3187 24.0124 16.6505 23.3158 18.6353 21.9987C20.62 20.6816 22.1679 18.8035 23.0818 16.6038C23.1883 16.3298 23.1834 16.025 23.068 15.7546C22.9527 15.4842 22.7361 15.2697 22.4646 15.157C22.1931 15.0443 21.8883 15.0423 21.6154 15.1515C21.3424 15.2607 21.1231 15.4724 21.0043 15.7413C20.1674 17.7561 18.6789 19.432 16.777 20.5009C14.8751 21.5699 12.6696 21.97 10.5134 21.6373C8.35724 21.3047 6.37492 20.2584 4.88359 18.666C3.39227 17.0736 2.47813 15.027 2.2874 12.8537C2.09668 10.6803 2.64041 8.50578 3.83159 6.67796C5.02277 4.85014 6.79258 3.47465 8.85788 2.77154C10.9232 2.06842 13.1646 2.07832 15.2236 2.79964C17.2827 3.52096 19.0403 4.91203 20.2153 6.75029H17.6248C17.3264 6.75029 17.0402 6.86882 16.8293 7.0798C16.6183 7.29078 16.4998 7.57693 16.4998 7.87529C16.4998 8.17366 16.6183 8.45981 16.8293 8.67079C17.0402 8.88177 17.3264 9.00029 17.6248 9.00029H23.9998V2.62529C23.9998 2.32692 23.8812 2.04078 23.6702 1.8298C23.4593 1.61882 23.1731 1.50029 22.8748 1.50029C22.5764 1.50029 22.2902 1.61882 22.0793 1.8298C21.8683 2.04078 21.7498 2.32692 21.7498 2.62529V5.00429C20.488 3.24665 18.7746 1.86132 16.7908 0.997792Z" fill="white"/>
</svg>
