<svg width="24" height="24" viewBox="0 0 24 24" fill="none" xmlns="http://www.w3.org/2000/svg">
<path d="M12 17C11.7576 17 11.5317 16.954 11.3221 16.862C11.119 16.7761 10.9192 16.6381 10.7227 16.448L3.45197 9.5023C3.15066 9.22018 3 8.87672 3 8.47194C3 8.20822 3.07205 7.96289 3.21616 7.73597C3.35371 7.50905 3.54039 7.32812 3.7762 7.19319C4.01201 7.0644 4.27402 7 4.56223 7C4.99454 7 5.381 7.15639 5.72162 7.46918L12.0098 13.5317L18.2882 7.46918C18.6157 7.15639 18.9989 7 19.4378 7C19.726 7 19.988 7.0644 20.2238 7.19319C20.4596 7.32812 20.6463 7.50905 20.7838 7.73597C20.9279 7.96289 21 8.20822 21 8.47194C21 8.87672 20.8526 9.22018 20.5579 9.5023L13.2871 16.448C13.0906 16.6381 12.8876 16.7761 12.6779 16.862C12.4749 16.9479 12.2489 16.9939 12 17Z" fill="white"/>
</svg>
