<svg width="16" height="16" viewBox="0 0 16 16" fill="none" xmlns="http://www.w3.org/2000/svg">
<path id="Vector" d="M5.61368 8.71716L1.65929 8.71716C0.546838 8.71716 -0.000487698 9.27338 -0.000487798 10.4203L-0.000488134 14.3054C-0.000488234 15.4527 0.546838 16 1.65929 16L5.61368 16C6.7176 16 7.27382 15.4527 7.27382 14.3054L7.27382 10.4203C7.27382 9.27338 6.7176 8.71716 5.61368 8.71716ZM14.3397 8.71716L10.3764 8.71716C9.2729 8.71716 8.71667 9.27338 8.71667 10.4203L8.71667 14.3054C8.71667 15.4527 9.2729 16 10.3764 16L14.3397 16C15.4433 16 15.9995 15.4527 15.9995 14.3054L15.9995 10.4203C15.9995 9.27339 15.4433 8.71716 14.3397 8.71716ZM14.3397 -1.46341e-07L10.3764 -4.9578e-07C9.2729 -5.9308e-07 8.71667 0.547324 8.71667 1.69463L8.71667 5.58821C8.71667 6.72661 9.2729 7.28284 10.3764 7.28284L14.3397 7.28284C15.4433 7.28284 15.9995 6.72661 15.9995 5.58821L15.9995 1.69463C15.9995 0.547325 15.4433 -4.90419e-08 14.3397 -1.46341e-07ZM5.61368 -9.15709e-07L1.65929 -1.26436e-06C0.546839 -1.36245e-06 -0.000486942 0.547324 -0.000487041 1.69463L-0.000487379 5.58821C-0.000487477 6.72661 0.546839 7.28284 1.65929 7.28284L5.61368 7.28284C6.7176 7.28284 7.27382 6.72661 7.27382 5.58821L7.27382 1.69463C7.27383 0.547324 6.7176 -8.18378e-07 5.61368 -9.15709e-07Z" fill="#828282"/>
</svg>
