<svg width="32" height="32" viewBox="0 0 32 32" fill="none" xmlns="http://www.w3.org/2000/svg">
<path fill-rule="evenodd" clip-rule="evenodd" d="M6.00001 6.375C6.00001 5.61463 6.63621 5 7.42285 5H13.1142C13.9009 5 14.537 5.61463 14.537 6.375V25.625C14.537 26.3854 13.9009 27 13.1142 27H7.42285C7.23532 26.9995 7.04973 26.9635 6.8767 26.894C6.70368 26.8246 6.5466 26.7232 6.41446 26.5955C6.28232 26.4678 6.1777 26.3163 6.10659 26.1498C6.03547 25.9833 5.99926 25.805 6.00001 25.625V6.375ZM17.463 6.375C17.463 5.61463 18.0992 5 18.8858 5H24.5772C25.3638 5 26 5.61463 26 6.375V25.625C26 26.3854 25.3638 27 24.5772 27H18.8858C18.6983 26.9995 18.5127 26.9635 18.3397 26.894C18.1666 26.8246 18.0096 26.7232 17.8774 26.5955C17.7453 26.4678 17.6407 26.3163 17.5695 26.1498C17.4984 25.9833 17.4622 25.805 17.463 25.625V6.375Z" fill="white"/>
</svg>
