<svg width="32" height="33" viewBox="0 0 32 33" fill="none" xmlns="http://www.w3.org/2000/svg">
<g id="Frame 20159">
<path id="Vector" d="M31.3544 25.702L19.414 3.75813C18.6393 2.3205 17.4804 1.51587 16.2365 1.51587C14.9925 1.51587 13.8509 2.33625 13.062 3.77387L1.1516 25.7036C0.380038 27.1223 0.295008 28.5773 0.934304 29.6874C1.57202 30.8007 2.84904 31.4336 4.42838 31.4336H28.0792C29.6585 31.4336 30.9355 30.8007 31.5748 29.689C32.2125 28.5773 32.1275 27.1397 31.3544 25.7036V25.702ZM16.2538 8.37649C16.8758 8.37649 17.3796 8.88981 17.3796 9.52281V19.8885C17.3796 20.5215 16.8758 21.0349 16.2538 21.0349C16.1046 21.0336 15.957 21.003 15.8197 20.9447C15.6823 20.8864 15.5578 20.8016 15.4532 20.6951C15.3486 20.5886 15.2661 20.4626 15.2103 20.3242C15.1545 20.1858 15.1265 20.0378 15.1279 19.8885V9.52124C15.1279 8.90556 15.6318 8.37649 16.2538 8.37649ZM16.2538 26.6799C15.2791 26.6799 14.506 25.8768 14.506 24.8848C14.506 23.8928 15.2964 23.0882 16.2538 23.0882C17.2285 23.0882 18.0016 23.8912 18.0016 24.8832C18.0016 25.8752 17.2111 26.6799 16.2538 26.6799Z" fill="#F97066"/>
</g>
</svg>
