<svg width="24" height="24" viewBox="0 0 24 24" fill="none" xmlns="http://www.w3.org/2000/svg">
<path fill-rule="evenodd" clip-rule="evenodd" d="M4.56545 5H18.6545C19.5155 5 20.22 5.70445 20.22 6.56545V17.5236C20.22 18.3846 19.5155 19.0891 18.6545 19.0891H13.1755V17.5236H18.6545V6.56545H4.56545V8.91364H3V6.56545C3 5.70445 3.70445 5 4.56545 5ZM3.0002 19.0892V16.741C4.29953 16.741 5.34838 17.7898 5.34838 19.0892H3.0002ZM3.0002 13.6099V15.1754C5.16053 15.1754 6.91384 16.9287 6.91384 19.089H8.47929C8.47929 16.0598 6.02936 13.6099 3.0002 13.6099ZM3.0002 12.0447V10.4793C7.75136 10.4793 11.6102 14.3303 11.6102 19.0893H10.0447C10.0447 15.1991 6.89036 12.0447 3.0002 12.0447Z" fill="white"/>
</svg>
