<svg width="64" height="64" viewBox="0 0 64 64" fill="none" xmlns="http://www.w3.org/2000/svg">
<path d="M6.3999 6.4C6.3999 2.86538 9.26528 0 12.7999 0H38.3999L57.5999 19.2V57.6C57.5999 61.1346 54.7345 64 51.1999 64H12.7999C9.26529 64 6.3999 61.1346 6.3999 57.6V6.4Z" fill="url(#paint0_linear_3718_12052)"/>
<path d="M38.3999 0L57.5999 19.2H44.7999C41.2653 19.2 38.3999 16.3346 38.3999 12.8V0Z" fill="#E4E7EC" fill-opacity="0.2"/>
<path d="M21.3156 50.7998V49.4856L26.5417 42.1526H21.3054V40.3271H29.3236V41.6413L24.0923 48.9742H29.3338V50.7998H21.3156ZM33.247 40.3271V50.7998H31.0328V40.3271H33.247ZM35.0687 50.7998V40.3271H39.2005C39.9949 40.3271 40.6716 40.4788 41.2307 40.7822C41.7897 41.0822 42.2159 41.4998 42.5091 42.035C42.8057 42.5668 42.954 43.1805 42.954 43.8759C42.954 44.5714 42.804 45.185 42.504 45.7168C42.204 46.2487 41.7693 46.6629 41.2 46.9595C40.6341 47.2561 39.9488 47.4043 39.1443 47.4043H36.5108V45.6299H38.7863C39.2125 45.6299 39.5636 45.5566 39.8397 45.41C40.1193 45.26 40.3272 45.0538 40.4636 44.7913C40.6034 44.5254 40.6733 44.2203 40.6733 43.8759C40.6733 43.5282 40.6034 43.2248 40.4636 42.9657C40.3272 42.7032 40.1193 42.5004 39.8397 42.3572C39.5602 42.2106 39.2057 42.1373 38.7761 42.1373H37.2829V50.7998H35.0687Z" fill="white"/>
<defs>
<linearGradient id="paint0_linear_3718_12052" x1="14.3999" y1="3.6" x2="45.1999" y2="64.4" gradientUnits="userSpaceOnUse">
<stop stop-color="#393939"/>
<stop offset="1" stop-color="#2E2E2E"/>
</linearGradient>
</defs>
</svg>
