<svg width="32" height="32" viewBox="0 0 32 32" fill="none" xmlns="http://www.w3.org/2000/svg">
<path d="M4.92285 16.2549C4.92285 15.0231 5.12337 13.8486 5.52441 12.7314C5.92546 11.6143 6.48405 10.5973 7.2002 9.68066C7.9235 8.75683 8.76855 7.97265 9.73535 7.32812C9.92155 7.19922 10.1113 7.15267 10.3047 7.18847C10.498 7.22428 10.6449 7.32454 10.7451 7.48926C10.8454 7.65397 10.8704 7.82584 10.8203 8.00488C10.7773 8.18392 10.6699 8.33789 10.498 8.46679C9.66016 9.01823 8.92611 9.69498 8.2959 10.4971C7.67285 11.292 7.18587 12.18 6.83496 13.1611C6.48405 14.1351 6.30859 15.1663 6.30859 16.2549C6.30859 17.5511 6.5485 18.7686 7.02832 19.9072C7.5153 21.0459 8.18848 22.0449 9.04785 22.9043C9.90723 23.7565 10.9027 24.4261 12.0342 24.9131C13.1729 25.4001 14.3939 25.6436 15.6973 25.6436C16.9935 25.6436 18.2074 25.4001 19.3389 24.9131C20.4775 24.4261 21.4766 23.7565 22.3359 22.9043C23.1953 22.0449 23.8649 21.0459 24.3447 19.9072C24.8317 18.7686 25.0752 17.5511 25.0752 16.2549C25.0752 15.1234 24.889 14.0563 24.5166 13.0537C24.1514 12.0439 23.6322 11.1309 22.959 10.3145C22.293 9.49804 21.5088 8.81413 20.6064 8.26269C19.7113 7.7041 18.7337 7.31022 17.6738 7.08105V8.84277C17.6738 9.15788 17.5807 9.35482 17.3945 9.43359C17.2083 9.51237 16.9899 9.46224 16.7393 9.2832L13.4092 6.9414C13.1943 6.79101 13.0869 6.62272 13.0869 6.43652C13.0869 6.24316 13.1943 6.07487 13.4092 5.93164L16.75 3.58984C17.0007 3.41797 17.2155 3.37142 17.3945 3.45019C17.5807 3.52897 17.6738 3.72591 17.6738 4.04101V5.66308C18.9128 5.90657 20.0658 6.347 21.1328 6.98437C22.1999 7.61458 23.1309 8.40592 23.9258 9.3584C24.7279 10.3037 25.3509 11.3636 25.7949 12.5381C26.2461 13.7126 26.4717 14.9515 26.4717 16.2549C26.4717 17.7301 26.1888 19.1195 25.623 20.4228C25.0573 21.7191 24.2803 22.8613 23.292 23.8496C22.3037 24.8379 21.1579 25.6149 19.8545 26.1807C18.5583 26.7464 17.1725 27.0293 15.6973 27.0293C14.222 27.0293 12.8327 26.7464 11.5293 26.1807C10.2331 25.6149 9.08724 24.8379 8.0918 23.8496C7.10352 22.8613 6.3265 21.7191 5.76074 20.4228C5.20215 19.1195 4.92285 17.7301 4.92285 16.2549ZM13.0225 20.6162C12.8363 20.6162 12.6895 20.5589 12.582 20.4443C12.4818 20.3226 12.4316 20.165 12.4316 19.9717V13.4619H12.4102L11.1641 14.3965C11.1068 14.4323 11.0531 14.4609 11.0029 14.4824C10.9528 14.4967 10.8955 14.5039 10.8311 14.5039C10.7093 14.5039 10.6055 14.4609 10.5195 14.375C10.4408 14.2891 10.4014 14.1816 10.4014 14.0527C10.4014 13.8665 10.4945 13.7054 10.6807 13.5693L12.0986 12.5381C12.2347 12.4378 12.3672 12.3555 12.4961 12.291C12.625 12.2194 12.7718 12.1836 12.9365 12.1836C13.1442 12.1836 13.3089 12.2409 13.4307 12.3555C13.5524 12.47 13.6133 12.6312 13.6133 12.8389V19.9717C13.6133 20.1579 13.5596 20.3118 13.4521 20.4336C13.3519 20.5553 13.2087 20.6162 13.0225 20.6162ZM18.2861 20.6699C17.5915 20.6699 17.04 20.4587 16.6318 20.0361C16.2236 19.6136 15.93 19.0765 15.751 18.4248C15.5791 17.7659 15.4932 17.0892 15.4932 16.3945C15.4932 15.8789 15.5397 15.3704 15.6328 14.8691C15.7259 14.3607 15.8799 13.8988 16.0947 13.4834C16.3096 13.068 16.596 12.7386 16.9541 12.4951C17.3122 12.2445 17.7562 12.1191 18.2861 12.1191C18.9736 12.1191 19.5215 12.3304 19.9297 12.7529C20.3379 13.1755 20.6315 13.7126 20.8105 14.3643C20.9896 15.0159 21.0791 15.6927 21.0791 16.3945C21.0791 16.903 21.029 17.4115 20.9287 17.9199C20.8356 18.4284 20.6816 18.8903 20.4668 19.3057C20.252 19.721 19.9655 20.054 19.6074 20.3047C19.2493 20.5482 18.8089 20.6699 18.2861 20.6699ZM18.2861 19.6816C18.6657 19.6816 18.9736 19.5277 19.21 19.2197C19.4463 18.9046 19.6146 18.4964 19.7148 17.9951C19.8223 17.4938 19.876 16.9603 19.876 16.3945C19.876 15.8216 19.8223 15.2881 19.7148 14.7939C19.6074 14.2926 19.4355 13.888 19.1992 13.5801C18.9701 13.265 18.6657 13.1074 18.2861 13.1074C17.9066 13.1074 17.5986 13.2614 17.3623 13.5693C17.1331 13.8773 16.9648 14.2819 16.8574 14.7832C16.75 15.2845 16.6963 15.8216 16.6963 16.3945C16.6963 16.9603 16.75 17.4938 16.8574 17.9951C16.9648 18.4964 17.1331 18.9046 17.3623 19.2197C17.5986 19.5277 17.9066 19.6816 18.2861 19.6816Z" fill="white"/>
</svg>
