<svg width="24" height="24" viewBox="0 0 24 24" fill="none" xmlns="http://www.w3.org/2000/svg">
<path d="M6.26241 20C5.89648 20 5.59459 19.8658 5.35674 19.5975C5.11889 19.3291 4.99997 18.9693 4.99997 18.518V5.47284C4.99997 5.02154 5.11889 4.66476 5.35674 4.40252C5.59459 4.13417 5.89648 4 6.26241 4C6.45756 4 6.64358 4.03354 6.82044 4.10063C7.0034 4.16771 7.19856 4.2592 7.40592 4.37507L18.1915 10.6232C18.5879 10.8489 18.8715 11.0623 19.0423 11.2636C19.213 11.4648 19.2984 11.7088 19.2984 11.9954C19.2984 12.2821 19.213 12.526 19.0423 12.7273C18.8715 12.9285 18.5879 13.145 18.1915 13.3768L7.40592 19.6158C7.19856 19.7378 7.0034 19.8323 6.82044 19.8994C6.64358 19.9665 6.45756 20 6.26241 20Z" fill="white"/>
</svg>
