<svg width="32" height="32" viewBox="0 0 32 32" fill="none" xmlns="http://www.w3.org/2000/svg">
<path fill-rule="evenodd" clip-rule="evenodd" d="M18.9369 13.6896H22.8492C23.1614 13.7008 23.4664 13.7869 23.7386 13.9409C24.0109 14.0948 24.2425 14.3121 24.4141 14.5745C24.5992 14.8249 24.7223 15.1161 24.7733 15.4238C24.8244 15.7316 24.8018 16.0471 24.7076 16.3443L22.3602 23.4237C22.0667 24.3086 21.8711 24.8002 20.5018 24.8002C18.5457 24.8002 16.3939 24.1119 14.5355 23.522L13.0684 23.1287V13.4929C14.6282 11.8449 16.0055 10.0317 17.1764 8.08511C17.2742 7.69182 17.6654 7.39684 18.0566 7.2002H19.2303C19.6215 7.29852 19.915 7.59349 20.2084 7.88846L20.404 9.16668L18.9369 13.6896ZM8.37365 13.9846H11.1123V21.8505C11.1123 22.372 10.9062 22.8722 10.5393 23.241C10.1725 23.6098 9.67491 23.817 9.15611 23.817C8.6373 23.817 8.13975 23.6098 7.7729 23.241C7.40605 22.8722 7.19995 22.372 7.19995 21.8505V15.1644C7.19995 14.4762 7.68899 13.9846 8.37365 13.9846Z" stroke="white" stroke-width="1.5"/>
</svg>
