<svg width="63" height="53" viewBox="0 0 63 53" fill="none" xmlns="http://www.w3.org/2000/svg">
<path d="M5.25921 44.8109H48.7408C52.2402 44.8109 54 43.116 54 39.4994V15.8115C54 12.1948 52.2402 10.5 48.7408 10.5H5.25921C1.75886 10.499 0 12.1939 0 15.8115V39.4994C0 43.116 1.75982 44.8109 5.25921 44.8109ZM5.31996 41.4835C3.9285 41.4835 3.29496 40.9049 3.29496 39.4575V15.8738C3.29496 14.4059 3.9285 13.8283 5.31996 13.8283H48.68C50.0918 13.8283 50.705 14.4059 50.705 15.8738V39.4575C50.705 40.9049 50.0918 41.4835 48.68 41.4835H5.31996ZM41.8857 50.5568C41.8857 49.4824 41.0275 48.6145 39.9831 48.6145H13.9764C12.932 48.6145 12.0931 49.4814 12.0931 50.5568C12.0931 51.6321 12.932 52.5 13.9754 52.5H39.9822C40.4894 52.4964 40.9746 52.2899 41.3314 51.9256C41.6882 51.5614 41.8875 51.0692 41.8857 50.5568Z" fill="#D9D9D9"/>
<circle cx="51" cy="12.5" r="12" fill="#D9D9D9"/>
<g clip-path="url(#clip0_1066_61984)">
<g clip-path="url(#clip1_1066_61984)">
<path fill-rule="evenodd" clip-rule="evenodd" d="M51 24.5C54.1826 24.5 57.2348 23.2357 59.4853 20.9853C61.7357 18.7348 63 15.6826 63 12.5C63 9.3174 61.7357 6.26516 59.4853 4.01472C57.2348 1.76428 54.1826 0.5 51 0.5C47.8174 0.5 44.7652 1.76428 42.5147 4.01472C40.2643 6.26516 39 9.3174 39 12.5C39 15.6826 40.2643 18.7348 42.5147 20.9853C44.7652 23.2357 47.8174 24.5 51 24.5ZM45.33 6.83C45.5409 6.61932 45.8269 6.50099 46.125 6.50099C46.4231 6.50099 46.7091 6.61932 46.92 6.83L51 10.91L55.08 6.83C55.183 6.71947 55.3072 6.63082 55.4452 6.56933C55.5832 6.50784 55.7322 6.47478 55.8832 6.47211C56.0343 6.46945 56.1843 6.49723 56.3244 6.55382C56.4645 6.6104 56.5917 6.69461 56.6986 6.80144C56.8054 6.90827 56.8896 7.03552 56.9462 7.1756C57.0028 7.31569 57.0306 7.46573 57.0279 7.61678C57.0252 7.76784 56.9922 7.91681 56.9307 8.05481C56.8692 8.19281 56.7805 8.31701 56.67 8.42L52.59 12.5L56.67 16.58C56.7805 16.683 56.8692 16.8072 56.9307 16.9452C56.9922 17.0832 57.0252 17.2322 57.0279 17.3832C57.0306 17.5343 57.0028 17.6843 56.9462 17.8244C56.8896 17.9645 56.8054 18.0917 56.6986 18.1986C56.5917 18.3054 56.4645 18.3896 56.3244 18.4462C56.1843 18.5028 56.0343 18.5306 55.8832 18.5279C55.7322 18.5252 55.5832 18.4922 55.4452 18.4307C55.3072 18.3692 55.183 18.2805 55.08 18.17L51 14.09L46.92 18.17C46.7067 18.3687 46.4247 18.4769 46.1332 18.4718C45.8418 18.4666 45.5637 18.3486 45.3576 18.1424C45.1514 17.9363 45.0334 17.6582 45.0282 17.3668C45.0231 17.0753 45.1313 16.7933 45.33 16.58L49.41 12.5L45.33 8.42C45.1193 8.20906 45.001 7.92313 45.001 7.625C45.001 7.32687 45.1193 7.04094 45.33 6.83Z" fill="#FF5252"/>
</g>
</g>
<defs>
<clipPath id="clip0_1066_61984">
<rect width="24" height="24" fill="white" transform="translate(39 0.5)"/>
</clipPath>
<clipPath id="clip1_1066_61984">
<rect width="24" height="24" fill="white" transform="translate(39 0.5)"/>
</clipPath>
</defs>
</svg>
