<svg width="20" height="24" viewBox="0 0 20 24" fill="none" xmlns="http://www.w3.org/2000/svg">
<path id="Vector" d="M10 23.3076C11.5768 23.3076 12.8558 22.0206 12.8558 20.4326H7.14421C7.14421 22.0206 8.42322 23.3076 10 23.3076ZM19.6156 16.5824C18.7531 15.6498 17.1393 14.2469 17.1393 9.65137C17.1393 6.16094 14.7071 3.3668 11.4277 2.68129V1.74512C11.4277 0.951348 10.7884 0.307617 10 0.307617C9.21161 0.307617 8.57233 0.951348 8.57233 1.74512V2.68129C5.29287 3.3668 2.86074 6.16094 2.86074 9.65137C2.86074 14.2469 1.2469 15.6498 0.384405 16.5824C0.116548 16.8721 -0.00220127 17.2185 3.08654e-05 17.5576C0.00494156 18.2943 0.579493 18.9951 1.43306 18.9951H18.5669C19.4205 18.9951 19.9955 18.2943 20 17.5576C20.0022 17.2185 19.8835 16.8717 19.6156 16.5824Z" fill="#D9D9D9"/>
</svg>
