<svg width="16" height="16" viewBox="0 0 16 16" fill="none" xmlns="http://www.w3.org/2000/svg">
<g clip-path="url(#clip0_1865_61902)">
<path d="M4.0061 7.07271C3.88951 7.2087 3.84932 7.31167 3.84258 7.38211C3.83593 7.45153 3.85682 7.5409 3.97915 7.66039L3.97917 7.66037L3.98166 7.66287L5.75119 9.4324L5.96333 9.64453L5.75119 9.85666L3.78244 11.8254L3.73237 11.8755L3.70329 11.8852L2.80987 13.4417L4.3525 12.5602L4.35669 12.535L4.42522 12.4669L6.39397 10.5099L6.6054 10.2997L6.8169 10.5098L8.59815 12.2794L8.59885 12.2801C8.71599 12.3972 8.80577 12.4184 8.87973 12.4106C8.95425 12.4028 9.0608 12.3603 9.2 12.243V10.2773V10.1564L9.28387 10.0693L12.3073 6.92866L12.5111 6.71702L12.7269 6.91628L12.8793 7.0569L12.8865 7.06358L12.8933 7.07072C12.9853 7.16756 13.0884 7.21172 13.2207 7.21172C13.3557 7.21172 13.4631 7.16733 13.5594 7.07107C13.6556 6.97481 13.7 6.86745 13.7 6.73242C13.7 6.59597 13.6563 6.48508 13.5624 6.38509L9.86522 2.69963C9.76515 2.60552 9.65417 2.56172 9.51758 2.56172C9.38007 2.56172 9.27185 2.606 9.17616 2.69924C9.08242 2.79057 9.03828 2.89445 9.03828 3.0293C9.03828 3.16207 9.083 3.27202 9.18479 3.37381L9.33713 3.52615L9.55374 3.74276L9.33266 3.95479L6.18032 6.97823L6.09397 7.06105L5.97433 7.06171L4.0061 7.07271Z" stroke="white" stroke-width="0.6"/>
</g>
<defs>
<clipPath id="clip0_1865_61902">
<rect width="12" height="12" fill="white" transform="matrix(-1 0 0 1 14 2.25781)"/>
</clipPath>
</defs>
</svg>
