<svg width="17" height="17" viewBox="0 0 17 17" fill="none" xmlns="http://www.w3.org/2000/svg">
<path d="M2.5 8.49651C2.5 7.91642 2.97552 7.44118 3.56294 7.44118H7.44406V3.56232C7.44406 2.98224 7.91259 2.5 8.5 2.5C9.08741 2.5 9.56294 2.98224 9.56294 3.56232V7.44118H13.4441C14.0245 7.44118 14.5 7.91642 14.5 8.49651C14.5 9.08358 14.0245 9.55882 13.4441 9.55882H9.56294V13.4377C9.56294 14.0178 9.08741 14.5 8.5 14.5C7.91259 14.5 7.44406 14.0178 7.44406 13.4377V9.55882H3.56294C2.97552 9.55882 2.5 9.08358 2.5 8.49651Z" fill="white"/>
</svg>
