<svg width="22" height="22" viewBox="0 0 20 20" fill="none" xmlns="http://www.w3.org/2000/svg">
<path d="M0 8.20486C0 7.07849 0.21322 6.01901 0.639659 5.0264C1.0661 4.03379 1.65956 3.16438 2.42004 2.41816C3.18053 1.66491 4.05828 1.07357 5.05331 0.644139C6.05544 0.214713 7.12864 0 8.27292 0C9.4172 0 10.4904 0.214713 11.4925 0.644139C12.4947 1.07357 13.3724 1.66491 14.1258 2.41816C14.8863 3.16438 15.4797 4.03379 15.9062 5.0264C16.3397 6.01901 16.5565 7.07849 16.5565 8.20486C16.5565 9.06371 16.425 9.88384 16.162 10.6653C15.9062 11.4467 15.5473 12.1647 15.0853 12.8194L19.5416 17.2439C19.6908 17.3988 19.8045 17.5748 19.8827 17.7719C19.9609 17.969 20 18.1732 20 18.3844C20 18.6871 19.9289 18.9581 19.7868 19.1975C19.6446 19.4439 19.4527 19.6375 19.2111 19.7782C18.9694 19.9261 18.6923 20 18.3795 20C18.1663 20 17.9566 19.9613 17.7505 19.8838C17.5515 19.8134 17.3738 19.7008 17.2175 19.5459L12.7186 15.0898C12.0789 15.5051 11.3859 15.8289 10.6397 16.0612C9.89339 16.2936 9.10448 16.4097 8.27292 16.4097C7.12864 16.4097 6.05544 16.1985 5.05331 15.7761C4.05828 15.3537 3.18053 14.7659 2.42004 14.0127C1.65956 13.2594 1.0661 12.3865 0.639659 11.3939C0.21322 10.4013 0 9.33826 0 8.20486ZM2.31343 8.20486C2.31343 9.02147 2.46624 9.78881 2.77186 10.5069C3.08458 11.2179 3.51457 11.8444 4.06183 12.3865C4.6091 12.9215 5.24165 13.3439 5.95949 13.6536C6.67733 13.9564 7.44847 14.1077 8.27292 14.1077C9.09737 14.1077 9.86852 13.9564 10.5864 13.6536C11.3042 13.3439 11.9367 12.9215 12.484 12.3865C13.0313 11.8444 13.4577 11.2179 13.7633 10.5069C14.076 9.78881 14.2324 9.02147 14.2324 8.20486C14.2324 7.38824 14.076 6.62443 13.7633 5.91341C13.4577 5.20239 13.0313 4.57585 12.484 4.03379C11.9367 3.49173 11.3042 3.06934 10.5864 2.76663C9.86852 2.46392 9.09737 2.31257 8.27292 2.31257C7.44847 2.31257 6.67733 2.46392 5.95949 2.76663C5.24165 3.06934 4.6091 3.49173 4.06183 4.03379C3.51457 4.57585 3.08458 5.20239 2.77186 5.91341C2.46624 6.62443 2.31343 7.38824 2.31343 8.20486Z" fill="white"/>
</svg>
