<svg width="19" height="15" viewBox="0 0 19 15" fill="none" xmlns="http://www.w3.org/2000/svg">
<path id="Vector" fill-rule="evenodd" clip-rule="evenodd" d="M2.84285 0.901367C2.08888 0.901367 1.36579 1.20088 0.832653 1.73402C0.299514 2.26716 0 2.99025 0 3.74422V11.3252C0 12.0791 0.299514 12.8022 0.832653 13.3354C1.36579 13.8685 2.08888 14.168 2.84285 14.168H12.319C13.073 14.168 13.7961 13.8685 14.3292 13.3354C14.8624 12.8022 15.1619 12.0791 15.1619 11.3252V9.82224L17.3348 11.9951C17.4673 12.1276 17.6361 12.2178 17.8199 12.2544C18.0037 12.2909 18.1942 12.2722 18.3674 12.2005C18.5405 12.1288 18.6885 12.0073 18.7926 11.8515C18.8967 11.6957 18.9523 11.5126 18.9524 11.3252V3.74422C18.9523 3.55683 18.8967 3.37366 18.7926 3.21786C18.6885 3.06206 18.5405 2.94063 18.3674 2.86893C18.1942 2.79722 18.0037 2.77846 17.8199 2.815C17.6361 2.85155 17.4673 2.94177 17.3348 3.07426L15.1619 5.24714V3.74422C15.1619 2.99025 14.8624 2.26716 14.3292 1.73402C13.7961 1.20088 13.073 0.901367 12.319 0.901367H2.84285Z" fill="#D9D9D9"/>
</svg>
