<svg width="159" height="57" viewBox="0 0 159 57" fill="none" xmlns="http://www.w3.org/2000/svg">
<path d="M28.3351 48.9866L54.8892 8.31543H1.78125L28.3351 48.9866Z" fill="url(#paint0_linear_124_12409)"/>
<path d="M8.08984 36.6599C9.17203 35.5056 11.8559 32.865 13.9336 31.5375C16.0114 30.2101 18.5029 26.4152 19.4889 24.6837C22.495 20.2588 29.2285 11.0193 32.1144 9.46096C32.6338 9.05694 33.389 8.42688 33.7016 8.16237C34.7838 5.75748 38.4632 1.66922 44.5234 4.55508C45.0429 4.3819 46.3271 4.33862 46.9043 4.33862C46.4473 4.65127 45.4902 5.56509 45.317 6.71945C44.8553 9.89383 43.1046 11.7456 42.2869 12.2747C41.7098 15.9541 40.9161 19.2007 39.1846 20.355L40.7719 23.1686C43.1527 25.6938 48.0875 31.148 48.7798 32.7641C46.4714 32.0137 44.9804 31.2971 44.5234 31.0326L48.7798 36.8763C46.279 36.684 40.6564 35.0583 38.1746 30.0947C39.1558 32.7496 40.1225 36.0587 40.4833 37.3814C39.1365 36.2751 36.2411 33.067 35.4331 29.0846C35.664 32.9516 35.6254 35.698 35.5773 36.5878C34.9281 35.9865 33.4274 34.1204 32.6194 31.4654V35.9384C31.6503 34.5911 29.7008 31.3203 29.5247 28.8522C29.6872 31.6497 29.5882 32.9611 29.5171 33.269L25.8377 29.8061C24.8517 30.3351 22.2016 31.5375 19.4889 32.1147C17.6419 33.6731 15.4006 37.5738 14.5108 39.3293V37.0928L12.0579 39.5457L12.9236 36.9485L11.3364 38.3193C10.9756 38.5357 10.1388 38.9686 9.67706 38.9686C9.85018 38.5646 10.1821 38.1269 10.3264 37.9585L8.23413 38.7521C8.47461 38.0547 9.22975 36.5156 10.3264 35.9384C8.82573 36.5156 8.21011 36.6599 8.08984 36.6599Z" fill="white"/>
<path d="M76.0104 28.0135H81.3408V34.3959C80.6862 35.0817 79.8523 35.6662 78.8392 36.1493C77.8417 36.6169 76.7117 36.8507 75.4493 36.8507C74.3271 36.8507 73.2672 36.6559 72.2697 36.2662C71.2722 35.861 70.3916 35.2999 69.6279 34.5829C68.8642 33.8504 68.2642 32.9854 67.8278 31.9879C67.3913 30.9904 67.1731 29.8838 67.1731 28.6681C67.1731 27.4524 67.3913 26.3458 67.8278 25.3483C68.2642 24.3508 68.8642 23.4935 69.6279 22.7766C70.3916 22.044 71.2722 21.4829 72.2697 21.0933C73.2672 20.6881 74.3271 20.4854 75.4493 20.4854C76.4312 20.4854 77.2806 20.6257 77.9976 20.9063C78.7145 21.1712 79.338 21.5375 79.8679 22.0051V25.2781C79.4938 24.9976 79.1042 24.7248 78.6989 24.4599C78.2937 24.1949 77.8339 23.9767 77.3196 23.8053C76.8208 23.6338 76.2286 23.5481 75.5428 23.5481C74.6076 23.5481 73.7582 23.7741 72.9945 24.2261C72.2308 24.6781 71.6229 25.2859 71.1709 26.0496C70.7189 26.8133 70.4929 27.6862 70.4929 28.6681C70.4929 29.6344 70.7189 30.5072 71.1709 31.2865C71.6229 32.0502 72.2308 32.6581 72.9945 33.1101C73.7582 33.5465 74.6076 33.7647 75.5428 33.7647C76.2597 33.7647 76.8364 33.6789 77.2728 33.5075C77.7092 33.3361 78.0521 33.149 78.3015 32.9464L78.3249 30.3513H76.0104V28.0135ZM91.8145 28.0135C91.3158 27.7329 90.7936 27.5926 90.2481 27.5926C89.5623 27.5926 88.9935 27.8186 88.5415 28.2706C88.0895 28.707 87.692 29.2525 87.3491 29.9071V36.5H84.38V24.6937H87.3491V26.9146C87.7544 26.2133 88.2297 25.6288 88.7753 25.1612C89.3363 24.6937 89.9676 24.4599 90.6689 24.4599C91.0898 24.4599 91.4716 24.53 91.8145 24.6703V28.0135ZM98.7814 24.3897C99.4204 24.3897 100.067 24.5378 100.722 24.8339C101.376 25.1301 101.922 25.5275 102.358 26.0262V24.6937H105.328V36.5H102.358V34.5128C102.016 35.1518 101.517 35.7051 100.862 36.1727C100.208 36.6247 99.4438 36.8507 98.571 36.8507C97.6203 36.8507 96.7397 36.6091 95.9292 36.1259C95.1343 35.6428 94.4953 34.9414 94.0121 34.0218C93.529 33.1023 93.2874 31.9879 93.2874 30.6787C93.2874 29.3694 93.529 28.2472 94.0121 27.3121C94.5109 26.3769 95.1733 25.66 95.9993 25.1612C96.841 24.6469 97.7683 24.3897 98.7814 24.3897ZM99.3893 27.2887C98.7658 27.2887 98.2281 27.4524 97.7761 27.7797C97.3397 28.0914 96.9968 28.5044 96.7475 29.0187C96.4981 29.5331 96.3734 30.0864 96.3734 30.6787C96.3734 31.5671 96.6384 32.323 97.1683 32.9464C97.7138 33.5698 98.4307 33.8816 99.3191 33.8816C99.8491 33.8816 100.34 33.7413 100.792 33.4607C101.26 33.1802 101.634 32.7905 101.914 32.2918C102.21 31.7775 102.358 31.1618 102.358 30.4449V28.7616C101.938 28.3096 101.478 27.9511 100.979 27.6862C100.496 27.4212 99.966 27.2887 99.3893 27.2887ZM110.845 24.6937L114.212 32.2217L117.485 24.6937H120.874L112.294 42.1109H108.928L112.481 35.635L107.385 24.6937H110.845ZM127.07 20.7894V35.5415C127.07 36.8663 126.821 37.9807 126.322 38.8846C125.839 39.8042 125.168 40.5523 124.311 41.129C123.454 41.7057 122.472 42.1499 121.365 42.4616L120.126 39.5393C122.589 38.8223 123.82 37.5365 123.82 35.6817V20.7894H127.07ZM135.79 24.3897C136.429 24.3897 137.076 24.5378 137.731 24.8339C138.385 25.1301 138.931 25.5275 139.367 26.0262V24.6937H142.336V36.5H139.367V34.5128C139.024 35.1518 138.526 35.7051 137.871 36.1727C137.216 36.6247 136.453 36.8507 135.58 36.8507C134.629 36.8507 133.748 36.6091 132.938 36.1259C132.143 35.6428 131.504 34.9414 131.021 34.0218C130.538 33.1023 130.296 31.9879 130.296 30.6787C130.296 29.3694 130.538 28.2472 131.021 27.3121C131.52 26.3769 132.182 25.66 133.008 25.1612C133.85 24.6469 134.777 24.3897 135.79 24.3897ZM136.398 27.2887C135.775 27.2887 135.237 27.4524 134.785 27.7797C134.349 28.0914 134.006 28.5044 133.756 29.0187C133.507 29.5331 133.382 30.0864 133.382 30.6787C133.382 31.5671 133.647 32.323 134.177 32.9464C134.723 33.5698 135.44 33.8816 136.328 33.8816C136.858 33.8816 137.349 33.7413 137.801 33.4607C138.268 33.1802 138.642 32.7905 138.923 32.2918C139.219 31.7775 139.367 31.1618 139.367 30.4449V28.7616C138.946 28.3096 138.487 27.9511 137.988 27.6862C137.505 27.4212 136.975 27.2887 136.398 27.2887ZM147.854 24.6937L151.22 32.2217L154.493 24.6937H157.883L149.303 42.1109H145.937L149.49 35.635L144.394 24.6937H147.854Z" fill="white"/>
<defs>
<linearGradient id="paint0_linear_124_12409" x1="28.3351" y1="48.9866" x2="28.3351" y2="-5.24163" gradientUnits="userSpaceOnUse">
<stop stop-color="#01D6E6"/>
<stop offset="1" stop-color="#0182E7"/>
</linearGradient>
</defs>
</svg>
