<svg width="307" height="131" viewBox="0 0 307 131" fill="none" xmlns="http://www.w3.org/2000/svg">
<mask id="mask0_3086_163020" style="mask-type:alpha" maskUnits="userSpaceOnUse" x="113" y="0" width="81" height="80">
<path fill-rule="evenodd" clip-rule="evenodd" d="M151.496 21.7308C152.325 21.7308 153.12 22.06 153.706 22.6461C154.292 23.2321 154.621 24.027 154.621 24.8558V41.2724L163.096 49.7474C163.403 50.0335 163.649 50.3785 163.82 50.7619C163.991 51.1452 164.083 51.559 164.09 51.9786C164.098 52.3982 164.02 52.815 163.863 53.2041C163.706 53.5932 163.472 53.9467 163.175 54.2434C162.879 54.5402 162.525 54.7741 162.136 54.9313C161.747 55.0885 161.33 55.1656 160.911 55.1582C160.491 55.1508 160.077 55.059 159.694 54.8882C159.311 54.7174 158.966 54.4711 158.679 54.1641L149.288 44.7724L148.371 43.8558V24.8558C148.371 24.027 148.7 23.2321 149.286 22.6461C149.872 22.06 150.667 21.7308 151.496 21.7308Z" fill="white"/>
<path fill-rule="evenodd" clip-rule="evenodd" d="M138.86 6.38142C145.534 3.47609 152.921 2.62242 160.081 3.92913C167.241 5.23584 173.85 8.64379 179.067 13.7191C184.284 18.7943 187.872 25.3073 189.375 32.4286C190.878 39.5499 190.228 46.9573 187.507 53.7078C184.786 60.4582 180.117 66.2461 174.096 70.3346C168.074 74.4231 160.972 76.6272 153.694 76.6661C146.415 76.7051 139.29 74.5772 133.225 70.5534C127.16 66.5295 122.43 60.7919 119.637 54.071C119.452 53.6521 119.352 53.2005 119.344 52.7426C119.336 52.2847 119.42 51.8298 119.59 51.4046C119.76 50.9794 120.013 50.5925 120.335 50.2666C120.657 49.9407 121.04 49.6823 121.463 49.5067C121.886 49.3311 122.34 49.2418 122.798 49.244C123.256 49.2463 123.709 49.34 124.13 49.5196C124.551 49.6993 124.933 49.9614 125.251 50.2904C125.57 50.6194 125.819 51.0087 125.985 51.4356C128.543 57.5915 133.091 62.7118 138.903 65.9773C144.715 69.2429 151.454 70.465 158.042 69.4482C164.63 68.4314 170.687 65.2344 175.244 60.3687C179.801 55.503 182.594 49.2496 183.176 42.609C183.759 35.9684 182.098 29.3243 178.458 23.7395C174.818 18.1546 169.411 13.9518 163.1 11.8033C156.789 9.65476 149.941 9.68472 143.649 11.8884C137.357 14.092 131.987 18.342 128.396 23.9585H136.312C137.224 23.9585 138.098 24.3207 138.743 24.9653C139.387 25.61 139.749 26.4843 139.749 27.396C139.749 28.3077 139.387 29.182 138.743 29.8267C138.098 30.4713 137.224 30.8335 136.312 30.8335H116.832V11.3543C116.832 10.4427 117.194 9.56831 117.839 8.92366C118.484 8.279 119.358 7.91683 120.27 7.91683C121.181 7.91683 122.056 8.279 122.7 8.92366C123.345 9.56831 123.707 10.4427 123.707 11.3543V18.6235C127.563 13.2529 132.798 9.01998 138.86 6.38142Z" fill="#777777"/>
</mask>
<g mask="url(#mask0_3086_163020)">
<rect x="113.5" width="80" height="80" fill="#454545"/>
</g>
<path d="M21.7173 100.727V124H17.9673L7.00142 108.148H6.80824V124H2.59233V100.727H6.36506L17.3196 116.591H17.5241V100.727H21.7173ZM33.7429 124.341C32.0384 124.341 30.5611 123.966 29.3111 123.216C28.0611 122.466 27.0914 121.417 26.402 120.068C25.7202 118.72 25.3793 117.144 25.3793 115.341C25.3793 113.538 25.7202 111.958 26.402 110.602C27.0914 109.246 28.0611 108.193 29.3111 107.443C30.5611 106.693 32.0384 106.318 33.7429 106.318C35.4474 106.318 36.9247 106.693 38.1747 107.443C39.4247 108.193 40.3906 109.246 41.0724 110.602C41.7618 111.958 42.1065 113.538 42.1065 115.341C42.1065 117.144 41.7618 118.72 41.0724 120.068C40.3906 121.417 39.4247 122.466 38.1747 123.216C36.9247 123.966 35.4474 124.341 33.7429 124.341ZM33.7656 121.045C34.6899 121.045 35.4626 120.792 36.0838 120.284C36.705 119.769 37.1671 119.08 37.4702 118.216C37.7808 117.352 37.9361 116.39 37.9361 115.33C37.9361 114.261 37.7808 113.295 37.4702 112.432C37.1671 111.561 36.705 110.867 36.0838 110.352C35.4626 109.837 34.6899 109.58 33.7656 109.58C32.8187 109.58 32.0308 109.837 31.402 110.352C30.7808 110.867 30.3149 111.561 30.0043 112.432C29.7012 113.295 29.5497 114.261 29.5497 115.33C29.5497 116.39 29.7012 117.352 30.0043 118.216C30.3149 119.08 30.7808 119.769 31.402 120.284C32.0308 120.792 32.8187 121.045 33.7656 121.045ZM69.1264 106.545L62.9105 124H58.3651L52.1491 106.545H56.5355L60.5469 119.511H60.7287L64.7514 106.545H69.1264ZM71.973 124V106.545H76.0866V124H71.973ZM74.0412 104.068C73.3897 104.068 72.8291 103.852 72.3594 103.42C71.8897 102.981 71.6548 102.455 71.6548 101.841C71.6548 101.22 71.8897 100.693 72.3594 100.261C72.8291 99.822 73.3897 99.6023 74.0412 99.6023C74.7003 99.6023 75.2609 99.822 75.723 100.261C76.1927 100.693 76.4276 101.22 76.4276 101.841C76.4276 102.455 76.1927 102.981 75.723 103.42C75.2609 103.852 74.7003 104.068 74.0412 104.068ZM86.794 124.307C85.4228 124.307 84.1955 123.955 83.1122 123.25C82.0289 122.545 81.1728 121.523 80.544 120.182C79.9152 118.841 79.6009 117.212 79.6009 115.295C79.6009 113.356 79.919 111.72 80.5554 110.386C81.1993 109.045 82.0668 108.034 83.1577 107.352C84.2486 106.663 85.4645 106.318 86.8054 106.318C87.8281 106.318 88.669 106.492 89.3281 106.841C89.9872 107.182 90.5099 107.595 90.8963 108.08C91.2827 108.557 91.5819 109.008 91.794 109.432H91.9645V100.727H96.0895V124H92.044V121.25H91.794C91.5819 121.674 91.2751 122.125 90.8736 122.602C90.4721 123.072 89.9418 123.473 89.2827 123.807C88.6236 124.14 87.794 124.307 86.794 124.307ZM87.9418 120.932C88.813 120.932 89.5554 120.697 90.169 120.227C90.7827 119.75 91.2486 119.087 91.5668 118.239C91.8849 117.39 92.044 116.402 92.044 115.273C92.044 114.144 91.8849 113.163 91.5668 112.33C91.2562 111.496 90.794 110.848 90.1804 110.386C89.5743 109.924 88.8281 109.693 87.9418 109.693C87.0251 109.693 86.2599 109.932 85.6463 110.409C85.0327 110.886 84.5705 111.545 84.2599 112.386C83.9493 113.227 83.794 114.189 83.794 115.273C83.794 116.364 83.9493 117.337 84.2599 118.193C84.5781 119.042 85.044 119.712 85.6577 120.205C86.2789 120.689 87.0402 120.932 87.9418 120.932ZM108.2 124.341C106.45 124.341 104.939 123.977 103.666 123.25C102.401 122.515 101.428 121.477 100.746 120.136C100.064 118.788 99.723 117.201 99.723 115.375C99.723 113.58 100.064 112.004 100.746 110.648C101.435 109.284 102.397 108.223 103.632 107.466C104.867 106.701 106.318 106.318 107.984 106.318C109.06 106.318 110.075 106.492 111.03 106.841C111.992 107.182 112.84 107.712 113.575 108.432C114.318 109.152 114.901 110.068 115.325 111.182C115.75 112.288 115.962 113.606 115.962 115.136V116.398H101.655V113.625H112.018C112.011 112.837 111.84 112.136 111.507 111.523C111.174 110.902 110.708 110.413 110.109 110.057C109.518 109.701 108.829 109.523 108.041 109.523C107.2 109.523 106.462 109.727 105.825 110.136C105.189 110.538 104.693 111.068 104.337 111.727C103.988 112.379 103.81 113.095 103.803 113.875V116.295C103.803 117.311 103.988 118.182 104.359 118.909C104.731 119.629 105.25 120.182 105.916 120.568C106.583 120.947 107.363 121.136 108.257 121.136C108.856 121.136 109.397 121.053 109.882 120.886C110.367 120.712 110.787 120.458 111.143 120.125C111.5 119.792 111.768 119.379 111.95 118.886L115.791 119.318C115.549 120.333 115.087 121.22 114.405 121.977C113.731 122.727 112.867 123.311 111.814 123.727C110.761 124.136 109.556 124.341 108.2 124.341ZM127.055 124.341C125.351 124.341 123.874 123.966 122.624 123.216C121.374 122.466 120.404 121.417 119.714 120.068C119.033 118.72 118.692 117.144 118.692 115.341C118.692 113.538 119.033 111.958 119.714 110.602C120.404 109.246 121.374 108.193 122.624 107.443C123.874 106.693 125.351 106.318 127.055 106.318C128.76 106.318 130.237 106.693 131.487 107.443C132.737 108.193 133.703 109.246 134.385 110.602C135.074 111.958 135.419 113.538 135.419 115.341C135.419 117.144 135.074 118.72 134.385 120.068C133.703 121.417 132.737 122.466 131.487 123.216C130.237 123.966 128.76 124.341 127.055 124.341ZM127.078 121.045C128.002 121.045 128.775 120.792 129.396 120.284C130.018 119.769 130.48 119.08 130.783 118.216C131.093 117.352 131.249 116.39 131.249 115.33C131.249 114.261 131.093 113.295 130.783 112.432C130.48 111.561 130.018 110.867 129.396 110.352C128.775 109.837 128.002 109.58 127.078 109.58C126.131 109.58 125.343 109.837 124.714 110.352C124.093 110.867 123.627 111.561 123.317 112.432C123.014 113.295 122.862 114.261 122.862 115.33C122.862 116.39 123.014 117.352 123.317 118.216C123.627 119.08 124.093 119.769 124.714 120.284C125.343 120.792 126.131 121.045 127.078 121.045ZM152.706 111.159L148.956 111.568C148.85 111.189 148.664 110.833 148.399 110.5C148.142 110.167 147.793 109.898 147.354 109.693C146.914 109.489 146.376 109.386 145.74 109.386C144.884 109.386 144.164 109.572 143.581 109.943C143.005 110.314 142.721 110.795 142.729 111.386C142.721 111.894 142.907 112.307 143.286 112.625C143.672 112.943 144.308 113.205 145.195 113.409L148.172 114.045C149.823 114.402 151.051 114.966 151.854 115.739C152.664 116.511 153.073 117.523 153.081 118.773C153.073 119.871 152.751 120.841 152.115 121.682C151.486 122.515 150.611 123.167 149.49 123.636C148.369 124.106 147.081 124.341 145.626 124.341C143.49 124.341 141.77 123.894 140.467 123C139.164 122.098 138.388 120.845 138.138 119.239L142.149 118.852C142.331 119.64 142.717 120.235 143.308 120.636C143.899 121.038 144.668 121.239 145.615 121.239C146.592 121.239 147.376 121.038 147.967 120.636C148.566 120.235 148.865 119.739 148.865 119.148C148.865 118.648 148.672 118.235 148.286 117.909C147.907 117.583 147.316 117.333 146.513 117.159L143.536 116.534C141.861 116.186 140.623 115.598 139.82 114.773C139.017 113.939 138.619 112.886 138.626 111.614C138.619 110.538 138.911 109.606 139.501 108.818C140.1 108.023 140.929 107.409 141.99 106.977C143.058 106.538 144.289 106.318 145.683 106.318C147.729 106.318 149.339 106.754 150.513 107.625C151.695 108.496 152.426 109.674 152.706 111.159ZM164.411 124V106.545H168.524V124H164.411ZM166.479 104.068C165.827 104.068 165.267 103.852 164.797 103.42C164.327 102.981 164.092 102.455 164.092 101.841C164.092 101.22 164.327 100.693 164.797 100.261C165.267 99.822 165.827 99.6023 166.479 99.6023C167.138 99.6023 167.698 99.822 168.161 100.261C168.63 100.693 168.865 101.22 168.865 101.841C168.865 102.455 168.63 102.981 168.161 103.42C167.698 103.852 167.138 104.068 166.479 104.068ZM176.868 113.773V124H172.754V106.545H176.686V109.511H176.891C177.292 108.534 177.932 107.758 178.811 107.182C179.697 106.606 180.792 106.318 182.095 106.318C183.3 106.318 184.349 106.576 185.243 107.091C186.144 107.606 186.841 108.352 187.334 109.33C187.834 110.307 188.08 111.492 188.072 112.886V124H183.959V113.523C183.959 112.356 183.656 111.443 183.05 110.784C182.451 110.125 181.622 109.795 180.561 109.795C179.841 109.795 179.201 109.955 178.641 110.273C178.088 110.583 177.652 111.034 177.334 111.625C177.023 112.216 176.868 112.932 176.868 113.773ZM204.305 113.773V124H200.192V100.727H204.214V109.511H204.419C204.828 108.527 205.461 107.75 206.317 107.182C207.18 106.606 208.279 106.318 209.612 106.318C210.824 106.318 211.881 106.572 212.783 107.08C213.684 107.587 214.381 108.33 214.874 109.307C215.374 110.284 215.624 111.477 215.624 112.886V124H211.51V113.523C211.51 112.348 211.207 111.436 210.601 110.784C210.002 110.125 209.161 109.795 208.078 109.795C207.351 109.795 206.699 109.955 206.124 110.273C205.555 110.583 205.108 111.034 204.783 111.625C204.464 112.216 204.305 112.932 204.305 113.773ZM219.817 124V106.545H223.93V124H219.817ZM221.885 104.068C221.233 104.068 220.673 103.852 220.203 103.42C219.733 102.981 219.499 102.455 219.499 101.841C219.499 101.22 219.733 100.693 220.203 100.261C220.673 99.822 221.233 99.6023 221.885 99.6023C222.544 99.6023 223.105 99.822 223.567 100.261C224.036 100.693 224.271 101.22 224.271 101.841C224.271 102.455 224.036 102.981 223.567 103.42C223.105 103.852 222.544 104.068 221.885 104.068ZM241.956 111.159L238.206 111.568C238.1 111.189 237.914 110.833 237.649 110.5C237.392 110.167 237.043 109.898 236.604 109.693C236.164 109.489 235.626 109.386 234.99 109.386C234.134 109.386 233.414 109.572 232.831 109.943C232.255 110.314 231.971 110.795 231.979 111.386C231.971 111.894 232.157 112.307 232.536 112.625C232.922 112.943 233.558 113.205 234.445 113.409L237.422 114.045C239.073 114.402 240.301 114.966 241.104 115.739C241.914 116.511 242.323 117.523 242.331 118.773C242.323 119.871 242.001 120.841 241.365 121.682C240.736 122.515 239.861 123.167 238.74 123.636C237.619 124.106 236.331 124.341 234.876 124.341C232.74 124.341 231.02 123.894 229.717 123C228.414 122.098 227.638 120.845 227.388 119.239L231.399 118.852C231.581 119.64 231.967 120.235 232.558 120.636C233.149 121.038 233.918 121.239 234.865 121.239C235.842 121.239 236.626 121.038 237.217 120.636C237.816 120.235 238.115 119.739 238.115 119.148C238.115 118.648 237.922 118.235 237.536 117.909C237.157 117.583 236.566 117.333 235.763 117.159L232.786 116.534C231.111 116.186 229.873 115.598 229.07 114.773C228.267 113.939 227.869 112.886 227.876 111.614C227.869 110.538 228.161 109.606 228.751 108.818C229.35 108.023 230.179 107.409 231.24 106.977C232.308 106.538 233.539 106.318 234.933 106.318C236.979 106.318 238.589 106.754 239.763 107.625C240.945 108.496 241.676 109.674 241.956 111.159ZM254.439 106.545V109.727H244.405V106.545H254.439ZM246.882 102.364H250.996V118.75C250.996 119.303 251.079 119.727 251.246 120.023C251.42 120.311 251.647 120.508 251.928 120.614C252.208 120.72 252.518 120.773 252.859 120.773C253.117 120.773 253.352 120.754 253.564 120.716C253.784 120.678 253.95 120.644 254.064 120.614L254.757 123.83C254.537 123.905 254.223 123.989 253.814 124.08C253.412 124.17 252.92 124.223 252.337 124.239C251.306 124.269 250.378 124.114 249.553 123.773C248.727 123.424 248.071 122.886 247.587 122.159C247.109 121.432 246.875 120.523 246.882 119.432V102.364ZM265.305 124.341C263.601 124.341 262.124 123.966 260.874 123.216C259.624 122.466 258.654 121.417 257.964 120.068C257.283 118.72 256.942 117.144 256.942 115.341C256.942 113.538 257.283 111.958 257.964 110.602C258.654 109.246 259.624 108.193 260.874 107.443C262.124 106.693 263.601 106.318 265.305 106.318C267.01 106.318 268.487 106.693 269.737 107.443C270.987 108.193 271.953 109.246 272.635 110.602C273.324 111.958 273.669 113.538 273.669 115.341C273.669 117.144 273.324 118.72 272.635 120.068C271.953 121.417 270.987 122.466 269.737 123.216C268.487 123.966 267.01 124.341 265.305 124.341ZM265.328 121.045C266.252 121.045 267.025 120.792 267.646 120.284C268.268 119.769 268.73 119.08 269.033 118.216C269.343 117.352 269.499 116.39 269.499 115.33C269.499 114.261 269.343 113.295 269.033 112.432C268.73 111.561 268.268 110.867 267.646 110.352C267.025 109.837 266.252 109.58 265.328 109.58C264.381 109.58 263.593 109.837 262.964 110.352C262.343 110.867 261.877 111.561 261.567 112.432C261.264 113.295 261.112 114.261 261.112 115.33C261.112 116.39 261.264 117.352 261.567 118.216C261.877 119.08 262.343 119.769 262.964 120.284C263.593 120.792 264.381 121.045 265.328 121.045ZM277.161 124V106.545H281.149V109.455H281.331C281.649 108.447 282.195 107.67 282.967 107.125C283.748 106.572 284.638 106.295 285.638 106.295C285.865 106.295 286.119 106.307 286.399 106.33C286.687 106.345 286.926 106.371 287.115 106.409V110.193C286.941 110.133 286.664 110.08 286.286 110.034C285.914 109.981 285.554 109.955 285.206 109.955C284.456 109.955 283.782 110.117 283.183 110.443C282.592 110.761 282.126 111.205 281.786 111.773C281.445 112.341 281.274 112.996 281.274 113.739V124H277.161ZM292.936 130.545C292.375 130.545 291.857 130.5 291.379 130.409C290.91 130.326 290.535 130.227 290.254 130.114L291.209 126.909C291.807 127.083 292.341 127.167 292.811 127.159C293.281 127.152 293.694 127.004 294.05 126.716C294.413 126.436 294.72 125.966 294.97 125.307L295.322 124.364L288.993 106.545H293.357L297.379 119.727H297.561L301.595 106.545H305.97L298.982 126.114C298.656 127.038 298.224 127.83 297.686 128.489C297.148 129.155 296.489 129.663 295.709 130.011C294.936 130.367 294.012 130.545 292.936 130.545Z" fill="#454545"/>
</svg>
